Kaisei-Shared-Medium.ufo
<glyph name="exclam" format="2">
  <advance height="1000" width="400"/>
  <unicode hex="0021"/>
  <note>
cid00002
</note>
  <outline>
    <contour>
      <point x="276" y="79" type="curve" smooth="yes"/>
      <point x="276" y="121"/>
      <point x="240" y="150"/>
      <point x="200" y="150" type="curve" smooth="yes"/>
      <point x="160" y="150"/>
      <point x="124" y="121"/>
      <point x="124" y="79" type="curve" smooth="yes"/>
      <point x="124" y="37"/>
      <point x="160" y="8"/>
      <point x="200" y="8" type="curve" smooth="yes"/>
      <point x="240" y="8"/>
      <point x="276" y="37"/>
    </contour>
    <contour>
      <point x="263" y="690" type="curve" smooth="yes"/>
      <point x="263" y="728"/>
      <point x="235" y="745"/>
      <point x="200" y="745" type="curve" smooth="yes"/>
      <point x="164" y="745"/>
      <point x="137" y="729"/>
      <point x="137" y="690" type="curve" smooth="yes"/>
      <point x="137" y="664"/>
      <point x="142" y="637"/>
      <point x="145" y="610" type="curve" smooth="yes"/>
      <point x="157" y="479"/>
      <point x="172" y="347"/>
      <point x="182" y="216" type="curve"/>
      <point x="218" y="216" type="line"/>
      <point x="231" y="348"/>
      <point x="241" y="481"/>
      <point x="255" y="613" type="curve" smooth="yes"/>
      <point x="258" y="639"/>
      <point x="263" y="665"/>
    </contour>
  </outline>
</glyph>
<glyph name="quotedbl" format="2">
  <advance height="1000" width="390"/>
  <unicode hex="0022"/>
  <note>
cid00003
</note>
  <outline>
    <contour>
      <point x="170" y="694" type="curve" smooth="yes"/>
      <point x="170" y="721"/>
      <point x="144" y="735"/>
      <point x="120" y="735" type="curve" smooth="yes"/>
      <point x="93" y="735"/>
      <point x="69" y="724"/>
      <point x="69" y="694" type="curve" smooth="yes"/>
      <point x="69" y="681"/>
      <point x="72" y="666"/>
      <point x="74" y="653" type="curve" smooth="yes"/>
      <point x="77" y="632"/>
      <point x="79" y="612"/>
      <point x="81" y="591" type="curve" smooth="yes"/>
      <point x="86" y="549"/>
      <point x="91" y="505"/>
      <point x="101" y="464" type="curve" smooth="yes"/>
      <point x="103" y="454"/>
      <point x="107" y="441"/>
      <point x="119" y="441" type="curve" smooth="yes"/>
      <point x="131" y="441"/>
      <point x="135" y="454"/>
      <point x="137" y="464" type="curve" smooth="yes"/>
      <point x="146" y="503"/>
      <point x="150" y="545"/>
      <point x="156" y="585" type="curve" smooth="yes"/>
      <point x="161" y="616"/>
      <point x="170" y="664"/>
    </contour>
    <contour>
      <point x="321" y="694" type="curve" smooth="yes"/>
      <point x="321" y="723"/>
      <point x="298" y="735"/>
      <point x="272" y="735" type="curve" smooth="yes"/>
      <point x="244" y="735"/>
      <point x="220" y="726"/>
      <point x="220" y="694" type="curve" smooth="yes"/>
      <point x="220" y="681"/>
      <point x="223" y="667"/>
      <point x="225" y="653" type="curve" smooth="yes"/>
      <point x="229" y="633"/>
      <point x="232" y="612"/>
      <point x="234" y="591" type="curve" smooth="yes"/>
      <point x="239" y="549"/>
      <point x="244" y="506"/>
      <point x="252" y="464" type="curve" smooth="yes"/>
      <point x="254" y="453"/>
      <point x="257" y="441"/>
      <point x="271" y="441" type="curve" smooth="yes"/>
      <point x="282" y="441"/>
      <point x="287" y="455"/>
      <point x="289" y="464" type="curve" smooth="yes"/>
      <point x="299" y="503"/>
      <point x="303" y="550"/>
      <point x="309" y="591" type="curve" smooth="yes"/>
      <point x="313" y="624"/>
      <point x="321" y="660"/>
    </contour>
  </outline>
</glyph>
<glyph name="numbersign" format="2">
  <advance height="1000" width="780"/>
  <unicode hex="0023"/>
  <note>
cid00004
</note>
  <outline>
    <contour>
      <point x="497" y="493" type="line"/>
      <point x="465" y="318" type="line"/>
      <point x="288" y="318" type="line"/>
      <point x="320" y="493" type="line"/>
    </contour>
    <contour>
      <point x="702" y="564" type="line"/>
      <point x="566" y="564" type="line"/>
      <point x="600" y="764" type="line"/>
      <point x="544" y="764" type="line"/>
      <point x="508" y="564" type="line"/>
      <point x="333" y="564" type="line"/>
      <point x="368" y="764" type="line"/>
      <point x="311" y="764" type="line"/>
      <point x="276" y="564" type="line"/>
      <point x="134" y="564" type="line"/>
      <point x="120" y="493" type="line"/>
      <point x="264" y="493" type="line"/>
      <point x="233" y="318" type="line"/>
      <point x="92" y="318" type="line"/>
      <point x="78" y="246" type="line"/>
      <point x="221" y="246" type="line"/>
      <point x="172" y="-10" type="line"/>
      <point x="229" y="-10" type="line"/>
      <point x="276" y="246" type="line"/>
      <point x="453" y="246" type="line"/>
      <point x="407" y="-10" type="line"/>
      <point x="465" y="-10" type="line"/>
      <point x="510" y="246" type="line"/>
      <point x="646" y="246" type="line"/>
      <point x="660" y="318" type="line"/>
      <point x="522" y="318" type="line"/>
      <point x="554" y="493" type="line"/>
      <point x="688" y="493" type="line"/>
    </contour>
  </outline>
</glyph>
<glyph name="dollar" format="2">
  <advance height="1000" width="700"/>
  <unicode hex="0024"/>
  <note>
cid00005
</note>
  <outline>
    <contour>
      <point x="486" y="184" type="curve" smooth="yes"/>
      <point x="486" y="100"/>
      <point x="443" y="65"/>
      <point x="369" y="40" type="curve"/>
      <point x="369" y="332" type="line"/>
      <point x="430" y="298"/>
      <point x="486" y="261"/>
    </contour>
    <contour>
      <point x="321" y="719" type="curve"/>
      <point x="321" y="454" type="line"/>
      <point x="268" y="487"/>
      <point x="209" y="523"/>
      <point x="209" y="593" type="curve" smooth="yes"/>
      <point x="209" y="670"/>
      <point x="249" y="703"/>
    </contour>
    <contour>
      <point x="599" y="197" type="curve" smooth="yes"/>
      <point x="599" y="336"/>
      <point x="475" y="383"/>
      <point x="369" y="431" type="curve"/>
      <point x="369" y="719" type="line"/>
      <point x="424" y="704"/>
      <point x="474" y="663"/>
      <point x="490" y="608" type="curve" smooth="yes"/>
      <point x="496" y="589"/>
      <point x="497" y="570"/>
      <point x="502" y="553" type="curve" smooth="yes"/>
      <point x="504" y="542"/>
      <point x="513" y="540"/>
      <point x="524" y="540" type="curve" smooth="yes"/>
      <point x="543" y="540"/>
      <point x="559" y="544"/>
      <point x="559" y="566" type="curve" smooth="yes"/>
      <point x="559" y="572"/>
      <point x="558" y="577"/>
      <point x="557" y="582" type="curve" smooth="yes"/>
      <point x="549" y="621"/>
      <point x="545" y="662"/>
      <point x="541" y="702" type="curve"/>
      <point x="520" y="704"/>
      <point x="489" y="708"/>
      <point x="470" y="717" type="curve" smooth="yes"/>
      <point x="436" y="731"/>
      <point x="406" y="742"/>
      <point x="369" y="744" type="curve"/>
      <point x="369" y="813" type="line"/>
      <point x="321" y="813" type="line"/>
      <point x="321" y="745" type="line"/>
      <point x="212" y="736"/>
      <point x="109" y="679"/>
      <point x="109" y="557" type="curve" smooth="yes"/>
      <point x="109" y="481"/>
      <point x="183" y="423"/>
      <point x="245" y="393" type="curve" smooth="yes"/>
      <point x="271" y="381"/>
      <point x="296" y="369"/>
      <point x="321" y="356" type="curve"/>
      <point x="321" y="37" type="line"/>
      <point x="211" y="47"/>
      <point x="172" y="94"/>
      <point x="154" y="197" type="curve" smooth="yes"/>
      <point x="151" y="215"/>
      <point x="144" y="223"/>
      <point x="125" y="223" type="curve" smooth="yes"/>
      <point x="111" y="223"/>
      <point x="101" y="220"/>
      <point x="101" y="205" type="curve" smooth="yes"/>
      <point x="101" y="160"/>
      <point x="118" y="100"/>
      <point x="124" y="53" type="curve"/>
      <point x="154" y="47"/>
      <point x="180" y="32"/>
      <point x="208" y="21" type="curve" smooth="yes"/>
      <point x="244" y="7"/>
      <point x="283" y="3"/>
      <point x="321" y="2" type="curve"/>
      <point x="321" y="-71" type="line"/>
      <point x="369" y="-71" type="line"/>
      <point x="369" y="4" type="line"/>
      <point x="482" y="17"/>
      <point x="599" y="65"/>
    </contour>
  </outline>
</glyph>
<glyph name="percent" format="2">
  <advance height="1000" width="886"/>
  <unicode hex="0025"/>
  <note>
cid00006
</note>
  <outline>
    <contour>
      <point x="323" y="537" type="curve" smooth="yes"/>
      <point x="323" y="473"/>
      <point x="323" y="374"/>
      <point x="235" y="374" type="curve" smooth="yes"/>
      <point x="161" y="374"/>
      <point x="148" y="482"/>
      <point x="148" y="537" type="curve" smooth="yes"/>
      <point x="148" y="600"/>
      <point x="148" y="711"/>
      <point x="235" y="711" type="curve" smooth="yes"/>
      <point x="324" y="711"/>
      <point x="323" y="600"/>
    </contour>
    <contour>
      <point x="736" y="184" type="curve" smooth="yes"/>
      <point x="736" y="120"/>
      <point x="737" y="21"/>
      <point x="649" y="21" type="curve" smooth="yes"/>
      <point x="574" y="21"/>
      <point x="561" y="129"/>
      <point x="561" y="184" type="curve" smooth="yes"/>
      <point x="561" y="246"/>
      <point x="561" y="358"/>
      <point x="649" y="358" type="curve" smooth="yes"/>
      <point x="737" y="358"/>
      <point x="736" y="247"/>
    </contour>
    <contour>
      <point x="416" y="537" type="curve" smooth="yes"/>
      <point x="416" y="639"/>
      <point x="343" y="738"/>
      <point x="235" y="738" type="curve" smooth="yes"/>
      <point x="140" y="738"/>
      <point x="57" y="627"/>
      <point x="57" y="537" type="curve" smooth="yes"/>
      <point x="57" y="441"/>
      <point x="136" y="346"/>
      <point x="235" y="346" type="curve" smooth="yes"/>
      <point x="330" y="346"/>
      <point x="416" y="445"/>
    </contour>
    <contour>
      <point x="770" y="719" type="line"/>
      <point x="738" y="743" type="line"/>
      <point x="110" y="-1" type="line"/>
      <point x="142" y="-25" type="line"/>
    </contour>
    <contour>
      <point x="829" y="184" type="curve" smooth="yes"/>
      <point x="829" y="286"/>
      <point x="756" y="385"/>
      <point x="649" y="385" type="curve" smooth="yes"/>
      <point x="553" y="385"/>
      <point x="470" y="274"/>
      <point x="470" y="184" type="curve" smooth="yes"/>
      <point x="470" y="88"/>
      <point x="549" y="-7"/>
      <point x="649" y="-7" type="curve" smooth="yes"/>
      <point x="743" y="-7"/>
      <point x="829" y="92"/>
    </contour>
  </outline>
</glyph>
<glyph name="ampersand" format="2">
  <advance height="1000" width="758"/>
  <unicode hex="0026"/>
  <note>
cid00007
</note>
  <outline>
    <contour>
      <point x="449" y="76" type="curve"/>
      <point x="406" y="44"/>
      <point x="362" y="37"/>
      <point x="310" y="37" type="curve" smooth="yes"/>
      <point x="215" y="37"/>
      <point x="163" y="119"/>
      <point x="163" y="207" type="curve" smooth="yes"/>
      <point x="163" y="264"/>
      <point x="189" y="324"/>
      <point x="223" y="369" type="curve"/>
      <point x="263" y="267"/>
      <point x="355" y="136"/>
    </contour>
    <contour>
      <point x="394" y="638" type="curve" smooth="yes"/>
      <point x="394" y="574"/>
      <point x="334" y="511"/>
      <point x="289" y="472" type="curve"/>
      <point x="272" y="509"/>
      <point x="261" y="550"/>
      <point x="261" y="590" type="curve" smooth="yes"/>
      <point x="261" y="641"/>
      <point x="288" y="702"/>
      <point x="347" y="702" type="curve" smooth="yes"/>
      <point x="373" y="702"/>
      <point x="394" y="661"/>
    </contour>
    <contour>
      <point x="760" y="46" type="curve"/>
      <point x="743" y="39"/>
      <point x="724" y="32"/>
      <point x="705" y="32" type="curve" smooth="yes"/>
      <point x="651" y="32"/>
      <point x="587" y="64"/>
      <point x="546" y="99" type="curve"/>
      <point x="603" y="149"/>
      <point x="622" y="212"/>
      <point x="622" y="286" type="curve" smooth="yes"/>
      <point x="622" y="334"/>
      <point x="567" y="376"/>
      <point x="525" y="387" type="curve"/>
      <point x="567" y="390"/>
      <point x="608" y="395"/>
      <point x="650" y="395" type="curve" smooth="yes"/>
      <point x="658" y="395"/>
      <point x="674" y="393"/>
      <point x="681" y="395" type="curve" smooth="yes"/>
      <point x="691" y="398"/>
      <point x="693" y="403"/>
      <point x="698" y="412" type="curve" smooth="yes"/>
      <point x="704" y="421"/>
      <point x="729" y="481"/>
      <point x="729" y="488" type="curve" smooth="yes"/>
      <point x="729" y="499"/>
      <point x="723" y="504"/>
      <point x="712" y="504" type="curve" smooth="yes"/>
      <point x="703" y="504"/>
      <point x="665" y="457"/>
      <point x="654" y="448" type="curve" smooth="yes"/>
      <point x="640" y="437"/>
      <point x="624" y="431"/>
      <point x="608" y="426" type="curve" smooth="yes"/>
      <point x="567" y="416"/>
      <point x="523" y="414"/>
      <point x="482" y="414" type="curve" smooth="yes"/>
      <point x="466" y="414"/>
      <point x="465" y="400"/>
      <point x="465" y="388" type="curve" smooth="yes"/>
      <point x="465" y="383"/>
      <point x="464" y="377"/>
      <point x="471" y="377" type="curve" smooth="yes"/>
      <point x="477" y="377"/>
      <point x="482" y="378"/>
      <point x="488" y="378" type="curve" smooth="yes"/>
      <point x="518" y="378"/>
      <point x="534" y="305"/>
      <point x="534" y="282" type="curve" smooth="yes"/>
      <point x="534" y="232"/>
      <point x="528" y="181"/>
      <point x="502" y="137" type="curve"/>
      <point x="422" y="212"/>
      <point x="346" y="330"/>
      <point x="305" y="431" type="curve"/>
      <point x="370" y="484"/>
      <point x="495" y="523"/>
      <point x="495" y="625" type="curve" smooth="yes"/>
      <point x="495" y="694"/>
      <point x="430" y="734"/>
      <point x="366" y="734" type="curve" smooth="yes"/>
      <point x="306" y="734"/>
      <point x="246" y="712"/>
      <point x="207" y="664" type="curve" smooth="yes"/>
      <point x="182" y="633"/>
      <point x="167" y="594"/>
      <point x="167" y="554" type="curve" smooth="yes"/>
      <point x="167" y="505"/>
      <point x="180" y="457"/>
      <point x="199" y="413" type="curve"/>
      <point x="123" y="358"/>
      <point x="53" y="275"/>
      <point x="53" y="177" type="curve" smooth="yes"/>
      <point x="53" y="56"/>
      <point x="158" y="-9"/>
      <point x="270" y="-9" type="curve" smooth="yes"/>
      <point x="350" y="-9"/>
      <point x="419" y="6"/>
      <point x="485" y="52" type="curve"/>
      <point x="531" y="10"/>
      <point x="598" y="-14"/>
      <point x="660" y="-14" type="curve" smooth="yes"/>
      <point x="697" y="-14"/>
      <point x="754" y="4"/>
    </contour>
  </outline>
</glyph>
<glyph name="quotesingle" format="2">
  <advance height="1000" width="280"/>
  <unicode hex="0027"/>
  <note>
cid00008
</note>
  <outline>
    <contour>
      <point x="189" y="694" type="curve" smooth="yes"/>
      <point x="189" y="720"/>
      <point x="165" y="735"/>
      <point x="141" y="735" type="curve" smooth="yes"/>
      <point x="114" y="735"/>
      <point x="91" y="724"/>
      <point x="91" y="694" type="curve" smooth="yes"/>
      <point x="91" y="681"/>
      <point x="94" y="666"/>
      <point x="95" y="653" type="curve" smooth="yes"/>
      <point x="98" y="632"/>
      <point x="101" y="612"/>
      <point x="103" y="591" type="curve" smooth="yes"/>
      <point x="107" y="549"/>
      <point x="112" y="505"/>
      <point x="122" y="464" type="curve" smooth="yes"/>
      <point x="124" y="454"/>
      <point x="128" y="441"/>
      <point x="140" y="441" type="curve" smooth="yes"/>
      <point x="152" y="441"/>
      <point x="156" y="455"/>
      <point x="158" y="464" type="curve" smooth="yes"/>
      <point x="166" y="503"/>
      <point x="170" y="545"/>
      <point x="176" y="585" type="curve" smooth="yes"/>
      <point x="180" y="616"/>
      <point x="189" y="664"/>
    </contour>
  </outline>
</glyph>
<glyph name="parenleft" format="2">
  <advance height="1000" width="450"/>
  <unicode hex="0028"/>
  <note>
cid00009
</note>
  <outline>
    <contour>
      <point x="393" y="-111" type="curve"/>
      <point x="410" y="-82" type="line"/>
      <point x="272" y="17"/>
      <point x="221" y="210"/>
      <point x="221" y="371" type="curve" smooth="yes"/>
      <point x="221" y="535"/>
      <point x="268" y="729"/>
      <point x="407" y="833" type="curve"/>
      <point x="393" y="863" type="line"/>
      <point x="213" y="749"/>
      <point x="132" y="577"/>
      <point x="132" y="364" type="curve" smooth="yes"/>
      <point x="132" y="160"/>
      <point x="214" y="-8"/>
    </contour>
  </outline>
</glyph>
<glyph name="parenright" format="2">
  <advance height="1000" width="450"/>
  <unicode hex="0029"/>
  <note>
cid00010
</note>
  <outline>
    <contour>
      <point x="311" y="364" type="curve" smooth="yes"/>
      <point x="311" y="576"/>
      <point x="230" y="748"/>
      <point x="50" y="863" type="curve"/>
      <point x="36" y="833" type="line"/>
      <point x="175" y="729"/>
      <point x="222" y="535"/>
      <point x="222" y="370" type="curve" smooth="yes"/>
      <point x="222" y="212"/>
      <point x="174" y="16"/>
      <point x="37" y="-81" type="curve"/>
      <point x="50" y="-112" type="line"/>
      <point x="229" y="-9"/>
      <point x="311" y="159"/>
    </contour>
  </outline>
</glyph>
<glyph name="asterisk" format="2">
  <advance height="1000" width="450"/>
  <unicode hex="002A"/>
  <note>
cid00011
</note>
  <outline>
    <contour>
      <point x="397" y="508" type="curve" smooth="yes"/>
      <point x="397" y="520"/>
      <point x="391" y="531"/>
      <point x="380" y="538" type="curve" smooth="yes"/>
      <point x="374" y="542"/>
      <point x="363" y="543"/>
      <point x="355" y="546" type="curve" smooth="yes"/>
      <point x="318" y="560"/>
      <point x="280" y="571"/>
      <point x="243" y="587" type="curve"/>
      <point x="286" y="607"/>
      <point x="331" y="620"/>
      <point x="374" y="637" type="curve"/>
      <point x="376" y="637"/>
      <point x="377" y="638"/>
      <point x="378" y="639" type="curve" smooth="yes"/>
      <point x="389" y="646"/>
      <point x="395" y="657"/>
      <point x="395" y="670" type="curve" smooth="yes"/>
      <point x="395" y="690"/>
      <point x="378" y="702"/>
      <point x="359" y="702" type="curve" smooth="yes"/>
      <point x="350" y="702"/>
      <point x="341" y="699"/>
      <point x="334" y="694" type="curve" smooth="yes"/>
      <point x="301" y="665"/>
      <point x="271" y="634"/>
      <point x="236" y="607" type="curve"/>
      <point x="241" y="652"/>
      <point x="250" y="697"/>
      <point x="260" y="741" type="curve"/>
      <point x="261" y="743"/>
      <point x="261" y="744"/>
      <point x="261" y="745" type="curve" smooth="yes"/>
      <point x="261" y="765"/>
      <point x="244" y="782"/>
      <point x="224" y="782" type="curve" smooth="yes"/>
      <point x="205" y="782"/>
      <point x="187" y="767"/>
      <point x="187" y="747" type="curve" smooth="yes"/>
      <point x="187" y="745"/>
      <point x="188" y="743"/>
      <point x="188" y="741" type="curve"/>
      <point x="197" y="696"/>
      <point x="208" y="652"/>
      <point x="213" y="606" type="curve"/>
      <point x="177" y="632"/>
      <point x="149" y="665"/>
      <point x="115" y="693" type="curve" smooth="yes"/>
      <point x="108" y="698"/>
      <point x="99" y="700"/>
      <point x="90" y="700" type="curve" smooth="yes"/>
      <point x="71" y="700"/>
      <point x="53" y="689"/>
      <point x="53" y="668" type="curve" smooth="yes"/>
      <point x="53" y="655"/>
      <point x="60" y="641"/>
      <point x="73" y="636" type="curve" smooth="yes"/>
      <point x="86" y="632"/>
      <point x="100" y="628"/>
      <point x="114" y="624" type="curve" smooth="yes"/>
      <point x="145" y="613"/>
      <point x="176" y="601"/>
      <point x="207" y="588" type="curve"/>
      <point x="165" y="566"/>
      <point x="120" y="554"/>
      <point x="75" y="539" type="curve" smooth="yes"/>
      <point x="61" y="534"/>
      <point x="53" y="520"/>
      <point x="53" y="505" type="curve" smooth="yes"/>
      <point x="53" y="485"/>
      <point x="71" y="474"/>
      <point x="90" y="474" type="curve" smooth="yes"/>
      <point x="98" y="474"/>
      <point x="106" y="476"/>
      <point x="112" y="481" type="curve" smooth="yes"/>
      <point x="147" y="509"/>
      <point x="177" y="542"/>
      <point x="214" y="569" type="curve"/>
      <point x="210" y="535"/>
      <point x="203" y="501"/>
      <point x="197" y="467" type="curve" smooth="yes"/>
      <point x="194" y="455"/>
      <point x="189" y="443"/>
      <point x="189" y="430" type="curve" smooth="yes"/>
      <point x="189" y="408"/>
      <point x="203" y="394"/>
      <point x="226" y="394" type="curve" smooth="yes"/>
      <point x="245" y="394"/>
      <point x="262" y="408"/>
      <point x="262" y="428" type="curve" smooth="yes"/>
      <point x="262" y="431"/>
      <point x="262" y="435"/>
      <point x="262" y="438" type="curve"/>
      <point x="255" y="482"/>
      <point x="243" y="525"/>
      <point x="236" y="568" type="curve"/>
      <point x="269" y="542"/>
      <point x="300" y="513"/>
      <point x="332" y="486" type="curve" smooth="yes"/>
      <point x="340" y="479"/>
      <point x="349" y="476"/>
      <point x="360" y="476" type="curve" smooth="yes"/>
      <point x="379" y="476"/>
      <point x="397" y="487"/>
    </contour>
  </outline>
</glyph>
<glyph name="comma" format="2">
  <advance height="1000" width="350"/>
  <unicode hex="002C"/>
  <note>
cid00013
</note>
  <outline>
    <contour>
      <point x="248" y="52" type="curve" smooth="yes"/>
      <point x="248" y="102"/>
      <point x="229" y="142"/>
      <point x="174" y="142" type="curve" smooth="yes"/>
      <point x="130" y="142"/>
      <point x="102" y="113"/>
      <point x="102" y="69" type="curve" smooth="yes"/>
      <point x="102" y="38"/>
      <point x="130" y="8"/>
      <point x="161" y="8" type="curve" smooth="yes"/>
      <point x="170" y="8"/>
      <point x="181" y="10"/>
      <point x="188" y="17" type="curve"/>
      <point x="188" y="-28"/>
      <point x="166" y="-90"/>
      <point x="143" y="-129" type="curve"/>
      <point x="165" y="-136" type="line"/>
      <point x="206" y="-95"/>
      <point x="248" y="-6"/>
    </contour>
  </outline>
</glyph>
<glyph name="period" format="2">
  <advance height="1000" width="350"/>
  <unicode hex="002E"/>
  <note>
cid00015
</note>
  <outline>
    <contour>
      <point x="251" y="72" type="curve" smooth="yes"/>
      <point x="251" y="114"/>
      <point x="215" y="142"/>
      <point x="175" y="142" type="curve" smooth="yes"/>
      <point x="135" y="142"/>
      <point x="99" y="114"/>
      <point x="99" y="72" type="curve" smooth="yes"/>
      <point x="99" y="30"/>
      <point x="135" y="2"/>
      <point x="175" y="2" type="curve" smooth="yes"/>
      <point x="215" y="2"/>
      <point x="251" y="30"/>
    </contour>
  </outline>
</glyph>
<glyph name="slash" format="2">
  <advance height="1000" width="500"/>
  <unicode hex="002F"/>
  <note>
cid00016
</note>
  <outline>
    <contour>
      <point x="454" y="793" type="line"/>
      <point x="407" y="815" type="line"/>
      <point x="46" y="-43" type="line"/>
      <point x="92" y="-65" type="line"/>
    </contour>
  </outline>
</glyph>
<glyph name="zero" format="2">
  <advance height="1000" width="590"/>
  <unicode hex="0030"/>
  <note>
cid00017
</note>
  <outline>
    <contour>
      <point x="430" y="362" type="curve" smooth="yes"/>
      <point x="430" y="273"/>
      <point x="415" y="36"/>
      <point x="289" y="36" type="curve" smooth="yes"/>
      <point x="168" y="36"/>
      <point x="156" y="271"/>
      <point x="156" y="355" type="curve" smooth="yes"/>
      <point x="156" y="442"/>
      <point x="174" y="700"/>
      <point x="296" y="700" type="curve" smooth="yes"/>
      <point x="428" y="700"/>
      <point x="430" y="453"/>
    </contour>
    <contour>
      <point x="545" y="375" type="curve" smooth="yes"/>
      <point x="545" y="525"/>
      <point x="489" y="732"/>
      <point x="305" y="732" type="curve" smooth="yes"/>
      <point x="109" y="732"/>
      <point x="45" y="509"/>
      <point x="45" y="350" type="curve" smooth="yes"/>
      <point x="45" y="201"/>
      <point x="105" y="2"/>
      <point x="287" y="2" type="curve" smooth="yes"/>
      <point x="478" y="2"/>
      <point x="545" y="217"/>
    </contour>
  </outline>
</glyph>
<glyph name="one" format="2">
  <advance height="1000" width="590"/>
  <unicode hex="0031"/>
  <note>
cid00018
</note>
  <outline>
    <contour>
      <point x="491" y="15" type="curve" smooth="yes"/>
      <point x="491" y="24"/>
      <point x="485" y="33"/>
      <point x="476" y="33" type="curve" smooth="yes"/>
      <point x="456" y="33"/>
      <point x="437" y="31"/>
      <point x="418" y="31" type="curve" smooth="yes"/>
      <point x="404" y="31"/>
      <point x="375" y="38"/>
      <point x="375" y="55" type="curve" smooth="yes"/>
      <point x="375" y="67"/>
      <point x="374" y="79"/>
      <point x="374" y="91" type="curve" smooth="yes"/>
      <point x="374" y="179"/>
      <point x="374" y="267"/>
      <point x="375" y="355" type="curve" smooth="yes"/>
      <point x="375" y="448"/>
      <point x="377" y="552"/>
      <point x="377" y="648" type="curve" smooth="yes"/>
      <point x="377" y="675"/>
      <point x="379" y="720"/>
      <point x="379" y="729" type="curve" smooth="yes"/>
      <point x="379" y="745"/>
      <point x="372" y="746"/>
      <point x="362" y="746" type="curve" smooth="yes"/>
      <point x="360" y="746"/>
      <point x="331" y="738"/>
      <point x="300" y="727" type="curve" smooth="yes"/>
      <point x="250" y="710"/>
      <point x="184" y="686"/>
      <point x="170" y="681" type="curve" smooth="yes"/>
      <point x="153" y="675"/>
      <point x="135" y="669"/>
      <point x="118" y="664" type="curve" smooth="yes"/>
      <point x="111" y="662"/>
      <point x="99" y="658"/>
      <point x="99" y="649" type="curve" smooth="yes"/>
      <point x="99" y="635"/>
      <point x="106" y="622"/>
      <point x="121" y="622" type="curve" smooth="yes"/>
      <point x="132" y="622"/>
      <point x="181" y="643"/>
      <point x="216" y="656" type="curve" smooth="yes"/>
      <point x="233" y="662"/>
      <point x="247" y="667"/>
      <point x="252" y="667" type="curve" smooth="yes"/>
      <point x="257" y="667"/>
      <point x="259" y="660"/>
      <point x="259" y="656" type="curve" smooth="yes"/>
      <point x="259" y="560"/>
      <point x="259" y="464"/>
      <point x="259" y="369" type="curve" smooth="yes"/>
      <point x="259" y="264"/>
      <point x="257" y="117"/>
      <point x="257" y="55" type="curve" smooth="yes"/>
      <point x="257" y="31"/>
      <point x="224" y="31"/>
      <point x="206" y="31" type="curve" smooth="yes"/>
      <point x="200" y="31"/>
      <point x="171" y="32"/>
      <point x="163" y="32" type="curve" smooth="yes"/>
      <point x="152" y="31"/>
      <point x="142" y="28"/>
      <point x="142" y="15" type="curve" smooth="yes"/>
      <point x="142" y="5"/>
      <point x="149" y="-2"/>
      <point x="160" y="-2" type="curve" smooth="yes"/>
      <point x="171" y="-2"/>
      <point x="183" y="-1"/>
      <point x="195" y="0" type="curve" smooth="yes"/>
      <point x="235" y="2"/>
      <point x="274" y="3"/>
      <point x="314" y="3" type="curve" smooth="yes"/>
      <point x="356" y="3"/>
      <point x="399" y="1"/>
      <point x="441" y="0" type="curve" smooth="yes"/>
      <point x="452" y="0"/>
      <point x="463" y="-2"/>
      <point x="473" y="-2" type="curve" smooth="yes"/>
      <point x="485" y="-2"/>
      <point x="491" y="3"/>
    </contour>
  </outline>
</glyph>
<glyph name="two" format="2">
  <advance height="1000" width="590"/>
  <unicode hex="0032"/>
  <note>
cid00019
</note>
  <outline>
    <contour>
      <point x="545" y="154" type="curve" smooth="yes"/>
      <point x="545" y="163"/>
      <point x="536" y="167"/>
      <point x="528" y="167" type="curve" smooth="yes"/>
      <point x="520" y="167"/>
      <point x="518" y="164"/>
      <point x="515" y="160" type="curve" smooth="yes"/>
      <point x="473" y="100"/>
      <point x="427" y="83"/>
      <point x="355" y="82" type="curve" smooth="yes"/>
      <point x="229" y="79" type="line" smooth="yes"/>
      <point x="191" y="78"/>
      <point x="152" y="77"/>
      <point x="114" y="77" type="curve" smooth="yes"/>
      <point x="112" y="77"/>
      <point x="112" y="77"/>
      <point x="112" y="78" type="curve" smooth="yes"/>
      <point x="112" y="81"/>
      <point x="112" y="84"/>
      <point x="113" y="87" type="curve" smooth="yes"/>
      <point x="121" y="107"/>
      <point x="146" y="144"/>
      <point x="161" y="161" type="curve" smooth="yes"/>
      <point x="282" y="291"/>
      <point x="517" y="342"/>
      <point x="517" y="557" type="curve" smooth="yes"/>
      <point x="517" y="667"/>
      <point x="412" y="730"/>
      <point x="312" y="730" type="curve" smooth="yes"/>
      <point x="207" y="730"/>
      <point x="54" y="669"/>
      <point x="54" y="544" type="curve" smooth="yes"/>
      <point x="54" y="505"/>
      <point x="75" y="491"/>
      <point x="112" y="491" type="curve" smooth="yes"/>
      <point x="123" y="491"/>
      <point x="136" y="493"/>
      <point x="144" y="500" type="curve" smooth="yes"/>
      <point x="153" y="508"/>
      <point x="156" y="517"/>
      <point x="156" y="528" type="curve" smooth="yes"/>
      <point x="158" y="563"/>
      <point x="161" y="604"/>
      <point x="180" y="634" type="curve" smooth="yes"/>
      <point x="207" y="676"/>
      <point x="244" y="695"/>
      <point x="293" y="695" type="curve" smooth="yes"/>
      <point x="377" y="695"/>
      <point x="398" y="622"/>
      <point x="398" y="552" type="curve" smooth="yes"/>
      <point x="398" y="484"/>
      <point x="358" y="414"/>
      <point x="310" y="368" type="curve" smooth="yes"/>
      <point x="235" y="295"/>
      <point x="110" y="189"/>
      <point x="63" y="97" type="curve" smooth="yes"/>
      <point x="50" y="72"/>
      <point x="45" y="44"/>
      <point x="45" y="17" type="curve" smooth="yes"/>
      <point x="45" y="6"/>
      <point x="55" y="2"/>
      <point x="64" y="2" type="curve" smooth="yes"/>
      <point x="82" y="2"/>
      <point x="130" y="4"/>
      <point x="161" y="5" type="curve" smooth="yes"/>
      <point x="191" y="5"/>
      <point x="221" y="5"/>
      <point x="251" y="5" type="curve" smooth="yes"/>
      <point x="289" y="5"/>
      <point x="326" y="7"/>
      <point x="364" y="7" type="curve" smooth="yes"/>
      <point x="403" y="7"/>
      <point x="442" y="3"/>
      <point x="481" y="3" type="curve" smooth="yes"/>
      <point x="493" y="3"/>
      <point x="502" y="6"/>
      <point x="505" y="18" type="curve" smooth="yes"/>
      <point x="513" y="42"/>
      <point x="516" y="68"/>
      <point x="524" y="93" type="curve" smooth="yes"/>
      <point x="527" y="106"/>
      <point x="533" y="119"/>
      <point x="537" y="133" type="curve" smooth="yes"/>
      <point x="538" y="136"/>
      <point x="545" y="152"/>
    </contour>
  </outline>
</glyph>
<glyph name="three" format="2">
  <advance height="1000" width="590"/>
  <unicode hex="0033"/>
  <note>
cid00020
</note>
  <outline>
    <contour>
      <point x="542" y="247" type="curve" smooth="yes"/>
      <point x="542" y="317"/>
      <point x="494" y="369"/>
      <point x="430" y="392" type="curve" smooth="yes"/>
      <point x="406" y="401"/>
      <point x="374" y="403"/>
      <point x="349" y="404" type="curve"/>
      <point x="381" y="413"/>
      <point x="413" y="428"/>
      <point x="439" y="450" type="curve" smooth="yes"/>
      <point x="475" y="481"/>
      <point x="507" y="530"/>
      <point x="507" y="579" type="curve" smooth="yes"/>
      <point x="507" y="684"/>
      <point x="406" y="737"/>
      <point x="313" y="737" type="curve" smooth="yes"/>
      <point x="232" y="737"/>
      <point x="145" y="715"/>
      <point x="93" y="648" type="curve" smooth="yes"/>
      <point x="84" y="636"/>
      <point x="68" y="603"/>
      <point x="68" y="588" type="curve" smooth="yes"/>
      <point x="68" y="551"/>
      <point x="96" y="537"/>
      <point x="129" y="537" type="curve" smooth="yes"/>
      <point x="145" y="537"/>
      <point x="159" y="542"/>
      <point x="159" y="560" type="curve" smooth="yes"/>
      <point x="159" y="640"/>
      <point x="200" y="702"/>
      <point x="285" y="702" type="curve" smooth="yes"/>
      <point x="370" y="702"/>
      <point x="396" y="638"/>
      <point x="396" y="564" type="curve" smooth="yes"/>
      <point x="396" y="489"/>
      <point x="368" y="440"/>
      <point x="293" y="421" type="curve" smooth="yes"/>
      <point x="270" y="414"/>
      <point x="240" y="415"/>
      <point x="215" y="415" type="curve" smooth="yes"/>
      <point x="196" y="415"/>
      <point x="184" y="419"/>
      <point x="184" y="391" type="curve" smooth="yes"/>
      <point x="184" y="379"/>
      <point x="189" y="372"/>
      <point x="201" y="372" type="curve" smooth="yes"/>
      <point x="213" y="372"/>
      <point x="224" y="378"/>
      <point x="235" y="380" type="curve" smooth="yes"/>
      <point x="252" y="383"/>
      <point x="270" y="386"/>
      <point x="288" y="386" type="curve" smooth="yes"/>
      <point x="377" y="386"/>
      <point x="422" y="319"/>
      <point x="422" y="235" type="curve" smooth="yes"/>
      <point x="422" y="102"/>
      <point x="370" y="34"/>
      <point x="235" y="34" type="curve" smooth="yes"/>
      <point x="174" y="34"/>
      <point x="146" y="95"/>
      <point x="139" y="147" type="curve" smooth="yes"/>
      <point x="138" y="156"/>
      <point x="136" y="161"/>
      <point x="129" y="167" type="curve" smooth="yes"/>
      <point x="122" y="174"/>
      <point x="110" y="176"/>
      <point x="101" y="176" type="curve" smooth="yes"/>
      <point x="68" y="176"/>
      <point x="44" y="162"/>
      <point x="44" y="127" type="curve" smooth="yes"/>
      <point x="44" y="109"/>
      <point x="50" y="91"/>
      <point x="58" y="76" type="curve" smooth="yes"/>
      <point x="94" y="13"/>
      <point x="177" y="0"/>
      <point x="242" y="0" type="curve" smooth="yes"/>
      <point x="395" y="0"/>
      <point x="542" y="76"/>
    </contour>
  </outline>
</glyph>
<glyph name="four" format="2">
  <advance height="1000" width="590"/>
  <unicode hex="0034"/>
  <note>
cid00021
</note>
  <outline>
    <contour>
      <point x="330" y="515" type="curve" smooth="yes"/>
      <point x="330" y="429"/>
      <point x="330" y="344"/>
      <point x="330" y="258" type="curve"/>
      <point x="87" y="258" type="line"/>
      <point x="330" y="606" type="line"/>
      <point x="330" y="575"/>
      <point x="330" y="545"/>
    </contour>
    <contour>
      <point x="576" y="292" type="curve" smooth="yes"/>
      <point x="576" y="298"/>
      <point x="566" y="303"/>
      <point x="561" y="303" type="curve" smooth="yes"/>
      <point x="554" y="303"/>
      <point x="550" y="296"/>
      <point x="546" y="289" type="curve" smooth="yes"/>
      <point x="537" y="277"/>
      <point x="527" y="258"/>
      <point x="494" y="258" type="curve" smooth="yes"/>
      <point x="439" y="258" type="line"/>
      <point x="439" y="722" type="line" smooth="yes"/>
      <point x="439" y="725"/>
      <point x="443" y="729"/>
      <point x="443" y="732" type="curve" smooth="yes"/>
      <point x="443" y="739"/>
      <point x="433" y="739"/>
      <point x="428" y="739" type="curve" smooth="yes"/>
      <point x="376" y="739" type="line" smooth="yes"/>
      <point x="367" y="739"/>
      <point x="358" y="731"/>
      <point x="353" y="724" type="curve" smooth="yes"/>
      <point x="245" y="561"/>
      <point x="132" y="403"/>
      <point x="21" y="242" type="curve" smooth="yes"/>
      <point x="18" y="237"/>
      <point x="14" y="232"/>
      <point x="14" y="225" type="curve" smooth="yes"/>
      <point x="14" y="211"/>
      <point x="25" y="206"/>
      <point x="37" y="206" type="curve" smooth="yes"/>
      <point x="330" y="206" type="line"/>
      <point x="330" y="57" type="line" smooth="yes"/>
      <point x="330" y="28"/>
      <point x="287" y="33"/>
      <point x="267" y="33" type="curve" smooth="yes"/>
      <point x="253" y="33"/>
      <point x="229" y="38"/>
      <point x="229" y="17" type="curve" smooth="yes"/>
      <point x="229" y="6"/>
      <point x="236" y="0"/>
      <point x="247" y="0" type="curve" smooth="yes"/>
      <point x="259" y="0"/>
      <point x="271" y="1"/>
      <point x="283" y="2" type="curve" smooth="yes"/>
      <point x="318" y="3"/>
      <point x="352" y="5"/>
      <point x="387" y="5" type="curve" smooth="yes"/>
      <point x="421" y="5"/>
      <point x="455" y="3"/>
      <point x="489" y="2" type="curve" smooth="yes"/>
      <point x="500" y="1"/>
      <point x="511" y="0"/>
      <point x="522" y="0" type="curve" smooth="yes"/>
      <point x="533" y="0"/>
      <point x="540" y="4"/>
      <point x="540" y="17" type="curve" smooth="yes"/>
      <point x="540" y="26"/>
      <point x="534" y="35"/>
      <point x="524" y="35" type="curve" smooth="yes"/>
      <point x="507" y="35"/>
      <point x="489" y="33"/>
      <point x="472" y="33" type="curve" smooth="yes"/>
      <point x="432" y="33"/>
      <point x="439" y="62"/>
      <point x="439" y="93" type="curve" smooth="yes"/>
      <point x="439" y="206" type="line"/>
      <point x="530" y="205" type="line" smooth="yes"/>
      <point x="539" y="205"/>
      <point x="551" y="204"/>
      <point x="553" y="214" type="curve" smooth="yes"/>
      <point x="557" y="233"/>
      <point x="564" y="254"/>
      <point x="570" y="272" type="curve" smooth="yes"/>
      <point x="572" y="276"/>
      <point x="576" y="288"/>
    </contour>
  </outline>
</glyph>
<glyph name="five" format="2">
  <advance height="1000" width="590"/>
  <unicode hex="0035"/>
  <note>
cid00022
</note>
  <outline>
    <contour>
      <point x="545" y="257" type="curve" smooth="yes"/>
      <point x="545" y="315"/>
      <point x="520" y="379"/>
      <point x="478" y="419" type="curve" smooth="yes"/>
      <point x="439" y="455"/>
      <point x="386" y="469"/>
      <point x="335" y="469" type="curve" smooth="yes"/>
      <point x="265" y="469"/>
      <point x="217" y="452"/>
      <point x="160" y="413" type="curve"/>
      <point x="165" y="496"/>
      <point x="170" y="580"/>
      <point x="171" y="662" type="curve"/>
      <point x="347" y="662" type="line" smooth="yes"/>
      <point x="384" y="662"/>
      <point x="422" y="662"/>
      <point x="459" y="659" type="curve"/>
      <point x="463" y="658"/>
      <point x="467" y="658"/>
      <point x="471" y="658" type="curve" smooth="yes"/>
      <point x="482" y="658"/>
      <point x="494" y="660"/>
      <point x="501" y="671" type="curve" smooth="yes"/>
      <point x="507" y="680"/>
      <point x="534" y="735"/>
      <point x="534" y="744" type="curve" smooth="yes"/>
      <point x="534" y="752"/>
      <point x="523" y="754"/>
      <point x="517" y="754" type="curve" smooth="yes"/>
      <point x="508" y="754"/>
      <point x="496" y="746"/>
      <point x="487" y="741" type="curve" smooth="yes"/>
      <point x="462" y="726"/>
      <point x="401" y="724"/>
      <point x="373" y="724" type="curve" smooth="yes"/>
      <point x="226" y="724" type="line" smooth="yes"/>
      <point x="183" y="724"/>
      <point x="141" y="727"/>
      <point x="99" y="732" type="curve"/>
      <point x="104" y="697"/>
      <point x="105" y="662"/>
      <point x="105" y="627" type="curve" smooth="yes"/>
      <point x="105" y="545"/>
      <point x="105" y="413"/>
      <point x="84" y="338" type="curve" smooth="yes"/>
      <point x="83" y="334"/>
      <point x="81" y="330"/>
      <point x="81" y="326" type="curve" smooth="yes"/>
      <point x="81" y="312"/>
      <point x="137" y="297"/>
      <point x="149" y="297" type="curve" smooth="yes"/>
      <point x="155" y="297"/>
      <point x="161" y="299"/>
      <point x="164" y="304" type="curve" smooth="yes"/>
      <point x="168" y="310"/>
      <point x="168" y="316"/>
      <point x="168" y="323" type="curve"/>
      <point x="175" y="388"/>
      <point x="239" y="430"/>
      <point x="301" y="430" type="curve" smooth="yes"/>
      <point x="405" y="430"/>
      <point x="427" y="345"/>
      <point x="427" y="256" type="curve" smooth="yes"/>
      <point x="427" y="225"/>
      <point x="427" y="191"/>
      <point x="417" y="161" type="curve" smooth="yes"/>
      <point x="390" y="76"/>
      <point x="338" y="33"/>
      <point x="246" y="33" type="curve" smooth="yes"/>
      <point x="220" y="33"/>
      <point x="190" y="42"/>
      <point x="173" y="63" type="curve" smooth="yes"/>
      <point x="159" y="81"/>
      <point x="156" y="105"/>
      <point x="154" y="126" type="curve" smooth="yes"/>
      <point x="152" y="155"/>
      <point x="129" y="167"/>
      <point x="103" y="167" type="curve" smooth="yes"/>
      <point x="73" y="167"/>
      <point x="45" y="150"/>
      <point x="45" y="118" type="curve" smooth="yes"/>
      <point x="45" y="29"/>
      <point x="193" y="-2"/>
      <point x="260" y="-2" type="curve" smooth="yes"/>
      <point x="333" y="-2"/>
      <point x="416" y="25"/>
      <point x="470" y="73" type="curve" smooth="yes"/>
      <point x="518" y="116"/>
      <point x="545" y="195"/>
    </contour>
  </outline>
</glyph>
<glyph name="six" format="2">
  <advance height="1000" width="590"/>
  <unicode hex="0036"/>
  <note>
cid00023
</note>
  <outline>
    <contour>
      <point x="431" y="220" type="curve" smooth="yes"/>
      <point x="431" y="135"/>
      <point x="397" y="32"/>
      <point x="294" y="32" type="curve" smooth="yes"/>
      <point x="205" y="32"/>
      <point x="162" y="134"/>
      <point x="158" y="210" type="curve" smooth="yes"/>
      <point x="157" y="224"/>
      <point x="157" y="238"/>
      <point x="157" y="252" type="curve" smooth="yes"/>
      <point x="157" y="287"/>
      <point x="154" y="324"/>
      <point x="173" y="356" type="curve" smooth="yes"/>
      <point x="196" y="394"/>
      <point x="265" y="419"/>
      <point x="309" y="419" type="curve" smooth="yes"/>
      <point x="419" y="419"/>
      <point x="431" y="305"/>
    </contour>
    <contour>
      <point x="547" y="244" type="curve" smooth="yes"/>
      <point x="547" y="380"/>
      <point x="456" y="459"/>
      <point x="324" y="459" type="curve" smooth="yes"/>
      <point x="271" y="459"/>
      <point x="218" y="443"/>
      <point x="173" y="414" type="curve"/>
      <point x="183" y="500"/>
      <point x="248" y="604"/>
      <point x="309" y="664" type="curve" smooth="yes"/>
      <point x="356" y="711"/>
      <point x="411" y="736"/>
      <point x="471" y="762" type="curve" smooth="yes"/>
      <point x="476" y="764"/>
      <point x="490" y="768"/>
      <point x="490" y="775" type="curve" smooth="yes"/>
      <point x="490" y="784"/>
      <point x="485" y="787"/>
      <point x="477" y="787" type="curve" smooth="yes"/>
      <point x="475" y="787"/>
      <point x="473" y="787"/>
      <point x="470" y="786" type="curve" smooth="yes"/>
      <point x="283" y="736"/>
      <point x="145" y="631"/>
      <point x="77" y="447" type="curve" smooth="yes"/>
      <point x="61" y="404"/>
      <point x="47" y="348"/>
      <point x="47" y="301" type="curve" smooth="yes"/>
      <point x="47" y="265"/>
      <point x="49" y="228"/>
      <point x="57" y="192" type="curve" smooth="yes"/>
      <point x="81" y="89"/>
      <point x="170" y="0"/>
      <point x="279" y="0" type="curve" smooth="yes"/>
      <point x="432" y="0"/>
      <point x="547" y="83"/>
    </contour>
  </outline>
</glyph>
<glyph name="seven" format="2">
  <advance height="1000" width="590"/>
  <unicode hex="0037"/>
  <note>
cid00024
</note>
  <outline>
    <contour>
      <point x="543" y="697" type="curve"/>
      <point x="543" y="730" type="line"/>
      <point x="475" y="727"/>
      <point x="406" y="726"/>
      <point x="337" y="726" type="curve" smooth="yes"/>
      <point x="256" y="726" type="line" smooth="yes"/>
      <point x="202" y="726"/>
      <point x="148" y="727"/>
      <point x="95" y="727" type="curve" smooth="yes"/>
      <point x="91" y="727"/>
      <point x="77" y="727"/>
      <point x="73" y="726" type="curve" smooth="yes"/>
      <point x="65" y="723"/>
      <point x="64" y="719"/>
      <point x="63" y="711" type="curve" smooth="yes"/>
      <point x="58" y="666"/>
      <point x="54" y="608"/>
      <point x="47" y="558" type="curve"/>
      <point x="52" y="556"/>
      <point x="61" y="553"/>
      <point x="67" y="553" type="curve" smooth="yes"/>
      <point x="71" y="553"/>
      <point x="75" y="554"/>
      <point x="79" y="556" type="curve"/>
      <point x="92" y="595"/>
      <point x="105" y="652"/>
      <point x="162" y="664" type="curve" smooth="yes"/>
      <point x="195" y="671"/>
      <point x="232" y="671"/>
      <point x="266" y="673" type="curve" smooth="yes"/>
      <point x="332" y="677"/>
      <point x="398" y="679"/>
      <point x="464" y="680" type="curve"/>
      <point x="411" y="610"/>
      <point x="362" y="537"/>
      <point x="326" y="457" type="curve" smooth="yes"/>
      <point x="278" y="349"/>
      <point x="234" y="238"/>
      <point x="211" y="122" type="curve" smooth="yes"/>
      <point x="206" y="100"/>
      <point x="202" y="76"/>
      <point x="202" y="53" type="curve" smooth="yes"/>
      <point x="202" y="19"/>
      <point x="212" y="-11"/>
      <point x="251" y="-11" type="curve" smooth="yes"/>
      <point x="314" y="-11"/>
      <point x="320" y="18"/>
      <point x="325" y="74" type="curve" smooth="yes"/>
      <point x="335" y="204"/>
      <point x="359" y="334"/>
      <point x="406" y="456" type="curve" smooth="yes"/>
      <point x="436" y="534"/>
      <point x="485" y="636"/>
    </contour>
  </outline>
</glyph>
<glyph name="eight" format="2">
  <advance height="1000" width="590"/>
  <unicode hex="0038"/>
  <note>
cid00025
</note>
  <outline>
    <contour>
      <point x="441" y="195" type="curve" smooth="yes"/>
      <point x="441" y="104"/>
      <point x="381" y="30"/>
      <point x="287" y="30" type="curve" smooth="yes"/>
      <point x="180" y="30"/>
      <point x="131" y="89"/>
      <point x="131" y="195" type="curve" smooth="yes"/>
      <point x="131" y="277"/>
      <point x="174" y="339"/>
      <point x="243" y="380" type="curve"/>
      <point x="336" y="347"/>
      <point x="441" y="313"/>
    </contour>
    <contour>
      <point x="422" y="577" type="curve" smooth="yes"/>
      <point x="422" y="508"/>
      <point x="375" y="456"/>
      <point x="315" y="428" type="curve"/>
      <point x="240" y="456"/>
      <point x="165" y="491"/>
      <point x="165" y="582" type="curve" smooth="yes"/>
      <point x="165" y="659"/>
      <point x="210" y="707"/>
      <point x="287" y="707" type="curve" smooth="yes"/>
      <point x="372" y="707"/>
      <point x="422" y="664"/>
    </contour>
    <contour>
      <point x="552" y="229" type="curve" smooth="yes"/>
      <point x="552" y="323"/>
      <point x="453" y="388"/>
      <point x="373" y="412" type="curve"/>
      <point x="450" y="446"/>
      <point x="510" y="496"/>
      <point x="510" y="586" type="curve" smooth="yes"/>
      <point x="510" y="691"/>
      <point x="400" y="738"/>
      <point x="309" y="738" type="curve" smooth="yes"/>
      <point x="191" y="738"/>
      <point x="71" y="684"/>
      <point x="71" y="549" type="curve" smooth="yes"/>
      <point x="71" y="474"/>
      <point x="146" y="421"/>
      <point x="208" y="396" type="curve"/>
      <point x="173" y="378"/>
      <point x="135" y="357"/>
      <point x="104" y="330" type="curve" smooth="yes"/>
      <point x="64" y="296"/>
      <point x="38" y="244"/>
      <point x="38" y="191" type="curve" smooth="yes"/>
      <point x="38" y="56"/>
      <point x="158" y="-4"/>
      <point x="278" y="-4" type="curve" smooth="yes"/>
      <point x="422" y="-4"/>
      <point x="552" y="71"/>
    </contour>
  </outline>
</glyph>
<glyph name="nine" format="2">
  <advance height="1000" width="590"/>
  <unicode hex="0039"/>
  <note>
cid00026
</note>
  <outline>
    <contour>
      <point x="432" y="486" type="curve" smooth="yes"/>
      <point x="432" y="451"/>
      <point x="435" y="414"/>
      <point x="416" y="383" type="curve" smooth="yes"/>
      <point x="393" y="344"/>
      <point x="324" y="319"/>
      <point x="280" y="319" type="curve" smooth="yes"/>
      <point x="170" y="319"/>
      <point x="158" y="433"/>
      <point x="158" y="518" type="curve" smooth="yes"/>
      <point x="158" y="604"/>
      <point x="192" y="706"/>
      <point x="295" y="706" type="curve" smooth="yes"/>
      <point x="384" y="706"/>
      <point x="427" y="604"/>
      <point x="431" y="528" type="curve" smooth="yes"/>
      <point x="432" y="514"/>
      <point x="432" y="500"/>
    </contour>
    <contour>
      <point x="542" y="437" type="curve" smooth="yes"/>
      <point x="542" y="473"/>
      <point x="540" y="510"/>
      <point x="532" y="546" type="curve" smooth="yes"/>
      <point x="508" y="649"/>
      <point x="419" y="738"/>
      <point x="310" y="738" type="curve" smooth="yes"/>
      <point x="157" y="738"/>
      <point x="44" y="655"/>
      <point x="44" y="494" type="curve" smooth="yes"/>
      <point x="44" y="360"/>
      <point x="133" y="279"/>
      <point x="265" y="279" type="curve" smooth="yes"/>
      <point x="318" y="279"/>
      <point x="371" y="295"/>
      <point x="416" y="324" type="curve"/>
      <point x="406" y="238"/>
      <point x="341" y="137"/>
      <point x="280" y="77" type="curve" smooth="yes"/>
      <point x="258" y="54"/>
      <point x="232" y="36"/>
      <point x="204" y="20" type="curve" smooth="yes"/>
      <point x="176" y="5"/>
      <point x="147" y="-8"/>
      <point x="118" y="-20" type="curve" smooth="yes"/>
      <point x="114" y="-22"/>
      <point x="109" y="-24"/>
      <point x="105" y="-26" type="curve" smooth="yes"/>
      <point x="102" y="-28"/>
      <point x="99" y="-30"/>
      <point x="99" y="-34" type="curve" smooth="yes"/>
      <point x="99" y="-43"/>
      <point x="104" y="-46"/>
      <point x="112" y="-46" type="curve" smooth="yes"/>
      <point x="114" y="-46"/>
      <point x="116" y="-45"/>
      <point x="119" y="-45" type="curve"/>
      <point x="306" y="5"/>
      <point x="444" y="110"/>
      <point x="512" y="294" type="curve" smooth="yes"/>
      <point x="528" y="337"/>
      <point x="542" y="390"/>
    </contour>
  </outline>
</glyph>
<glyph name="colon" format="2">
  <advance height="1000" width="390"/>
  <unicode hex="003A"/>
  <note>
cid00027
</note>
  <outline>
    <contour>
      <point x="266" y="77" type="curve" smooth="yes"/>
      <point x="266" y="115"/>
      <point x="232" y="144"/>
      <point x="195" y="144" type="curve" smooth="yes"/>
      <point x="158" y="144"/>
      <point x="124" y="115"/>
      <point x="124" y="77" type="curve" smooth="yes"/>
      <point x="124" y="38"/>
      <point x="157" y="9"/>
      <point x="195" y="9" type="curve" smooth="yes"/>
      <point x="233" y="9"/>
      <point x="266" y="38"/>
    </contour>
    <contour>
      <point x="266" y="433" type="curve" smooth="yes"/>
      <point x="266" y="471"/>
      <point x="232" y="500"/>
      <point x="195" y="500" type="curve" smooth="yes"/>
      <point x="158" y="500"/>
      <point x="124" y="471"/>
      <point x="124" y="433" type="curve" smooth="yes"/>
      <point x="124" y="394"/>
      <point x="157" y="365"/>
      <point x="195" y="365" type="curve" smooth="yes"/>
      <point x="233" y="365"/>
      <point x="266" y="395"/>
    </contour>
  </outline>
</glyph>
<glyph name="semicolon" format="2">
  <advance height="1000" width="390"/>
  <unicode hex="003B"/>
  <note>
cid00028
</note>
  <outline>
    <contour>
      <point x="268" y="52" type="curve" smooth="yes"/>
      <point x="268" y="102"/>
      <point x="249" y="142"/>
      <point x="194" y="142" type="curve" smooth="yes"/>
      <point x="150" y="142"/>
      <point x="122" y="113"/>
      <point x="122" y="69" type="curve" smooth="yes"/>
      <point x="122" y="38"/>
      <point x="150" y="8"/>
      <point x="181" y="8" type="curve" smooth="yes"/>
      <point x="190" y="8"/>
      <point x="201" y="10"/>
      <point x="208" y="17" type="curve"/>
      <point x="208" y="-28"/>
      <point x="186" y="-90"/>
      <point x="163" y="-129" type="curve"/>
      <point x="185" y="-136" type="line"/>
      <point x="226" y="-95"/>
      <point x="268" y="-6"/>
    </contour>
    <contour>
      <point x="266" y="433" type="curve" smooth="yes"/>
      <point x="266" y="471"/>
      <point x="232" y="500"/>
      <point x="195" y="500" type="curve" smooth="yes"/>
      <point x="158" y="500"/>
      <point x="124" y="471"/>
      <point x="124" y="433" type="curve" smooth="yes"/>
      <point x="124" y="395"/>
      <point x="157" y="365"/>
      <point x="195" y="365" type="curve" smooth="yes"/>
      <point x="233" y="365"/>
      <point x="266" y="395"/>
    </contour>
  </outline>
</glyph>
<glyph name="less" format="2">
  <advance height="1000" width="780"/>
  <unicode hex="003C"/>
  <note>
cid00029
</note>
  <outline>
    <contour>
      <point x="680" y="53" type="line"/>
      <point x="680" y="117" type="line"/>
      <point x="176" y="359" type="line"/>
      <point x="680" y="599" type="line"/>
      <point x="680" y="662" type="line"/>
      <point x="84" y="359" type="line"/>
    </contour>
  </outline>
</glyph>
<glyph name="equal" format="2">
  <advance height="1000" width="750"/>
  <unicode hex="003D"/>
  <note>
cid00030
</note>
  <outline>
    <contour>
      <point x="675" y="260" type="line"/>
      <point x="675" y="309" type="line"/>
      <point x="76" y="309" type="line"/>
      <point x="76" y="260" type="line"/>
    </contour>
    <contour>
      <point x="675" y="417" type="line"/>
      <point x="675" y="466" type="line"/>
      <point x="76" y="466" type="line"/>
      <point x="76" y="417" type="line"/>
    </contour>
  </outline>
</glyph>
<glyph name="greater" format="2">
  <advance height="1000" width="780"/>
  <unicode hex="003E"/>
  <note>
cid00031
</note>
  <outline>
    <contour>
      <point x="680" y="359" type="line"/>
      <point x="84" y="662" type="line"/>
      <point x="84" y="599" type="line"/>
      <point x="588" y="359" type="line"/>
      <point x="84" y="117" type="line"/>
      <point x="84" y="53" type="line"/>
    </contour>
  </outline>
</glyph>
<glyph name="question" format="2">
  <advance height="1000" width="560"/>
  <unicode hex="003F"/>
  <note>
cid00032
</note>
  <outline>
    <contour>
      <point x="357" y="70" type="curve" smooth="yes"/>
      <point x="357" y="113"/>
      <point x="321" y="143"/>
      <point x="279" y="143" type="curve" smooth="yes"/>
      <point x="238" y="143"/>
      <point x="201" y="113"/>
      <point x="201" y="70" type="curve" smooth="yes"/>
      <point x="201" y="27"/>
      <point x="238" y="-4"/>
      <point x="279" y="-4" type="curve" smooth="yes"/>
      <point x="321" y="-4"/>
      <point x="357" y="27"/>
    </contour>
    <contour>
      <point x="501" y="585" type="curve" smooth="yes"/>
      <point x="501" y="704"/>
      <point x="391" y="753"/>
      <point x="287" y="753" type="curve" smooth="yes"/>
      <point x="201" y="753"/>
      <point x="122" y="717"/>
      <point x="80" y="640" type="curve" smooth="yes"/>
      <point x="68" y="619"/>
      <point x="59" y="594"/>
      <point x="59" y="570" type="curve" smooth="yes"/>
      <point x="59" y="538"/>
      <point x="69" y="512"/>
      <point x="105" y="512" type="curve" smooth="yes"/>
      <point x="138" y="512"/>
      <point x="165" y="529"/>
      <point x="165" y="565" type="curve" smooth="yes"/>
      <point x="165" y="583"/>
      <point x="155" y="600"/>
      <point x="155" y="619" type="curve" smooth="yes"/>
      <point x="155" y="695"/>
      <point x="215" y="724"/>
      <point x="283" y="724" type="curve" smooth="yes"/>
      <point x="359" y="724"/>
      <point x="391" y="679"/>
      <point x="391" y="607" type="curve" smooth="yes"/>
      <point x="391" y="539"/>
      <point x="367" y="493"/>
      <point x="320" y="447" type="curve" smooth="yes"/>
      <point x="266" y="393"/>
      <point x="247" y="357"/>
      <point x="247" y="279" type="curve" smooth="yes"/>
      <point x="247" y="255"/>
      <point x="248" y="231"/>
      <point x="248" y="207" type="curve"/>
      <point x="296" y="207" type="line"/>
      <point x="296" y="226"/>
      <point x="296" y="246"/>
      <point x="296" y="265" type="curve" smooth="yes"/>
      <point x="296" y="314"/>
      <point x="308" y="350"/>
      <point x="343" y="385" type="curve" smooth="yes"/>
      <point x="369" y="412"/>
      <point x="404" y="430"/>
      <point x="434" y="454" type="curve" smooth="yes"/>
      <point x="471" y="484"/>
      <point x="501" y="536"/>
    </contour>
  </outline>
</glyph>
<glyph name="at" format="2">
  <advance height="1000" width="900"/>
  <unicode hex="0040"/>
  <note>
cid00033
</note>
  <outline>
    <contour>
      <point x="556" y="449" type="curve" smooth="yes"/>
      <point x="556" y="406"/>
      <point x="521" y="262"/>
      <point x="499" y="226" type="curve" smooth="yes"/>
      <point x="486" y="205"/>
      <point x="471" y="191"/>
      <point x="444" y="191" type="curve" smooth="yes"/>
      <point x="381" y="191"/>
      <point x="372" y="250"/>
      <point x="372" y="299" type="curve" smooth="yes"/>
      <point x="372" y="374"/>
      <point x="405" y="507"/>
      <point x="500" y="507" type="curve" smooth="yes"/>
      <point x="536" y="507"/>
      <point x="556" y="484"/>
    </contour>
    <contour>
      <point x="830" y="390" type="curve" smooth="yes"/>
      <point x="830" y="607"/>
      <point x="704" y="722"/>
      <point x="491" y="722" type="curve" smooth="yes"/>
      <point x="260" y="722"/>
      <point x="70" y="540"/>
      <point x="70" y="307" type="curve" smooth="yes"/>
      <point x="70" y="263"/>
      <point x="81" y="214"/>
      <point x="97" y="173" type="curve" smooth="yes"/>
      <point x="161" y="16"/>
      <point x="299" y="-41"/>
      <point x="460" y="-41" type="curve" smooth="yes"/>
      <point x="544" y="-41"/>
      <point x="659" y="-13"/>
      <point x="727" y="38" type="curve" smooth="yes"/>
      <point x="737" y="46"/>
      <point x="755" y="59"/>
      <point x="755" y="72" type="curve" smooth="yes"/>
      <point x="755" y="78"/>
      <point x="741" y="78"/>
      <point x="738" y="78" type="curve"/>
      <point x="644" y="20"/>
      <point x="571" y="2"/>
      <point x="461" y="2" type="curve" smooth="yes"/>
      <point x="283" y="2"/>
      <point x="168" y="141"/>
      <point x="168" y="313" type="curve" smooth="yes"/>
      <point x="168" y="505"/>
      <point x="280" y="687"/>
      <point x="489" y="687" type="curve" smooth="yes"/>
      <point x="586" y="687"/>
      <point x="687" y="649"/>
      <point x="739" y="563" type="curve" smooth="yes"/>
      <point x="766" y="520"/>
      <point x="776" y="466"/>
      <point x="776" y="416" type="curve" smooth="yes"/>
      <point x="776" y="329"/>
      <point x="743" y="179"/>
      <point x="633" y="179" type="curve" smooth="yes"/>
      <point x="608" y="179"/>
      <point x="593" y="215"/>
      <point x="593" y="235" type="curve" smooth="yes"/>
      <point x="593" y="288"/>
      <point x="651" y="467"/>
      <point x="671" y="525" type="curve"/>
      <point x="649" y="530"/>
      <point x="627" y="534"/>
      <point x="605" y="538" type="curve"/>
      <point x="597" y="524"/>
      <point x="589" y="511"/>
      <point x="582" y="497" type="curve"/>
      <point x="560" y="525"/>
      <point x="526" y="545"/>
      <point x="491" y="545" type="curve" smooth="yes"/>
      <point x="434" y="545"/>
      <point x="391" y="521"/>
      <point x="356" y="478" type="curve" smooth="yes"/>
      <point x="320" y="434"/>
      <point x="289" y="358"/>
      <point x="289" y="300" type="curve" smooth="yes"/>
      <point x="289" y="263"/>
      <point x="294" y="225"/>
      <point x="313" y="193" type="curve" smooth="yes"/>
      <point x="332" y="161"/>
      <point x="365" y="134"/>
      <point x="403" y="134" type="curve" smooth="yes"/>
      <point x="460" y="134"/>
      <point x="497" y="156"/>
      <point x="528" y="203" type="curve"/>
      <point x="542" y="158"/>
      <point x="573" y="133"/>
      <point x="621" y="133" type="curve" smooth="yes"/>
      <point x="689" y="133"/>
      <point x="742" y="161"/>
      <point x="778" y="218" type="curve" smooth="yes"/>
      <point x="811" y="269"/>
      <point x="830" y="330"/>
    </contour>
  </outline>
</glyph>
<glyph name="B" format="2">
  <advance height="1000" width="694"/>
  <unicode hex="0042"/>
  <note>
cid00035
</note>
  <outline>
    <contour>
      <point x="536" y="207" type="curve" smooth="yes"/>
      <point x="536" y="92"/>
      <point x="465" y="37"/>
      <point x="356" y="31" type="curve" smooth="yes"/>
      <point x="331" y="29"/>
      <point x="306" y="29"/>
      <point x="281" y="29" type="curve" smooth="yes"/>
      <point x="257" y="29"/>
      <point x="231" y="34"/>
      <point x="231" y="64" type="curve" smooth="yes"/>
      <point x="231" y="372" type="line"/>
      <point x="267" y="372"/>
      <point x="302" y="375"/>
      <point x="338" y="374" type="curve" smooth="yes"/>
      <point x="392" y="374" type="line" smooth="yes"/>
      <point x="502" y="374"/>
      <point x="536" y="308"/>
    </contour>
    <contour>
      <point x="485" y="560" type="curve" smooth="yes"/>
      <point x="485" y="517"/>
      <point x="466" y="470"/>
      <point x="435" y="441" type="curve" smooth="yes"/>
      <point x="398" y="405"/>
      <point x="325" y="404"/>
      <point x="276" y="404" type="curve" smooth="yes"/>
      <point x="261" y="404"/>
      <point x="246" y="404"/>
      <point x="231" y="404" type="curve"/>
      <point x="231" y="699" type="line"/>
      <point x="265" y="701"/>
      <point x="299" y="702"/>
      <point x="333" y="702" type="curve" smooth="yes"/>
      <point x="429" y="702"/>
      <point x="485" y="660"/>
    </contour>
    <contour>
      <point x="655" y="223" type="curve" smooth="yes"/>
      <point x="655" y="334"/>
      <point x="555" y="385"/>
      <point x="460" y="402" type="curve"/>
      <point x="459" y="404" type="line"/>
      <point x="529" y="432"/>
      <point x="604" y="489"/>
      <point x="604" y="572" type="curve" smooth="yes"/>
      <point x="604" y="704"/>
      <point x="493" y="739"/>
      <point x="381" y="739" type="curve" smooth="yes"/>
      <point x="371" y="739"/>
      <point x="360" y="738"/>
      <point x="350" y="737" type="curve" smooth="yes"/>
      <point x="273" y="731"/>
      <point x="196" y="726"/>
      <point x="119" y="726" type="curve" smooth="yes"/>
      <point x="90" y="726"/>
      <point x="61" y="730"/>
      <point x="31" y="730" type="curve" smooth="yes"/>
      <point x="23" y="730"/>
      <point x="17" y="722"/>
      <point x="17" y="714" type="curve" smooth="yes"/>
      <point x="17" y="706"/>
      <point x="23" y="694"/>
      <point x="33" y="694" type="curve" smooth="yes"/>
      <point x="61" y="694"/>
      <point x="105" y="702"/>
      <point x="117" y="669" type="curve" smooth="yes"/>
      <point x="123" y="650"/>
      <point x="121" y="450"/>
      <point x="121" y="415" type="curve" smooth="yes"/>
      <point x="121" y="163" type="line" smooth="yes"/>
      <point x="121" y="136"/>
      <point x="122" y="109"/>
      <point x="120" y="82" type="curve" smooth="yes"/>
      <point x="119" y="59"/>
      <point x="114" y="40"/>
      <point x="89" y="36" type="curve" smooth="yes"/>
      <point x="71" y="33"/>
      <point x="51" y="33"/>
      <point x="33" y="33" type="curve" smooth="yes"/>
      <point x="25" y="33"/>
      <point x="17" y="29"/>
      <point x="17" y="20" type="curve" smooth="yes"/>
      <point x="17" y="7"/>
      <point x="18" y="-2"/>
      <point x="34" y="-2" type="curve" smooth="yes"/>
      <point x="70" y="-2"/>
      <point x="105" y="5"/>
      <point x="141" y="5" type="curve" smooth="yes"/>
      <point x="204" y="5"/>
      <point x="267" y="3"/>
      <point x="330" y="0" type="curve" smooth="yes"/>
      <point x="340" y="0"/>
      <point x="349" y="0"/>
      <point x="359" y="0" type="curve" smooth="yes"/>
      <point x="411" y="0"/>
      <point x="472" y="4"/>
      <point x="520" y="23" type="curve" smooth="yes"/>
      <point x="609" y="58"/>
      <point x="655" y="128"/>
    </contour>
  </outline>
</glyph>
<glyph name="C" format="2">
  <advance height="1000" width="725"/>
  <unicode hex="0043"/>
  <note>
cid00036
</note>
  <outline>
    <contour>
      <point x="711" y="190" type="curve" smooth="yes"/>
      <point x="711" y="199"/>
      <point x="701" y="204"/>
      <point x="693" y="204" type="curve" smooth="yes"/>
      <point x="687" y="204"/>
      <point x="681" y="203"/>
      <point x="676" y="198" type="curve" smooth="yes"/>
      <point x="672" y="194"/>
      <point x="670" y="189"/>
      <point x="667" y="184" type="curve" smooth="yes"/>
      <point x="661" y="173"/>
      <point x="653" y="163"/>
      <point x="645" y="154" type="curve" smooth="yes"/>
      <point x="617" y="120"/>
      <point x="583" y="91"/>
      <point x="543" y="75" type="curve" smooth="yes"/>
      <point x="509" y="61"/>
      <point x="457" y="48"/>
      <point x="420" y="48" type="curve" smooth="yes"/>
      <point x="241" y="48"/>
      <point x="173" y="210"/>
      <point x="173" y="366" type="curve" smooth="yes"/>
      <point x="173" y="475"/>
      <point x="203" y="596"/>
      <point x="294" y="664" type="curve" smooth="yes"/>
      <point x="325" y="687"/>
      <point x="367" y="704"/>
      <point x="405" y="704" type="curve" smooth="yes"/>
      <point x="437" y="704"/>
      <point x="501" y="678"/>
      <point x="526" y="658" type="curve" smooth="yes"/>
      <point x="560" y="629"/>
      <point x="587" y="574"/>
      <point x="598" y="531" type="curve" smooth="yes"/>
      <point x="601" y="517"/>
      <point x="603" y="501"/>
      <point x="609" y="488" type="curve" smooth="yes"/>
      <point x="614" y="477"/>
      <point x="618" y="476"/>
      <point x="630" y="476" type="curve" smooth="yes"/>
      <point x="657" y="476"/>
      <point x="668" y="487"/>
      <point x="668" y="513" type="curve" smooth="yes"/>
      <point x="668" y="541"/>
      <point x="659" y="568"/>
      <point x="655" y="595" type="curve" smooth="yes"/>
      <point x="650" y="624"/>
      <point x="647" y="654"/>
      <point x="647" y="684" type="curve"/>
      <point x="616" y="686"/>
      <point x="586" y="690"/>
      <point x="557" y="700" type="curve" smooth="yes"/>
      <point x="503" y="718"/>
      <point x="462" y="738"/>
      <point x="403" y="738" type="curve" smooth="yes"/>
      <point x="182" y="738"/>
      <point x="52" y="574"/>
      <point x="52" y="362" type="curve" smooth="yes"/>
      <point x="52" y="148"/>
      <point x="186" y="4"/>
      <point x="403" y="4" type="curve" smooth="yes"/>
      <point x="476" y="4"/>
      <point x="546" y="19"/>
      <point x="607" y="59" type="curve" smooth="yes"/>
      <point x="646" y="84"/>
      <point x="686" y="125"/>
      <point x="705" y="168" type="curve" smooth="yes"/>
      <point x="709" y="175"/>
      <point x="711" y="182"/>
    </contour>
  </outline>
</glyph>
<glyph name="D" format="2">
  <advance height="1000" width="821"/>
  <unicode hex="0044"/>
  <note>
cid00037
</note>
  <outline>
    <contour>
      <point x="653" y="378" type="curve" smooth="yes"/>
      <point x="653" y="268"/>
      <point x="620" y="159"/>
      <point x="528" y="91" type="curve" smooth="yes"/>
      <point x="463" y="42"/>
      <point x="375" y="39"/>
      <point x="297" y="39" type="curve" smooth="yes"/>
      <point x="265" y="39"/>
      <point x="238" y="47"/>
      <point x="238" y="85" type="curve" smooth="yes"/>
      <point x="238" y="696" type="line"/>
      <point x="287" y="698"/>
      <point x="335" y="699"/>
      <point x="384" y="699" type="curve" smooth="yes"/>
      <point x="400" y="699"/>
      <point x="416" y="699"/>
      <point x="431" y="697" type="curve" smooth="yes"/>
      <point x="482" y="692"/>
      <point x="535" y="663"/>
      <point x="571" y="627" type="curve" smooth="yes"/>
      <point x="630" y="568"/>
      <point x="653" y="459"/>
    </contour>
    <contour>
      <point x="776" y="392" type="curve" smooth="yes"/>
      <point x="776" y="607"/>
      <point x="643" y="737"/>
      <point x="428" y="737" type="curve" smooth="yes"/>
      <point x="330" y="737"/>
      <point x="232" y="727"/>
      <point x="134" y="727" type="curve" smooth="yes"/>
      <point x="103" y="727"/>
      <point x="73" y="731"/>
      <point x="42" y="731" type="curve" smooth="yes"/>
      <point x="30" y="731"/>
      <point x="21" y="726"/>
      <point x="21" y="713" type="curve" smooth="yes"/>
      <point x="21" y="700"/>
      <point x="33" y="695"/>
      <point x="44" y="695" type="curve" smooth="yes"/>
      <point x="60" y="695"/>
      <point x="81" y="697"/>
      <point x="96" y="694" type="curve" smooth="yes"/>
      <point x="117" y="688"/>
      <point x="122" y="672"/>
      <point x="124" y="653" type="curve" smooth="yes"/>
      <point x="126" y="628"/>
      <point x="124" y="602"/>
      <point x="124" y="577" type="curve" smooth="yes"/>
      <point x="124" y="491"/>
      <point x="125" y="405"/>
      <point x="125" y="319" type="curve" smooth="yes"/>
      <point x="125" y="246"/>
      <point x="124" y="172"/>
      <point x="124" y="99" type="curve" smooth="yes"/>
      <point x="124" y="76"/>
      <point x="119" y="50"/>
      <point x="96" y="39" type="curve" smooth="yes"/>
      <point x="85" y="33"/>
      <point x="44" y="31"/>
      <point x="44" y="18" type="curve" smooth="yes"/>
      <point x="44" y="10"/>
      <point x="50" y="1"/>
      <point x="59" y="1" type="curve" smooth="yes"/>
      <point x="66" y="1"/>
      <point x="73" y="2"/>
      <point x="80" y="2" type="curve" smooth="yes"/>
      <point x="119" y="5"/>
      <point x="158" y="6"/>
      <point x="197" y="6" type="curve" smooth="yes"/>
      <point x="245" y="6"/>
      <point x="293" y="1"/>
      <point x="340" y="1" type="curve" smooth="yes"/>
      <point x="423" y="1"/>
      <point x="535" y="19"/>
      <point x="606" y="63" type="curve" smooth="yes"/>
      <point x="721" y="133"/>
      <point x="776" y="260"/>
    </contour>
  </outline>
</glyph>
<glyph name="E" format="2">
  <advance height="1000" width="674"/>
  <unicode hex="0045"/>
  <note>
cid00038
</note>
  <outline>
    <contour>
      <point x="649" y="174" type="curve" smooth="yes"/>
      <point x="649" y="185"/>
      <point x="639" y="188"/>
      <point x="630" y="188" type="curve" smooth="yes"/>
      <point x="621" y="188"/>
      <point x="614" y="186"/>
      <point x="610" y="177" type="curve" smooth="yes"/>
      <point x="594" y="143"/>
      <point x="582" y="106"/>
      <point x="554" y="80" type="curve" smooth="yes"/>
      <point x="513" y="42"/>
      <point x="430" y="37"/>
      <point x="377" y="37" type="curve" smooth="yes"/>
      <point x="290" y="37" type="line" smooth="yes"/>
      <point x="256" y="37"/>
      <point x="240" y="40"/>
      <point x="240" y="79" type="curve" smooth="yes"/>
      <point x="240" y="318" type="line" smooth="yes"/>
      <point x="240" y="358"/>
      <point x="288" y="360"/>
      <point x="317" y="360" type="curve" smooth="yes"/>
      <point x="350" y="360"/>
      <point x="382" y="360"/>
      <point x="415" y="360" type="curve" smooth="yes"/>
      <point x="439" y="359"/>
      <point x="463" y="358"/>
      <point x="487" y="355" type="curve" smooth="yes"/>
      <point x="498" y="354"/>
      <point x="509" y="353"/>
      <point x="520" y="353" type="curve" smooth="yes"/>
      <point x="529" y="353"/>
      <point x="536" y="357"/>
      <point x="541" y="366" type="curve" smooth="yes"/>
      <point x="545" y="374"/>
      <point x="557" y="406"/>
      <point x="557" y="415" type="curve" smooth="yes"/>
      <point x="557" y="420"/>
      <point x="547" y="423"/>
      <point x="543" y="423" type="curve" smooth="yes"/>
      <point x="542" y="423"/>
      <point x="541" y="423"/>
      <point x="540" y="423" type="curve" smooth="yes"/>
      <point x="489" y="413"/>
      <point x="441" y="406"/>
      <point x="389" y="403" type="curve" smooth="yes"/>
      <point x="340" y="400"/>
      <point x="290" y="400"/>
      <point x="240" y="399" type="curve"/>
      <point x="240" y="693" type="line"/>
      <point x="442" y="693" type="line" smooth="yes"/>
      <point x="523" y="693"/>
      <point x="559" y="666"/>
      <point x="582" y="589" type="curve" smooth="yes"/>
      <point x="587" y="575"/>
      <point x="592" y="572"/>
      <point x="606" y="572" type="curve" smooth="yes"/>
      <point x="620" y="572"/>
      <point x="634" y="577"/>
      <point x="634" y="593" type="curve" smooth="yes"/>
      <point x="634" y="600"/>
      <point x="632" y="608"/>
      <point x="630" y="615" type="curve"/>
      <point x="624" y="655"/>
      <point x="615" y="694"/>
      <point x="610" y="733" type="curve"/>
      <point x="578" y="731"/>
      <point x="546" y="730"/>
      <point x="514" y="730" type="curve" smooth="yes"/>
      <point x="379" y="730"/>
      <point x="245" y="727"/>
      <point x="111" y="727" type="curve" smooth="yes"/>
      <point x="88" y="727"/>
      <point x="66" y="729"/>
      <point x="43" y="729" type="curve" smooth="yes"/>
      <point x="28" y="729"/>
      <point x="22" y="721"/>
      <point x="22" y="707" type="curve" smooth="yes"/>
      <point x="22" y="692"/>
      <point x="35" y="688"/>
      <point x="48" y="688" type="curve" smooth="yes"/>
      <point x="59" y="688"/>
      <point x="70" y="689"/>
      <point x="81" y="689" type="curve" smooth="yes"/>
      <point x="106" y="689"/>
      <point x="126" y="683"/>
      <point x="126" y="653" type="curve" smooth="yes"/>
      <point x="127" y="84" type="line" smooth="yes"/>
      <point x="127" y="1"/>
      <point x="30" y="58"/>
      <point x="30" y="13" type="curve" smooth="yes"/>
      <point x="30" y="4"/>
      <point x="42" y="-1"/>
      <point x="50" y="-1" type="curve" smooth="yes"/>
      <point x="93" y="-1"/>
      <point x="136" y="4"/>
      <point x="180" y="4" type="curve" smooth="yes"/>
      <point x="322" y="4"/>
      <point x="465" y="1"/>
      <point x="608" y="1" type="curve" smooth="yes"/>
      <point x="618" y="1"/>
      <point x="628" y="10"/>
      <point x="630" y="20" type="curve" smooth="yes"/>
      <point x="636" y="46"/>
      <point x="636" y="74"/>
      <point x="639" y="101" type="curve" smooth="yes"/>
      <point x="643" y="125"/>
      <point x="649" y="150"/>
    </contour>
  </outline>
</glyph>
<glyph name="F" format="2">
  <advance height="1000" width="610"/>
  <unicode hex="0046"/>
  <note>
cid00039
</note>
  <outline>
    <contour>
      <point x="603" y="595" type="curve" smooth="yes"/>
      <point x="603" y="634"/>
      <point x="588" y="695"/>
      <point x="580" y="735" type="curve"/>
      <point x="548" y="733"/>
      <point x="516" y="732"/>
      <point x="483" y="732" type="curve" smooth="yes"/>
      <point x="417" y="732"/>
      <point x="350" y="729"/>
      <point x="283" y="729" type="curve" smooth="yes"/>
      <point x="224" y="729"/>
      <point x="165" y="729"/>
      <point x="106" y="729" type="curve" smooth="yes"/>
      <point x="82" y="729"/>
      <point x="57" y="731"/>
      <point x="33" y="731" type="curve" smooth="yes"/>
      <point x="18" y="731"/>
      <point x="12" y="723"/>
      <point x="12" y="709" type="curve" smooth="yes"/>
      <point x="12" y="694"/>
      <point x="25" y="690"/>
      <point x="38" y="690" type="curve" smooth="yes"/>
      <point x="66" y="690"/>
      <point x="122" y="699"/>
      <point x="122" y="655" type="curve" smooth="yes"/>
      <point x="122" y="115" type="line" smooth="yes"/>
      <point x="122" y="41"/>
      <point x="101" y="37"/>
      <point x="36" y="28" type="curve" smooth="yes"/>
      <point x="24" y="26"/>
      <point x="21" y="21"/>
      <point x="21" y="9" type="curve" smooth="yes"/>
      <point x="21" y="0"/>
      <point x="31" y="-5"/>
      <point x="40" y="-5" type="curve" smooth="yes"/>
      <point x="85" y="-5"/>
      <point x="130" y="0"/>
      <point x="176" y="0" type="curve" smooth="yes"/>
      <point x="203" y="0"/>
      <point x="229" y="0"/>
      <point x="256" y="0" type="curve" smooth="yes"/>
      <point x="279" y="0"/>
      <point x="302" y="-3"/>
      <point x="325" y="-3" type="curve" smooth="yes"/>
      <point x="336" y="-3"/>
      <point x="348" y="1"/>
      <point x="348" y="14" type="curve" smooth="yes"/>
      <point x="348" y="27"/>
      <point x="339" y="32"/>
      <point x="327" y="32" type="curve" smooth="yes"/>
      <point x="304" y="32"/>
      <point x="273" y="32"/>
      <point x="255" y="48" type="curve" smooth="yes"/>
      <point x="244" y="57"/>
      <point x="235" y="71"/>
      <point x="235" y="85" type="curve" smooth="yes"/>
      <point x="235" y="318" type="line" smooth="yes"/>
      <point x="235" y="358"/>
      <point x="283" y="360"/>
      <point x="312" y="360" type="curve" smooth="yes"/>
      <point x="367" y="360"/>
      <point x="421" y="361"/>
      <point x="476" y="355" type="curve" smooth="yes"/>
      <point x="487" y="354"/>
      <point x="497" y="353"/>
      <point x="508" y="353" type="curve" smooth="yes"/>
      <point x="518" y="353"/>
      <point x="525" y="357"/>
      <point x="530" y="366" type="curve" smooth="yes"/>
      <point x="534" y="374"/>
      <point x="546" y="406"/>
      <point x="546" y="415" type="curve" smooth="yes"/>
      <point x="546" y="420"/>
      <point x="536" y="423"/>
      <point x="532" y="423" type="curve" smooth="yes"/>
      <point x="531" y="423"/>
      <point x="530" y="423"/>
      <point x="529" y="423" type="curve" smooth="yes"/>
      <point x="490" y="416"/>
      <point x="452" y="409"/>
      <point x="412" y="405" type="curve" smooth="yes"/>
      <point x="353" y="400"/>
      <point x="294" y="400"/>
      <point x="235" y="399" type="curve"/>
      <point x="235" y="695" type="line"/>
      <point x="412" y="695" type="line" smooth="yes"/>
      <point x="485" y="695"/>
      <point x="530" y="660"/>
      <point x="551" y="591" type="curve" smooth="yes"/>
      <point x="556" y="577"/>
      <point x="560" y="573"/>
      <point x="576" y="573" type="curve" smooth="yes"/>
      <point x="590" y="573"/>
      <point x="603" y="579"/>
    </contour>
  </outline>
</glyph>
<glyph name="G" format="2">
  <advance height="1000" width="781"/>
  <unicode hex="0047"/>
  <note>
cid00040
</note>
  <outline>
    <contour>
      <point x="769" y="308" type="curve" smooth="yes"/>
      <point x="769" y="316"/>
      <point x="759" y="326"/>
      <point x="751" y="326" type="curve" smooth="yes"/>
      <point x="729" y="326"/>
      <point x="707" y="324"/>
      <point x="686" y="323" type="curve" smooth="yes"/>
      <point x="642" y="322"/>
      <point x="598" y="322"/>
      <point x="554" y="322" type="curve" smooth="yes"/>
      <point x="531" y="322"/>
      <point x="508" y="323"/>
      <point x="485" y="323" type="curve" smooth="yes"/>
      <point x="474" y="323"/>
      <point x="467" y="315"/>
      <point x="467" y="304" type="curve" smooth="yes"/>
      <point x="467" y="294"/>
      <point x="475" y="285"/>
      <point x="486" y="285" type="curve" smooth="yes"/>
      <point x="506" y="285"/>
      <point x="526" y="288"/>
      <point x="547" y="288" type="curve" smooth="yes"/>
      <point x="561" y="288"/>
      <point x="582" y="284"/>
      <point x="582" y="265" type="curve" smooth="yes"/>
      <point x="582" y="134" type="line" smooth="yes"/>
      <point x="582" y="67"/>
      <point x="470" y="48"/>
      <point x="419" y="48" type="curve" smooth="yes"/>
      <point x="243" y="48"/>
      <point x="175" y="212"/>
      <point x="175" y="364" type="curve" smooth="yes"/>
      <point x="175" y="510"/>
      <point x="239" y="707"/>
      <point x="414" y="707" type="curve" smooth="yes"/>
      <point x="458" y="707"/>
      <point x="520" y="687"/>
      <point x="554" y="660" type="curve" smooth="yes"/>
      <point x="588" y="633"/>
      <point x="614" y="598"/>
      <point x="632" y="559" type="curve" smooth="yes"/>
      <point x="636" y="551"/>
      <point x="648" y="517"/>
      <point x="651" y="512" type="curve"/>
      <point x="658" y="504"/>
      <point x="666" y="504"/>
      <point x="676" y="504" type="curve" smooth="yes"/>
      <point x="685" y="504"/>
      <point x="702" y="510"/>
      <point x="702" y="522" type="curve" smooth="yes"/>
      <point x="702" y="570"/>
      <point x="700" y="619"/>
      <point x="699" y="667" type="curve" smooth="yes"/>
      <point x="698" y="683"/>
      <point x="700" y="701"/>
      <point x="697" y="717" type="curve" smooth="yes"/>
      <point x="696" y="726"/>
      <point x="692" y="728"/>
      <point x="682" y="728" type="curve" smooth="yes"/>
      <point x="651" y="728"/>
      <point x="659" y="699"/>
      <point x="619" y="699" type="curve" smooth="yes"/>
      <point x="603" y="699"/>
      <point x="547" y="718"/>
      <point x="527" y="724" type="curve" smooth="yes"/>
      <point x="489" y="735"/>
      <point x="450" y="741"/>
      <point x="410" y="741" type="curve" smooth="yes"/>
      <point x="194" y="741"/>
      <point x="54" y="573"/>
      <point x="54" y="363" type="curve" smooth="yes"/>
      <point x="54" y="243"/>
      <point x="101" y="129"/>
      <point x="204" y="60" type="curve" smooth="yes"/>
      <point x="256" y="25"/>
      <point x="346" y="2"/>
      <point x="408" y="2" type="curve" smooth="yes"/>
      <point x="457" y="2"/>
      <point x="508" y="5"/>
      <point x="553" y="25" type="curve" smooth="yes"/>
      <point x="600" y="44"/>
      <point x="646" y="63"/>
      <point x="694" y="77" type="curve"/>
      <point x="694" y="290" type="line"/>
      <point x="750" y="290" type="line" smooth="yes"/>
      <point x="762" y="290"/>
      <point x="769" y="296"/>
    </contour>
  </outline>
</glyph>
<glyph name="H" format="2">
  <advance height="1000" width="837"/>
  <unicode hex="0048"/>
  <note>
cid00041
</note>
  <outline>
    <contour>
      <point x="821" y="721" type="curve" smooth="yes"/>
      <point x="821" y="731"/>
      <point x="817" y="737"/>
      <point x="807" y="737" type="curve" smooth="yes"/>
      <point x="792" y="737"/>
      <point x="776" y="735"/>
      <point x="761" y="734" type="curve" smooth="yes"/>
      <point x="729" y="733"/>
      <point x="697" y="732"/>
      <point x="665" y="732" type="curve" smooth="yes"/>
      <point x="651" y="732" type="line" smooth="yes"/>
      <point x="628" y="732"/>
      <point x="606" y="732"/>
      <point x="584" y="734" type="curve" smooth="yes"/>
      <point x="567" y="735"/>
      <point x="550" y="738"/>
      <point x="532" y="738" type="curve" smooth="yes"/>
      <point x="521" y="738"/>
      <point x="520" y="729"/>
      <point x="520" y="721" type="curve" smooth="yes"/>
      <point x="520" y="713"/>
      <point x="525" y="704"/>
      <point x="533" y="704" type="curve" smooth="yes"/>
      <point x="549" y="704"/>
      <point x="564" y="705"/>
      <point x="579" y="705" type="curve" smooth="yes"/>
      <point x="607" y="705"/>
      <point x="614" y="693"/>
      <point x="614" y="667" type="curve" smooth="yes"/>
      <point x="614" y="580"/>
      <point x="614" y="494"/>
      <point x="614" y="408" type="curve"/>
      <point x="225" y="408" type="line"/>
      <point x="225" y="680" type="line" smooth="yes"/>
      <point x="225" y="696"/>
      <point x="245" y="704"/>
      <point x="258" y="704" type="curve" smooth="yes"/>
      <point x="272" y="704"/>
      <point x="286" y="702"/>
      <point x="300" y="702" type="curve" smooth="yes"/>
      <point x="313" y="702"/>
      <point x="317" y="707"/>
      <point x="317" y="719" type="curve" smooth="yes"/>
      <point x="317" y="731"/>
      <point x="316" y="735"/>
      <point x="303" y="735" type="curve" smooth="yes"/>
      <point x="256" y="735"/>
      <point x="209" y="730"/>
      <point x="163" y="730" type="curve" smooth="yes"/>
      <point x="136" y="730"/>
      <point x="109" y="731"/>
      <point x="82" y="733" type="curve" smooth="yes"/>
      <point x="65" y="734"/>
      <point x="48" y="737"/>
      <point x="31" y="737" type="curve" smooth="yes"/>
      <point x="20" y="737"/>
      <point x="17" y="725"/>
      <point x="17" y="717" type="curve" smooth="yes"/>
      <point x="17" y="707"/>
      <point x="22" y="703"/>
      <point x="32" y="703" type="curve" smooth="yes"/>
      <point x="47" y="703"/>
      <point x="62" y="704"/>
      <point x="77" y="704" type="curve" smooth="yes"/>
      <point x="91" y="704"/>
      <point x="112" y="697"/>
      <point x="112" y="680" type="curve" smooth="yes"/>
      <point x="112" y="586"/>
      <point x="113" y="493"/>
      <point x="113" y="399" type="curve" smooth="yes"/>
      <point x="113" y="283"/>
      <point x="112" y="168"/>
      <point x="112" y="53" type="curve" smooth="yes"/>
      <point x="112" y="36"/>
      <point x="91" y="29"/>
      <point x="77" y="29" type="curve" smooth="yes"/>
      <point x="62" y="29"/>
      <point x="47" y="30"/>
      <point x="32" y="30" type="curve" smooth="yes"/>
      <point x="24" y="30"/>
      <point x="18" y="22"/>
      <point x="18" y="14" type="curve" smooth="yes"/>
      <point x="18" y="5"/>
      <point x="19" y="-4"/>
      <point x="31" y="-4" type="curve" smooth="yes"/>
      <point x="48" y="-4"/>
      <point x="65" y="-1"/>
      <point x="82" y="0" type="curve" smooth="yes"/>
      <point x="109" y="2"/>
      <point x="136" y="3"/>
      <point x="163" y="3" type="curve" smooth="yes"/>
      <point x="210" y="3"/>
      <point x="258" y="1"/>
      <point x="305" y="-2" type="curve"/>
      <point x="316" y="4"/>
      <point x="316" y="5"/>
      <point x="316" y="18" type="curve" smooth="yes"/>
      <point x="316" y="28"/>
      <point x="311" y="31"/>
      <point x="301" y="31" type="curve" smooth="yes"/>
      <point x="287" y="31"/>
      <point x="273" y="29"/>
      <point x="258" y="29" type="curve" smooth="yes"/>
      <point x="245" y="29"/>
      <point x="225" y="36"/>
      <point x="225" y="53" type="curve" smooth="yes"/>
      <point x="225" y="370" type="line"/>
      <point x="614" y="370" type="line"/>
      <point x="614" y="52" type="line" smooth="yes"/>
      <point x="614" y="35"/>
      <point x="593" y="28"/>
      <point x="579" y="28" type="curve" smooth="yes"/>
      <point x="564" y="28"/>
      <point x="549" y="29"/>
      <point x="533" y="29" type="curve" smooth="yes"/>
      <point x="524" y="29"/>
      <point x="520" y="21"/>
      <point x="520" y="13" type="curve" smooth="yes"/>
      <point x="520" y="4"/>
      <point x="521" y="-5"/>
      <point x="532" y="-5" type="curve" smooth="yes"/>
      <point x="550" y="-5"/>
      <point x="567" y="-2"/>
      <point x="584" y="-1" type="curve" smooth="yes"/>
      <point x="611" y="1"/>
      <point x="638" y="2"/>
      <point x="665" y="2" type="curve" smooth="yes"/>
      <point x="697" y="2"/>
      <point x="729" y="1"/>
      <point x="760" y="-1" type="curve" smooth="yes"/>
      <point x="776" y="-1"/>
      <point x="791" y="-3"/>
      <point x="807" y="-3" type="curve" smooth="yes"/>
      <point x="818" y="-3"/>
      <point x="819" y="8"/>
      <point x="819" y="17" type="curve" smooth="yes"/>
      <point x="819" y="27"/>
      <point x="814" y="30"/>
      <point x="804" y="30" type="curve" smooth="yes"/>
      <point x="790" y="30"/>
      <point x="776" y="28"/>
      <point x="762" y="28" type="curve" smooth="yes"/>
      <point x="749" y="28"/>
      <point x="729" y="35"/>
      <point x="729" y="52" type="curve" smooth="yes"/>
      <point x="729" y="681" type="line" smooth="yes"/>
      <point x="729" y="697"/>
      <point x="749" y="705"/>
      <point x="762" y="705" type="curve" smooth="yes"/>
      <point x="779" y="705"/>
      <point x="821" y="696"/>
    </contour>
  </outline>
</glyph>
<glyph name="I" format="2">
  <advance height="1000" width="413"/>
  <unicode hex="0049"/>
  <note>
cid00042
</note>
  <outline>
    <contour>
      <point x="356" y="720" type="curve" smooth="yes"/>
      <point x="356" y="728"/>
      <point x="350" y="736"/>
      <point x="341" y="736" type="curve" smooth="yes"/>
      <point x="324" y="736"/>
      <point x="304" y="733"/>
      <point x="285" y="733" type="curve" smooth="yes"/>
      <point x="255" y="732"/>
      <point x="225" y="732"/>
      <point x="195" y="732" type="curve" smooth="yes"/>
      <point x="152" y="732"/>
      <point x="109" y="736"/>
      <point x="66" y="736" type="curve" smooth="yes"/>
      <point x="53" y="736"/>
      <point x="53" y="728"/>
      <point x="53" y="718" type="curve" smooth="yes"/>
      <point x="53" y="707"/>
      <point x="56" y="702"/>
      <point x="67" y="702" type="curve" smooth="yes"/>
      <point x="89" y="702"/>
      <point x="149" y="712"/>
      <point x="149" y="677" type="curve" smooth="yes"/>
      <point x="149" y="54" type="line" smooth="yes"/>
      <point x="149" y="36"/>
      <point x="124" y="30"/>
      <point x="111" y="30" type="curve" smooth="yes"/>
      <point x="95" y="30"/>
      <point x="80" y="31"/>
      <point x="65" y="31" type="curve" smooth="yes"/>
      <point x="55" y="31"/>
      <point x="49" y="23"/>
      <point x="49" y="14" type="curve" smooth="yes"/>
      <point x="49" y="6"/>
      <point x="55" y="-3"/>
      <point x="63" y="-3" type="curve" smooth="yes"/>
      <point x="86" y="-3"/>
      <point x="109" y="0"/>
      <point x="132" y="2" type="curve" smooth="yes"/>
      <point x="154" y="3"/>
      <point x="177" y="4"/>
      <point x="199" y="4" type="curve" smooth="yes"/>
      <point x="247" y="4"/>
      <point x="294" y="-1"/>
      <point x="341" y="-1" type="curve" smooth="yes"/>
      <point x="353" y="-1"/>
      <point x="354" y="7"/>
      <point x="354" y="18" type="curve" smooth="yes"/>
      <point x="354" y="28"/>
      <point x="348" y="32"/>
      <point x="338" y="32" type="curve" smooth="yes"/>
      <point x="323" y="32"/>
      <point x="308" y="31"/>
      <point x="293" y="31" type="curve" smooth="yes"/>
      <point x="279" y="31"/>
      <point x="263" y="38"/>
      <point x="263" y="54" type="curve" smooth="yes"/>
      <point x="263" y="676" type="line" smooth="yes"/>
      <point x="263" y="692"/>
      <point x="282" y="703"/>
      <point x="296" y="703" type="curve" smooth="yes"/>
      <point x="311" y="703"/>
      <point x="325" y="702"/>
      <point x="340" y="702" type="curve" smooth="yes"/>
      <point x="351" y="702"/>
      <point x="356" y="710"/>
    </contour>
  </outline>
</glyph>
<glyph name="J" format="2">
  <advance height="1000" width="456"/>
  <unicode hex="004A"/>
  <note>
cid00043
</note>
  <outline>
    <contour>
      <point x="452" y="718" type="curve" smooth="yes"/>
      <point x="452" y="727"/>
      <point x="445" y="736"/>
      <point x="435" y="736" type="curve" smooth="yes"/>
      <point x="381" y="736"/>
      <point x="327" y="731"/>
      <point x="273" y="731" type="curve" smooth="yes"/>
      <point x="234" y="731"/>
      <point x="196" y="731"/>
      <point x="157" y="733" type="curve" smooth="yes"/>
      <point x="143" y="733"/>
      <point x="130" y="735"/>
      <point x="116" y="735" type="curve" smooth="yes"/>
      <point x="105" y="735"/>
      <point x="97" y="726"/>
      <point x="97" y="716" type="curve" smooth="yes"/>
      <point x="97" y="707"/>
      <point x="106" y="696"/>
      <point x="116" y="696" type="curve" smooth="yes"/>
      <point x="131" y="696"/>
      <point x="145" y="698"/>
      <point x="160" y="698" type="curve" smooth="yes"/>
      <point x="181" y="698"/>
      <point x="219" y="697"/>
      <point x="219" y="669" type="curve" smooth="yes"/>
      <point x="220" y="624"/>
      <point x="220" y="578"/>
      <point x="220" y="533" type="curve" smooth="yes"/>
      <point x="220" y="373"/>
      <point x="220" y="213"/>
      <point x="220" y="52" type="curve" smooth="yes"/>
      <point x="220" y="10"/>
      <point x="221" y="-33"/>
      <point x="213" y="-75" type="curve" smooth="yes"/>
      <point x="204" y="-122"/>
      <point x="151" y="-154"/>
      <point x="106" y="-154" type="curve" smooth="yes"/>
      <point x="83" y="-154"/>
      <point x="61" y="-142"/>
      <point x="61" y="-117" type="curve" smooth="yes"/>
      <point x="61" y="-109"/>
      <point x="67" y="-103"/>
      <point x="72" y="-98" type="curve"/>
      <point x="72" y="-76"/>
      <point x="28" y="-57"/>
      <point x="9" y="-57" type="curve" smooth="yes"/>
      <point x="-24" y="-57"/>
      <point x="-61" y="-82"/>
      <point x="-61" y="-118" type="curve" smooth="yes"/>
      <point x="-61" y="-188"/>
      <point x="56" y="-189"/>
      <point x="103" y="-189" type="curve" smooth="yes"/>
      <point x="290" y="-189"/>
      <point x="338" y="-56"/>
      <point x="338" y="106" type="curve" smooth="yes"/>
      <point x="338" y="215"/>
      <point x="338" y="324"/>
      <point x="338" y="434" type="curve" smooth="yes"/>
      <point x="338" y="502"/>
      <point x="338" y="570"/>
      <point x="339" y="638" type="curve" smooth="yes"/>
      <point x="339" y="648"/>
      <point x="338" y="659"/>
      <point x="339" y="670" type="curve" smooth="yes"/>
      <point x="341" y="688"/>
      <point x="361" y="699"/>
      <point x="378" y="699" type="curve" smooth="yes"/>
      <point x="397" y="699"/>
      <point x="415" y="697"/>
      <point x="434" y="697" type="curve" smooth="yes"/>
      <point x="445" y="697"/>
      <point x="452" y="707"/>
    </contour>
  </outline>
</glyph>
<glyph name="K" format="2">
  <advance height="1000" width="722"/>
  <unicode hex="004B"/>
  <note>
cid00044
</note>
  <outline>
    <contour>
      <point x="721" y="16" type="curve" smooth="yes"/>
      <point x="721" y="21"/>
      <point x="719" y="23"/>
      <point x="715" y="26" type="curve" smooth="yes"/>
      <point x="705" y="33"/>
      <point x="668" y="25"/>
      <point x="640" y="56" type="curve" smooth="yes"/>
      <point x="531" y="176"/>
      <point x="430" y="306"/>
      <point x="330" y="433" type="curve"/>
      <point x="575" y="671" type="line" smooth="yes"/>
      <point x="602" y="696"/>
      <point x="633" y="706"/>
      <point x="669" y="706" type="curve" smooth="yes"/>
      <point x="677" y="706"/>
      <point x="685" y="714"/>
      <point x="685" y="722" type="curve" smooth="yes"/>
      <point x="685" y="729"/>
      <point x="678" y="737"/>
      <point x="671" y="737" type="curve" smooth="yes"/>
      <point x="654" y="737"/>
      <point x="637" y="736"/>
      <point x="620" y="736" type="curve" smooth="yes"/>
      <point x="601" y="736"/>
      <point x="581" y="737"/>
      <point x="561" y="737" type="curve" smooth="yes"/>
      <point x="553" y="737"/>
      <point x="546" y="732"/>
      <point x="541" y="726" type="curve" smooth="yes"/>
      <point x="498" y="670"/>
      <point x="455" y="617"/>
      <point x="406" y="567" type="curve" smooth="yes"/>
      <point x="346" y="505"/>
      <point x="284" y="445"/>
      <point x="220" y="387" type="curve"/>
      <point x="221" y="438"/>
      <point x="222" y="490"/>
      <point x="222" y="542" type="curve" smooth="yes"/>
      <point x="222" y="680" type="line" smooth="yes"/>
      <point x="222" y="693"/>
      <point x="237" y="704"/>
      <point x="249" y="704" type="curve" smooth="yes"/>
      <point x="264" y="704"/>
      <point x="279" y="705"/>
      <point x="294" y="705" type="curve" smooth="yes"/>
      <point x="302" y="705"/>
      <point x="310" y="709"/>
      <point x="310" y="719" type="curve" smooth="yes"/>
      <point x="310" y="731"/>
      <point x="302" y="735"/>
      <point x="291" y="735" type="curve" smooth="yes"/>
      <point x="250" y="735"/>
      <point x="208" y="731"/>
      <point x="166" y="731" type="curve" smooth="yes"/>
      <point x="137" y="731"/>
      <point x="107" y="731"/>
      <point x="78" y="733" type="curve" smooth="yes"/>
      <point x="62" y="733"/>
      <point x="45" y="735"/>
      <point x="28" y="735" type="curve" smooth="yes"/>
      <point x="18" y="735"/>
      <point x="14" y="728"/>
      <point x="14" y="719" type="curve" smooth="yes"/>
      <point x="14" y="707"/>
      <point x="22" y="704"/>
      <point x="33" y="704" type="curve" smooth="yes"/>
      <point x="41" y="704"/>
      <point x="50" y="705"/>
      <point x="58" y="705" type="curve" smooth="yes"/>
      <point x="80" y="705" type="line" smooth="yes"/>
      <point x="90" y="705"/>
      <point x="108" y="692"/>
      <point x="109" y="681" type="curve" smooth="yes"/>
      <point x="110" y="673"/>
      <point x="110" y="664"/>
      <point x="110" y="655" type="curve" smooth="yes"/>
      <point x="110" y="81" type="line" smooth="yes"/>
      <point x="110" y="36"/>
      <point x="111" y="27"/>
      <point x="58" y="27" type="curve" smooth="yes"/>
      <point x="44" y="27"/>
      <point x="19" y="33"/>
      <point x="19" y="12" type="curve" smooth="yes"/>
      <point x="19" y="3"/>
      <point x="25" y="-2"/>
      <point x="34" y="-2" type="curve" smooth="yes"/>
      <point x="93" y="-2"/>
      <point x="151" y="2"/>
      <point x="210" y="2" type="curve" smooth="yes"/>
      <point x="240" y="2"/>
      <point x="270" y="-1"/>
      <point x="300" y="-1" type="curve" smooth="yes"/>
      <point x="308" y="-1"/>
      <point x="317" y="5"/>
      <point x="317" y="15" type="curve" smooth="yes"/>
      <point x="317" y="26"/>
      <point x="308" y="29"/>
      <point x="298" y="29" type="curve" smooth="yes"/>
      <point x="278" y="29"/>
      <point x="222" y="21"/>
      <point x="222" y="53" type="curve" smooth="yes"/>
      <point x="222" y="150"/>
      <point x="221" y="246"/>
      <point x="221" y="343" type="curve"/>
      <point x="250" y="367" type="line"/>
      <point x="339" y="258"/>
      <point x="421" y="144"/>
      <point x="503" y="29" type="curve" smooth="yes"/>
      <point x="507" y="24"/>
      <point x="512" y="19"/>
      <point x="517" y="14" type="curve" smooth="yes"/>
      <point x="536" y="-4"/>
      <point x="568" y="0"/>
      <point x="593" y="0" type="curve" smooth="yes"/>
      <point x="630" y="0"/>
      <point x="668" y="0"/>
      <point x="705" y="0" type="curve" smooth="yes"/>
      <point x="715" y="0"/>
      <point x="721" y="7"/>
    </contour>
  </outline>
</glyph>
<glyph name="L" format="2">
  <advance height="1000" width="670"/>
  <unicode hex="004C"/>
  <note>
cid00045
</note>
  <outline>
    <contour>
      <point x="656" y="228" type="curve" smooth="yes"/>
      <point x="656" y="234"/>
      <point x="649" y="239"/>
      <point x="644" y="239" type="curve" smooth="yes"/>
      <point x="634" y="239"/>
      <point x="626" y="239"/>
      <point x="622" y="228" type="curve" smooth="yes"/>
      <point x="604" y="182"/>
      <point x="591" y="137"/>
      <point x="559" y="98" type="curve" smooth="yes"/>
      <point x="498" y="26"/>
      <point x="378" y="35"/>
      <point x="292" y="35" type="curve" smooth="yes"/>
      <point x="270" y="35"/>
      <point x="228" y="36"/>
      <point x="228" y="67" type="curve" smooth="yes"/>
      <point x="228" y="222"/>
      <point x="227" y="378"/>
      <point x="227" y="534" type="curve" smooth="yes"/>
      <point x="227" y="581"/>
      <point x="228" y="628"/>
      <point x="228" y="675" type="curve" smooth="yes"/>
      <point x="228" y="700"/>
      <point x="259" y="702"/>
      <point x="277" y="702" type="curve" smooth="yes"/>
      <point x="318" y="702" type="line" smooth="yes"/>
      <point x="327" y="702"/>
      <point x="334" y="711"/>
      <point x="334" y="720" type="curve" smooth="yes"/>
      <point x="334" y="729"/>
      <point x="327" y="735"/>
      <point x="318" y="735" type="curve" smooth="yes"/>
      <point x="271" y="735"/>
      <point x="224" y="732"/>
      <point x="177" y="732" type="curve" smooth="yes"/>
      <point x="129" y="732"/>
      <point x="80" y="735"/>
      <point x="32" y="735" type="curve" smooth="yes"/>
      <point x="22" y="735"/>
      <point x="20" y="722"/>
      <point x="20" y="715" type="curve" smooth="yes"/>
      <point x="20" y="709"/>
      <point x="27" y="700"/>
      <point x="33" y="700" type="curve" smooth="yes"/>
      <point x="45" y="700"/>
      <point x="58" y="702"/>
      <point x="71" y="702" type="curve" smooth="yes"/>
      <point x="119" y="702"/>
      <point x="112" y="684"/>
      <point x="112" y="643" type="curve" smooth="yes"/>
      <point x="112" y="55" type="line" smooth="yes"/>
      <point x="112" y="32"/>
      <point x="89" y="30"/>
      <point x="71" y="30" type="curve" smooth="yes"/>
      <point x="60" y="30"/>
      <point x="49" y="31"/>
      <point x="38" y="31" type="curve" smooth="yes"/>
      <point x="26" y="31"/>
      <point x="18" y="29"/>
      <point x="18" y="15" type="curve" smooth="yes"/>
      <point x="18" y="2"/>
      <point x="26" y="-2"/>
      <point x="38" y="-2" type="curve" smooth="yes"/>
      <point x="82" y="-2"/>
      <point x="127" y="2"/>
      <point x="171" y="3" type="curve" smooth="yes"/>
      <point x="203" y="4"/>
      <point x="235" y="4"/>
      <point x="267" y="4" type="curve" smooth="yes"/>
      <point x="364" y="4"/>
      <point x="461" y="4"/>
      <point x="558" y="3" type="curve" smooth="yes"/>
      <point x="572" y="3"/>
      <point x="586" y="2"/>
      <point x="600" y="2" type="curve" smooth="yes"/>
      <point x="608" y="2"/>
      <point x="617" y="3"/>
      <point x="623" y="10" type="curve" smooth="yes"/>
      <point x="627" y="15"/>
      <point x="628" y="22"/>
      <point x="628" y="28" type="curve"/>
      <point x="637" y="85"/>
      <point x="642" y="141"/>
      <point x="652" y="198" type="curve" smooth="yes"/>
      <point x="654" y="208"/>
      <point x="656" y="218"/>
    </contour>
  </outline>
</glyph>
<glyph name="M" format="2">
  <advance height="1000" width="947"/>
  <unicode hex="004D"/>
  <note>
cid00046
</note>
  <outline>
    <contour>
      <point x="941" y="15" type="curve" smooth="yes"/>
      <point x="941" y="25"/>
      <point x="935" y="33"/>
      <point x="924" y="33" type="curve" smooth="yes"/>
      <point x="908" y="33"/>
      <point x="891" y="32"/>
      <point x="874" y="32" type="curve" smooth="yes"/>
      <point x="862" y="32"/>
      <point x="843" y="32"/>
      <point x="837" y="45" type="curve" smooth="yes"/>
      <point x="831" y="56"/>
      <point x="833" y="80"/>
      <point x="833" y="92" type="curve" smooth="yes"/>
      <point x="833" y="186"/>
      <point x="833" y="280"/>
      <point x="833" y="374" type="curve" smooth="yes"/>
      <point x="833" y="477"/>
      <point x="833" y="579"/>
      <point x="833" y="682" type="curve" smooth="yes"/>
      <point x="833" y="699"/>
      <point x="860" y="706"/>
      <point x="874" y="706" type="curve" smooth="yes"/>
      <point x="891" y="706"/>
      <point x="907" y="704"/>
      <point x="923" y="704" type="curve" smooth="yes"/>
      <point x="932" y="704"/>
      <point x="938" y="714"/>
      <point x="938" y="722" type="curve" smooth="yes"/>
      <point x="938" y="730"/>
      <point x="932" y="739"/>
      <point x="923" y="739" type="curve" smooth="yes"/>
      <point x="884" y="739"/>
      <point x="844" y="735"/>
      <point x="805" y="735" type="curve" smooth="yes"/>
      <point x="770" y="735"/>
      <point x="735" y="736"/>
      <point x="700" y="736" type="curve"/>
      <point x="633" y="549"/>
      <point x="550" y="368"/>
      <point x="478" y="183" type="curve"/>
      <point x="246" y="736" type="line"/>
      <point x="220" y="734"/>
      <point x="193" y="732"/>
      <point x="166" y="732" type="curve" smooth="yes"/>
      <point x="138" y="732"/>
      <point x="110" y="733"/>
      <point x="82" y="734" type="curve" smooth="yes"/>
      <point x="66" y="734"/>
      <point x="50" y="736"/>
      <point x="34" y="736" type="curve" smooth="yes"/>
      <point x="24" y="736"/>
      <point x="17" y="729"/>
      <point x="17" y="719" type="curve" smooth="yes"/>
      <point x="17" y="711"/>
      <point x="24" y="701"/>
      <point x="33" y="701" type="curve" smooth="yes"/>
      <point x="45" y="701"/>
      <point x="57" y="704"/>
      <point x="69" y="704" type="curve" smooth="yes"/>
      <point x="87" y="704"/>
      <point x="113" y="697"/>
      <point x="113" y="675" type="curve" smooth="yes"/>
      <point x="113" y="533"/>
      <point x="111" y="391"/>
      <point x="111" y="250" type="curve" smooth="yes"/>
      <point x="111" y="209"/>
      <point x="111" y="168"/>
      <point x="111" y="127" type="curve" smooth="yes"/>
      <point x="111" y="103"/>
      <point x="112" y="78"/>
      <point x="111" y="55" type="curve" smooth="yes"/>
      <point x="109" y="30"/>
      <point x="81" y="29"/>
      <point x="62" y="29" type="curve" smooth="yes"/>
      <point x="52" y="29"/>
      <point x="42" y="31"/>
      <point x="33" y="31" type="curve" smooth="yes"/>
      <point x="23" y="31"/>
      <point x="16" y="28"/>
      <point x="16" y="17" type="curve" smooth="yes"/>
      <point x="16" y="-2"/>
      <point x="23" y="-1"/>
      <point x="37" y="-1" type="curve" smooth="yes"/>
      <point x="68" y="-1"/>
      <point x="100" y="3"/>
      <point x="131" y="3" type="curve" smooth="yes"/>
      <point x="167" y="3"/>
      <point x="204" y="0"/>
      <point x="240" y="0" type="curve" smooth="yes"/>
      <point x="248" y="0"/>
      <point x="254" y="9"/>
      <point x="254" y="16" type="curve" smooth="yes"/>
      <point x="254" y="22"/>
      <point x="251" y="33"/>
      <point x="243" y="33" type="curve" smooth="yes"/>
      <point x="228" y="33"/>
      <point x="212" y="31"/>
      <point x="196" y="31" type="curve" smooth="yes"/>
      <point x="179" y="31"/>
      <point x="159" y="32"/>
      <point x="159" y="55" type="curve" smooth="yes"/>
      <point x="159" y="252"/>
      <point x="158" y="450"/>
      <point x="158" y="647" type="curve"/>
      <point x="215" y="511"/>
      <point x="271" y="374"/>
      <point x="328" y="238" type="curve" smooth="yes"/>
      <point x="347" y="194"/>
      <point x="366" y="149"/>
      <point x="386" y="104" type="curve" smooth="yes"/>
      <point x="395" y="83"/>
      <point x="404" y="62"/>
      <point x="414" y="41" type="curve" smooth="yes"/>
      <point x="419" y="31"/>
      <point x="430" y="28"/>
      <point x="441" y="28" type="curve" smooth="yes"/>
      <point x="452" y="28"/>
      <point x="463" y="31"/>
      <point x="468" y="41" type="curve" smooth="yes"/>
      <point x="480" y="64"/>
      <point x="489" y="89"/>
      <point x="498" y="113" type="curve" smooth="yes"/>
      <point x="521" y="167"/>
      <point x="543" y="221"/>
      <point x="566" y="276" type="curve" smooth="yes"/>
      <point x="619" y="406"/>
      <point x="671" y="537"/>
      <point x="720" y="668" type="curve"/>
      <point x="720" y="84" type="line" smooth="yes"/>
      <point x="720" y="43"/>
      <point x="723" y="31"/>
      <point x="675" y="31" type="curve" smooth="yes"/>
      <point x="664" y="31"/>
      <point x="653" y="32"/>
      <point x="642" y="32" type="curve" smooth="yes"/>
      <point x="631" y="32"/>
      <point x="623" y="30"/>
      <point x="623" y="17" type="curve" smooth="yes"/>
      <point x="623" y="5"/>
      <point x="629" y="-3"/>
      <point x="642" y="-3" type="curve" smooth="yes"/>
      <point x="664" y="-3"/>
      <point x="687" y="-1"/>
      <point x="710" y="0" type="curve" smooth="yes"/>
      <point x="734" y="1"/>
      <point x="759" y="1"/>
      <point x="783" y="1" type="curve" smooth="yes"/>
      <point x="829" y="1"/>
      <point x="876" y="0"/>
      <point x="922" y="0" type="curve" smooth="yes"/>
      <point x="931" y="0"/>
      <point x="941" y="6"/>
    </contour>
  </outline>
</glyph>
<glyph name="N" format="2">
  <advance height="1000" width="780"/>
  <unicode hex="004E"/>
  <note>
cid00047
</note>
  <outline>
    <contour>
      <point x="772" y="721" type="curve" smooth="yes"/>
      <point x="772" y="729"/>
      <point x="770" y="736"/>
      <point x="761" y="736" type="curve" smooth="yes"/>
      <point x="726" y="736"/>
      <point x="691" y="733"/>
      <point x="656" y="733" type="curve" smooth="yes"/>
      <point x="621" y="733"/>
      <point x="585" y="735"/>
      <point x="550" y="735" type="curve" smooth="yes"/>
      <point x="534" y="735"/>
      <point x="533" y="732"/>
      <point x="533" y="717" type="curve" smooth="yes"/>
      <point x="533" y="710"/>
      <point x="538" y="701"/>
      <point x="546" y="701" type="curve" smooth="yes"/>
      <point x="564" y="701"/>
      <point x="582" y="703"/>
      <point x="601" y="703" type="curve" smooth="yes"/>
      <point x="615" y="703"/>
      <point x="630" y="696"/>
      <point x="630" y="680" type="curve" smooth="yes"/>
      <point x="630" y="558"/>
      <point x="631" y="437"/>
      <point x="631" y="316" type="curve" smooth="yes"/>
      <point x="630" y="220" type="line"/>
      <point x="542" y="325"/>
      <point x="456" y="432"/>
      <point x="369" y="539" type="curve" smooth="yes"/>
      <point x="317" y="603"/>
      <point x="264" y="667"/>
      <point x="214" y="734" type="curve"/>
      <point x="188" y="734"/>
      <point x="162" y="733"/>
      <point x="136" y="733" type="curve" smooth="yes"/>
      <point x="102" y="733"/>
      <point x="67" y="736"/>
      <point x="33" y="736" type="curve" smooth="yes"/>
      <point x="20" y="736"/>
      <point x="15" y="728"/>
      <point x="15" y="716" type="curve" smooth="yes"/>
      <point x="15" y="706"/>
      <point x="25" y="702"/>
      <point x="34" y="702" type="curve" smooth="yes"/>
      <point x="43" y="702"/>
      <point x="52" y="704"/>
      <point x="62" y="704" type="curve" smooth="yes"/>
      <point x="86" y="704"/>
      <point x="111" y="702"/>
      <point x="111" y="671" type="curve" smooth="yes"/>
      <point x="111" y="531"/>
      <point x="107" y="392"/>
      <point x="107" y="253" type="curve" smooth="yes"/>
      <point x="108" y="132" type="line" smooth="yes"/>
      <point x="108" y="106"/>
      <point x="109" y="80"/>
      <point x="107" y="55" type="curve" smooth="yes"/>
      <point x="106" y="32"/>
      <point x="90" y="30"/>
      <point x="71" y="30" type="curve" smooth="yes"/>
      <point x="59" y="30"/>
      <point x="47" y="31"/>
      <point x="34" y="31" type="curve" smooth="yes"/>
      <point x="19" y="31"/>
      <point x="15" y="27"/>
      <point x="15" y="12" type="curve" smooth="yes"/>
      <point x="15" y="3"/>
      <point x="17" y="-3"/>
      <point x="29" y="-3" type="curve" smooth="yes"/>
      <point x="64" y="-3"/>
      <point x="99" y="2"/>
      <point x="134" y="2" type="curve" smooth="yes"/>
      <point x="156" y="2"/>
      <point x="177" y="2"/>
      <point x="199" y="1" type="curve" smooth="yes"/>
      <point x="212" y="0"/>
      <point x="224" y="-3"/>
      <point x="237" y="-3" type="curve" smooth="yes"/>
      <point x="252" y="-3"/>
      <point x="256" y="2"/>
      <point x="256" y="16" type="curve" smooth="yes"/>
      <point x="256" y="25"/>
      <point x="252" y="32"/>
      <point x="242" y="32" type="curve" smooth="yes"/>
      <point x="228" y="32"/>
      <point x="215" y="30"/>
      <point x="201" y="30" type="curve" smooth="yes"/>
      <point x="184" y="30"/>
      <point x="159" y="32"/>
      <point x="159" y="55" type="curve" smooth="yes"/>
      <point x="159" y="249"/>
      <point x="159" y="444"/>
      <point x="159" y="638" type="curve"/>
      <point x="295" y="452"/>
      <point x="436" y="270"/>
      <point x="576" y="86" type="curve" smooth="yes"/>
      <point x="595" y="62"/>
      <point x="610" y="31"/>
      <point x="615" y="1" type="curve"/>
      <point x="666" y="1" type="line" smooth="yes"/>
      <point x="672" y="1"/>
      <point x="680" y="7"/>
      <point x="680" y="13" type="curve" smooth="yes"/>
      <point x="680" y="645" type="line" smooth="yes"/>
      <point x="680" y="687"/>
      <point x="673" y="702"/>
      <point x="723" y="702" type="curve" smooth="yes"/>
      <point x="741" y="702"/>
      <point x="772" y="695"/>
    </contour>
  </outline>
</glyph>
<glyph name="P" format="2">
  <advance height="1000" width="624"/>
  <unicode hex="0050"/>
  <note>
cid00049
</note>
  <outline>
    <contour>
      <point x="491" y="553" type="curve" smooth="yes"/>
      <point x="491" y="445"/>
      <point x="442" y="379"/>
      <point x="330" y="379" type="curve" smooth="yes"/>
      <point x="298" y="379"/>
      <point x="253" y="380"/>
      <point x="226" y="400" type="curve"/>
      <point x="226" y="681" type="line" smooth="yes"/>
      <point x="226" y="692"/>
      <point x="239" y="702"/>
      <point x="250" y="702" type="curve" smooth="yes"/>
      <point x="277" y="702"/>
      <point x="304" y="703"/>
      <point x="332" y="703" type="curve" smooth="yes"/>
      <point x="429" y="703"/>
      <point x="491" y="655"/>
    </contour>
    <contour>
      <point x="612" y="556" type="curve" smooth="yes"/>
      <point x="612" y="690"/>
      <point x="487" y="735"/>
      <point x="372" y="735" type="curve" smooth="yes"/>
      <point x="304" y="735"/>
      <point x="235" y="731"/>
      <point x="166" y="731" type="curve" smooth="yes"/>
      <point x="122" y="731"/>
      <point x="78" y="735"/>
      <point x="34" y="735" type="curve" smooth="yes"/>
      <point x="21" y="735"/>
      <point x="20" y="727"/>
      <point x="20" y="717" type="curve" smooth="yes"/>
      <point x="20" y="709"/>
      <point x="25" y="703"/>
      <point x="33" y="703" type="curve" smooth="yes"/>
      <point x="45" y="703"/>
      <point x="57" y="705"/>
      <point x="69" y="705" type="curve" smooth="yes"/>
      <point x="86" y="705"/>
      <point x="111" y="704"/>
      <point x="111" y="681" type="curve" smooth="yes"/>
      <point x="111" y="529"/>
      <point x="112" y="377"/>
      <point x="112" y="225" type="curve" smooth="yes"/>
      <point x="112" y="186"/>
      <point x="112" y="148"/>
      <point x="111" y="109" type="curve" smooth="yes"/>
      <point x="111" y="91"/>
      <point x="112" y="72"/>
      <point x="111" y="54" type="curve" smooth="yes"/>
      <point x="110" y="43"/>
      <point x="107" y="36"/>
      <point x="96" y="32" type="curve" smooth="yes"/>
      <point x="88" y="30"/>
      <point x="80" y="30"/>
      <point x="72" y="30" type="curve" smooth="yes"/>
      <point x="60" y="30"/>
      <point x="47" y="31"/>
      <point x="35" y="31" type="curve" smooth="yes"/>
      <point x="24" y="31"/>
      <point x="20" y="23"/>
      <point x="20" y="14" type="curve" smooth="yes"/>
      <point x="20" y="1"/>
      <point x="21" y="2"/>
      <point x="31" y="-2" type="curve"/>
      <point x="82" y="1"/>
      <point x="134" y="3"/>
      <point x="185" y="3" type="curve" smooth="yes"/>
      <point x="228" y="3"/>
      <point x="271" y="0"/>
      <point x="313" y="0" type="curve" smooth="yes"/>
      <point x="322" y="0"/>
      <point x="329" y="10"/>
      <point x="329" y="18" type="curve" smooth="yes"/>
      <point x="329" y="28"/>
      <point x="325" y="35"/>
      <point x="315" y="35" type="curve" smooth="yes"/>
      <point x="297" y="35"/>
      <point x="280" y="33"/>
      <point x="262" y="33" type="curve" smooth="yes"/>
      <point x="246" y="33"/>
      <point x="227" y="37"/>
      <point x="227" y="57" type="curve" smooth="yes"/>
      <point x="227" y="156"/>
      <point x="227" y="254"/>
      <point x="227" y="353" type="curve"/>
      <point x="260" y="349"/>
      <point x="293" y="344"/>
      <point x="326" y="344" type="curve" smooth="yes"/>
      <point x="472" y="344"/>
      <point x="612" y="381"/>
    </contour>
  </outline>
</glyph>
<glyph name="Q" format="2">
  <advance height="1000" width="820"/>
  <unicode hex="0051"/>
  <note>
cid00050
</note>
  <outline>
    <contour>
      <point x="444" y="36" type="curve"/>
      <point x="434" y="36"/>
      <point x="424" y="35"/>
      <point x="415" y="35" type="curve" smooth="yes"/>
      <point x="363" y="35"/>
      <point x="265" y="78"/>
      <point x="238" y="122" type="curve"/>
      <point x="243" y="151"/>
      <point x="279" y="197"/>
      <point x="310" y="197" type="curve" smooth="yes"/>
      <point x="325" y="197"/>
      <point x="335" y="195"/>
      <point x="347" y="186" type="curve" smooth="yes"/>
      <point x="371" y="170"/>
      <point x="428" y="66"/>
    </contour>
    <contour>
      <point x="640" y="366" type="curve" smooth="yes"/>
      <point x="640" y="278"/>
      <point x="630" y="177"/>
      <point x="568" y="109" type="curve" smooth="yes"/>
      <point x="555" y="95"/>
      <point x="540" y="83"/>
      <point x="525" y="71" type="curve"/>
      <point x="502" y="109"/>
      <point x="478" y="146"/>
      <point x="450" y="181" type="curve" smooth="yes"/>
      <point x="419" y="221"/>
      <point x="387" y="243"/>
      <point x="334" y="243" type="curve" smooth="yes"/>
      <point x="279" y="243"/>
      <point x="237" y="208"/>
      <point x="208" y="165" type="curve"/>
      <point x="175" y="223"/>
      <point x="170" y="300"/>
      <point x="170" y="366" type="curve" smooth="yes"/>
      <point x="170" y="504"/>
      <point x="231" y="711"/>
      <point x="400" y="711" type="curve" smooth="yes"/>
      <point x="577" y="711"/>
      <point x="640" y="512"/>
    </contour>
    <contour>
      <point x="807" y="-38" type="curve" smooth="yes"/>
      <point x="807" y="-33"/>
      <point x="798" y="-29"/>
      <point x="793" y="-29" type="curve" smooth="yes"/>
      <point x="784" y="-29"/>
      <point x="778" y="-41"/>
      <point x="771" y="-45" type="curve" smooth="yes"/>
      <point x="757" y="-52"/>
      <point x="732" y="-60"/>
      <point x="716" y="-60" type="curve" smooth="yes"/>
      <point x="643" y="-60"/>
      <point x="598" y="-20"/>
      <point x="554" y="34" type="curve"/>
      <point x="680" y="95"/>
      <point x="765" y="225"/>
      <point x="765" y="366" type="curve" smooth="yes"/>
      <point x="765" y="587"/>
      <point x="640" y="744"/>
      <point x="410" y="744" type="curve" smooth="yes"/>
      <point x="192" y="744"/>
      <point x="51" y="580"/>
      <point x="51" y="368" type="curve" smooth="yes"/>
      <point x="51" y="163"/>
      <point x="200" y="4"/>
      <point x="408" y="4" type="curve" smooth="yes"/>
      <point x="425" y="4"/>
      <point x="443" y="6"/>
      <point x="461" y="7" type="curve"/>
      <point x="520" y="-74"/>
      <point x="569" y="-115"/>
      <point x="674" y="-115" type="curve" smooth="yes"/>
      <point x="723" y="-115"/>
      <point x="766" y="-93"/>
      <point x="797" y="-56" type="curve" smooth="yes"/>
      <point x="799" y="-53"/>
      <point x="807" y="-42"/>
    </contour>
  </outline>
</glyph>
<glyph name="R" format="2">
  <advance height="1000" width="707"/>
  <unicode hex="0052"/>
  <note>
cid00051
</note>
  <outline>
    <contour>
      <point x="485" y="555" type="curve" smooth="yes"/>
      <point x="485" y="429"/>
      <point x="379" y="401"/>
      <point x="274" y="401" type="curve" smooth="yes"/>
      <point x="259" y="401"/>
      <point x="243" y="401"/>
      <point x="228" y="405" type="curve"/>
      <point x="228" y="412" type="line" smooth="yes"/>
      <point x="228" y="502"/>
      <point x="229" y="591"/>
      <point x="229" y="680" type="curve" smooth="yes"/>
      <point x="229" y="710"/>
      <point x="279" y="707"/>
      <point x="299" y="707" type="curve" smooth="yes"/>
      <point x="412" y="707"/>
      <point x="485" y="685"/>
    </contour>
    <contour>
      <point x="717" y="15" type="curve" smooth="yes"/>
      <point x="717" y="29"/>
      <point x="688" y="24"/>
      <point x="679" y="26" type="curve" smooth="yes"/>
      <point x="647" y="33"/>
      <point x="626" y="50"/>
      <point x="607" y="76" type="curve" smooth="yes"/>
      <point x="537" y="174"/>
      <point x="472" y="277"/>
      <point x="410" y="381" type="curve"/>
      <point x="436" y="386"/>
      <point x="463" y="391"/>
      <point x="487" y="403" type="curve" smooth="yes"/>
      <point x="557" y="435"/>
      <point x="608" y="493"/>
      <point x="608" y="574" type="curve" smooth="yes"/>
      <point x="608" y="703"/>
      <point x="462" y="738"/>
      <point x="358" y="738" type="curve" smooth="yes"/>
      <point x="296" y="738"/>
      <point x="235" y="730"/>
      <point x="173" y="730" type="curve" smooth="yes"/>
      <point x="128" y="730"/>
      <point x="83" y="735"/>
      <point x="38" y="735" type="curve" smooth="yes"/>
      <point x="29" y="735"/>
      <point x="21" y="732"/>
      <point x="21" y="722" type="curve" smooth="yes"/>
      <point x="21" y="708"/>
      <point x="28" y="702"/>
      <point x="42" y="702" type="curve" smooth="yes"/>
      <point x="53" y="702"/>
      <point x="64" y="703"/>
      <point x="74" y="703" type="curve" smooth="yes"/>
      <point x="92" y="703"/>
      <point x="113" y="702"/>
      <point x="115" y="680" type="curve" smooth="yes"/>
      <point x="118" y="647"/>
      <point x="116" y="611"/>
      <point x="116" y="577" type="curve" smooth="yes"/>
      <point x="116" y="487"/>
      <point x="116" y="397"/>
      <point x="116" y="306" type="curve" smooth="yes"/>
      <point x="116" y="262"/>
      <point x="116" y="217"/>
      <point x="116" y="173" type="curve" smooth="yes"/>
      <point x="116" y="137"/>
      <point x="118" y="88"/>
      <point x="115" y="54" type="curve" smooth="yes"/>
      <point x="112" y="31"/>
      <point x="87" y="30"/>
      <point x="69" y="30" type="curve" smooth="yes"/>
      <point x="58" y="30"/>
      <point x="47" y="31"/>
      <point x="35" y="31" type="curve" smooth="yes"/>
      <point x="25" y="31"/>
      <point x="17" y="27"/>
      <point x="17" y="16" type="curve" smooth="yes"/>
      <point x="17" y="8"/>
      <point x="25" y="-2"/>
      <point x="33" y="-2" type="curve" smooth="yes"/>
      <point x="65" y="-2"/>
      <point x="96" y="1"/>
      <point x="127" y="1" type="curve" smooth="yes"/>
      <point x="187" y="1"/>
      <point x="246" y="-1"/>
      <point x="306" y="-1" type="curve" smooth="yes"/>
      <point x="317" y="-1"/>
      <point x="328" y="0"/>
      <point x="328" y="14" type="curve" smooth="yes"/>
      <point x="328" y="22"/>
      <point x="322" y="33"/>
      <point x="313" y="33" type="curve" smooth="yes"/>
      <point x="295" y="33"/>
      <point x="277" y="31"/>
      <point x="259" y="31" type="curve" smooth="yes"/>
      <point x="244" y="31"/>
      <point x="229" y="37"/>
      <point x="229" y="54" type="curve" smooth="yes"/>
      <point x="229" y="159"/>
      <point x="229" y="265"/>
      <point x="229" y="371" type="curve"/>
      <point x="304" y="374" type="line"/>
      <point x="364" y="265"/>
      <point x="423" y="155"/>
      <point x="488" y="50" type="curve" smooth="yes"/>
      <point x="519" y="1"/>
      <point x="549" y="-5"/>
      <point x="605" y="-5" type="curve" smooth="yes"/>
      <point x="622" y="-5"/>
      <point x="717" y="-7"/>
    </contour>
  </outline>
</glyph>
<glyph name="S" format="2">
  <advance height="1000" width="594"/>
  <unicode hex="0053"/>
  <note>
cid00052
</note>
  <outline>
    <contour>
      <point x="562" y="192" type="curve" smooth="yes"/>
      <point x="562" y="440"/>
      <point x="156" y="399"/>
      <point x="156" y="591" type="curve" smooth="yes"/>
      <point x="156" y="671"/>
      <point x="202" y="717"/>
      <point x="282" y="717" type="curve" smooth="yes"/>
      <point x="391" y="717"/>
      <point x="440" y="661"/>
      <point x="457" y="558" type="curve"/>
      <point x="457" y="554"/>
      <point x="458" y="546"/>
      <point x="461" y="543" type="curve"/>
      <point x="465" y="537"/>
      <point x="475" y="537"/>
      <point x="481" y="537" type="curve" smooth="yes"/>
      <point x="499" y="537"/>
      <point x="521" y="541"/>
      <point x="521" y="564" type="curve" smooth="yes"/>
      <point x="521" y="570"/>
      <point x="519" y="575"/>
      <point x="518" y="581" type="curve" smooth="yes"/>
      <point x="510" y="620"/>
      <point x="507" y="661"/>
      <point x="503" y="701" type="curve"/>
      <point x="477" y="703"/>
      <point x="452" y="707"/>
      <point x="427" y="716" type="curve" smooth="yes"/>
      <point x="380" y="733"/>
      <point x="339" y="745"/>
      <point x="289" y="745" type="curve" smooth="yes"/>
      <point x="173" y="745"/>
      <point x="52" y="686"/>
      <point x="52" y="555" type="curve" smooth="yes"/>
      <point x="52" y="478"/>
      <point x="131" y="418"/>
      <point x="194" y="388" type="curve" smooth="yes"/>
      <point x="237" y="367"/>
      <point x="278" y="347"/>
      <point x="320" y="325" type="curve" smooth="yes"/>
      <point x="379" y="296"/>
      <point x="445" y="253"/>
      <point x="445" y="178" type="curve" smooth="yes"/>
      <point x="445" y="71"/>
      <point x="373" y="28"/>
      <point x="274" y="28" type="curve" smooth="yes"/>
      <point x="158" y="28"/>
      <point x="130" y="90"/>
      <point x="107" y="191" type="curve" smooth="yes"/>
      <point x="103" y="209"/>
      <point x="97" y="217"/>
      <point x="77" y="217" type="curve" smooth="yes"/>
      <point x="53" y="217"/>
      <point x="45" y="209"/>
      <point x="45" y="186" type="curve" smooth="yes"/>
      <point x="45" y="176"/>
      <point x="47" y="167"/>
      <point x="49" y="157" type="curve" smooth="yes"/>
      <point x="55" y="120"/>
      <point x="63" y="83"/>
      <point x="68" y="46" type="curve"/>
      <point x="99" y="40"/>
      <point x="126" y="24"/>
      <point x="156" y="13" type="curve" smooth="yes"/>
      <point x="194" y="-1"/>
      <point x="235" y="-7"/>
      <point x="275" y="-7" type="curve" smooth="yes"/>
      <point x="401" y="-7"/>
      <point x="562" y="39"/>
    </contour>
  </outline>
</glyph>
<glyph name="T" format="2">
  <advance height="1000" width="690"/>
  <unicode hex="0054"/>
  <note>
cid00053
</note>
  <outline>
    <contour>
      <point x="686" y="543" type="curve" smooth="yes"/>
      <point x="686" y="557"/>
      <point x="684" y="570"/>
      <point x="684" y="584" type="curve" smooth="yes"/>
      <point x="682" y="617"/>
      <point x="679" y="650"/>
      <point x="679" y="683" type="curve" smooth="yes"/>
      <point x="679" y="704"/>
      <point x="686" y="731"/>
      <point x="656" y="731" type="curve" smooth="yes"/>
      <point x="631" y="731"/>
      <point x="606" y="730"/>
      <point x="581" y="729" type="curve" smooth="yes"/>
      <point x="507" y="728"/>
      <point x="420" y="727"/>
      <point x="346" y="727" type="curve" smooth="yes"/>
      <point x="270" y="727"/>
      <point x="183" y="727"/>
      <point x="108" y="729" type="curve" smooth="yes"/>
      <point x="97" y="730"/>
      <point x="86" y="730"/>
      <point x="75" y="731" type="curve" smooth="yes"/>
      <point x="62" y="731"/>
      <point x="49" y="734"/>
      <point x="36" y="734" type="curve" smooth="yes"/>
      <point x="15" y="734"/>
      <point x="16" y="720"/>
      <point x="16" y="704" type="curve" smooth="yes"/>
      <point x="16" y="666"/>
      <point x="15" y="629"/>
      <point x="12" y="592" type="curve" smooth="yes"/>
      <point x="11" y="575"/>
      <point x="7" y="557"/>
      <point x="7" y="540" type="curve" smooth="yes"/>
      <point x="7" y="528"/>
      <point x="13" y="527"/>
      <point x="24" y="527" type="curve" smooth="yes"/>
      <point x="31" y="527"/>
      <point x="35" y="527"/>
      <point x="39" y="533" type="curve" smooth="yes"/>
      <point x="45" y="542"/>
      <point x="58" y="618"/>
      <point x="64" y="637" type="curve" smooth="yes"/>
      <point x="86" y="704"/>
      <point x="120" y="697"/>
      <point x="181" y="697" type="curve" smooth="yes"/>
      <point x="204" y="697"/>
      <point x="229" y="699"/>
      <point x="252" y="695" type="curve" smooth="yes"/>
      <point x="265" y="693"/>
      <point x="285" y="679"/>
      <point x="285" y="665" type="curve" smooth="yes"/>
      <point x="285" y="567"/>
      <point x="286" y="469"/>
      <point x="286" y="371" type="curve" smooth="yes"/>
      <point x="286" y="266"/>
      <point x="285" y="161"/>
      <point x="285" y="56" type="curve" smooth="yes"/>
      <point x="285" y="29"/>
      <point x="239" y="27"/>
      <point x="220" y="27" type="curve" smooth="yes"/>
      <point x="215" y="27"/>
      <point x="210" y="28"/>
      <point x="205" y="28" type="curve" smooth="yes"/>
      <point x="193" y="28"/>
      <point x="187" y="19"/>
      <point x="187" y="8" type="curve" smooth="yes"/>
      <point x="187" y="-1"/>
      <point x="194" y="-6"/>
      <point x="203" y="-6" type="curve" smooth="yes"/>
      <point x="218" y="-6"/>
      <point x="234" y="-4"/>
      <point x="250" y="-3" type="curve" smooth="yes"/>
      <point x="282" y="-1"/>
      <point x="315" y="0"/>
      <point x="347" y="0" type="curve" smooth="yes"/>
      <point x="395" y="0"/>
      <point x="443" y="-4"/>
      <point x="490" y="-4" type="curve" smooth="yes"/>
      <point x="499" y="-4"/>
      <point x="503" y="6"/>
      <point x="503" y="13" type="curve" smooth="yes"/>
      <point x="503" y="25"/>
      <point x="499" y="29"/>
      <point x="487" y="29" type="curve" smooth="yes"/>
      <point x="478" y="29"/>
      <point x="469" y="27"/>
      <point x="460" y="27" type="curve" smooth="yes"/>
      <point x="442" y="27"/>
      <point x="405" y="31"/>
      <point x="405" y="56" type="curve" smooth="yes"/>
      <point x="405" y="257"/>
      <point x="404" y="458"/>
      <point x="404" y="660" type="curve" smooth="yes"/>
      <point x="404" y="701"/>
      <point x="453" y="698"/>
      <point x="482" y="698" type="curve" smooth="yes"/>
      <point x="508" y="698"/>
      <point x="586" y="699"/>
      <point x="604" y="679" type="curve" smooth="yes"/>
      <point x="617" y="664"/>
      <point x="625" y="648"/>
      <point x="631" y="629" type="curve" smooth="yes"/>
      <point x="636" y="613"/>
      <point x="651" y="536"/>
      <point x="652" y="533" type="curve" smooth="yes"/>
      <point x="655" y="527"/>
      <point x="663" y="527"/>
      <point x="669" y="527" type="curve" smooth="yes"/>
      <point x="678" y="527"/>
      <point x="686" y="533"/>
    </contour>
  </outline>
</glyph>
<glyph name="U" format="2">
  <advance height="1000" width="756"/>
  <unicode hex="0055"/>
  <note>
cid00054
</note>
  <outline>
    <contour>
      <point x="749" y="718" type="curve" smooth="yes"/>
      <point x="749" y="727"/>
      <point x="747" y="736"/>
      <point x="736" y="736" type="curve" smooth="yes"/>
      <point x="719" y="736"/>
      <point x="702" y="734"/>
      <point x="686" y="734" type="curve" smooth="yes"/>
      <point x="653" y="732"/>
      <point x="620" y="732"/>
      <point x="587" y="732" type="curve" smooth="yes"/>
      <point x="567" y="732"/>
      <point x="548" y="735"/>
      <point x="529" y="735" type="curve" smooth="yes"/>
      <point x="516" y="735"/>
      <point x="512" y="729"/>
      <point x="512" y="717" type="curve" smooth="yes"/>
      <point x="512" y="710"/>
      <point x="517" y="702"/>
      <point x="524" y="702" type="curve" smooth="yes"/>
      <point x="541" y="702"/>
      <point x="557" y="703"/>
      <point x="574" y="703" type="curve" smooth="yes"/>
      <point x="588" y="703"/>
      <point x="609" y="696"/>
      <point x="609" y="679" type="curve" smooth="yes"/>
      <point x="609" y="545"/>
      <point x="610" y="410"/>
      <point x="610" y="276" type="curve" smooth="yes"/>
      <point x="610" y="141"/>
      <point x="555" y="32"/>
      <point x="406" y="32" type="curve" smooth="yes"/>
      <point x="251" y="32"/>
      <point x="224" y="111"/>
      <point x="224" y="250" type="curve" smooth="yes"/>
      <point x="224" y="370"/>
      <point x="226" y="490"/>
      <point x="226" y="610" type="curve" smooth="yes"/>
      <point x="226" y="633"/>
      <point x="224" y="658"/>
      <point x="227" y="680" type="curve" smooth="yes"/>
      <point x="230" y="694"/>
      <point x="249" y="704"/>
      <point x="262" y="704" type="curve" smooth="yes"/>
      <point x="279" y="704"/>
      <point x="295" y="703"/>
      <point x="311" y="703" type="curve" smooth="yes"/>
      <point x="321" y="703"/>
      <point x="328" y="710"/>
      <point x="328" y="719" type="curve" smooth="yes"/>
      <point x="328" y="732"/>
      <point x="319" y="735"/>
      <point x="308" y="735" type="curve" smooth="yes"/>
      <point x="262" y="735"/>
      <point x="216" y="731"/>
      <point x="169" y="731" type="curve" smooth="yes"/>
      <point x="140" y="731"/>
      <point x="111" y="731"/>
      <point x="82" y="733" type="curve" smooth="yes"/>
      <point x="68" y="734"/>
      <point x="53" y="735"/>
      <point x="39" y="735" type="curve" smooth="yes"/>
      <point x="30" y="735"/>
      <point x="20" y="731"/>
      <point x="20" y="721" type="curve" smooth="yes"/>
      <point x="20" y="710"/>
      <point x="21" y="704"/>
      <point x="35" y="704" type="curve" smooth="yes"/>
      <point x="57" y="704"/>
      <point x="110" y="711"/>
      <point x="112" y="680" type="curve" smooth="yes"/>
      <point x="114" y="661"/>
      <point x="112" y="640"/>
      <point x="112" y="621" type="curve" smooth="yes"/>
      <point x="112" y="531" type="line" smooth="yes"/>
      <point x="112" y="457"/>
      <point x="112" y="383"/>
      <point x="112" y="309" type="curve" smooth="yes"/>
      <point x="112" y="265" type="line" smooth="yes"/>
      <point x="112" y="79"/>
      <point x="222" y="-7"/>
      <point x="401" y="-7" type="curve" smooth="yes"/>
      <point x="588" y="-7"/>
      <point x="660" y="104"/>
      <point x="660" y="280" type="curve" smooth="yes"/>
      <point x="660" y="398"/>
      <point x="657" y="516"/>
      <point x="657" y="635" type="curve" smooth="yes"/>
      <point x="657" y="680"/>
      <point x="647" y="704"/>
      <point x="704" y="704" type="curve" smooth="yes"/>
      <point x="713" y="704"/>
      <point x="722" y="703"/>
      <point x="730" y="703" type="curve" smooth="yes"/>
      <point x="741" y="703"/>
      <point x="749" y="705"/>
    </contour>
  </outline>
</glyph>
<glyph name="V" format="2">
  <advance height="1000" width="754"/>
  <unicode hex="0056"/>
  <note>
cid00055
</note>
  <outline>
    <contour>
      <point x="749" y="718" type="curve" smooth="yes"/>
      <point x="749" y="727"/>
      <point x="745" y="735"/>
      <point x="735" y="735" type="curve" smooth="yes"/>
      <point x="703" y="735"/>
      <point x="671" y="733"/>
      <point x="639" y="733" type="curve" smooth="yes"/>
      <point x="605" y="733"/>
      <point x="572" y="734"/>
      <point x="538" y="734" type="curve" smooth="yes"/>
      <point x="522" y="734"/>
      <point x="514" y="736"/>
      <point x="514" y="715" type="curve" smooth="yes"/>
      <point x="514" y="708"/>
      <point x="522" y="702"/>
      <point x="529" y="702" type="curve" smooth="yes"/>
      <point x="545" y="702"/>
      <point x="561" y="705"/>
      <point x="578" y="705" type="curve" smooth="yes"/>
      <point x="593" y="705"/>
      <point x="608" y="701"/>
      <point x="608" y="682" type="curve" smooth="yes"/>
      <point x="608" y="681"/>
      <point x="608" y="680"/>
      <point x="608" y="679" type="curve"/>
      <point x="549" y="488"/>
      <point x="481" y="301"/>
      <point x="416" y="113" type="curve"/>
      <point x="350" y="290"/>
      <point x="283" y="468"/>
      <point x="223" y="648" type="curve" smooth="yes"/>
      <point x="221" y="654"/>
      <point x="210" y="685"/>
      <point x="210" y="689" type="curve" smooth="yes"/>
      <point x="210" y="702"/>
      <point x="234" y="703"/>
      <point x="243" y="703" type="curve" smooth="yes"/>
      <point x="257" y="703"/>
      <point x="271" y="701"/>
      <point x="285" y="701" type="curve" smooth="yes"/>
      <point x="298" y="701"/>
      <point x="309" y="704"/>
      <point x="309" y="719" type="curve" smooth="yes"/>
      <point x="309" y="730"/>
      <point x="301" y="734"/>
      <point x="292" y="734" type="curve" smooth="yes"/>
      <point x="232" y="734"/>
      <point x="172" y="732"/>
      <point x="112" y="732" type="curve" smooth="yes"/>
      <point x="83" y="732"/>
      <point x="53" y="734"/>
      <point x="23" y="734" type="curve" smooth="yes"/>
      <point x="10" y="734"/>
      <point x="7" y="728"/>
      <point x="7" y="715" type="curve" smooth="yes"/>
      <point x="7" y="701"/>
      <point x="20" y="701"/>
      <point x="30" y="701" type="curve" smooth="yes"/>
      <point x="57" y="701"/>
      <point x="71" y="701"/>
      <point x="88" y="678" type="curve" smooth="yes"/>
      <point x="101" y="660"/>
      <point x="109" y="637"/>
      <point x="117" y="616" type="curve" smooth="yes"/>
      <point x="168" y="478"/>
      <point x="222" y="340"/>
      <point x="274" y="201" type="curve" smooth="yes"/>
      <point x="297" y="141"/>
      <point x="317" y="79"/>
      <point x="342" y="20" type="curve" smooth="yes"/>
      <point x="349" y="4"/>
      <point x="360" y="-1"/>
      <point x="376" y="-1" type="curve" smooth="yes"/>
      <point x="423" y="-2" type="line"/>
      <point x="477" y="150"/>
      <point x="531" y="303"/>
      <point x="585" y="455" type="curve" smooth="yes"/>
      <point x="639" y="606" type="line" smooth="yes"/>
      <point x="647" y="630"/>
      <point x="655" y="653"/>
      <point x="664" y="677" type="curve" smooth="yes"/>
      <point x="671" y="694"/>
      <point x="688" y="702"/>
      <point x="706" y="702" type="curve" smooth="yes"/>
      <point x="712" y="702"/>
      <point x="718" y="701"/>
      <point x="724" y="701" type="curve" smooth="yes"/>
      <point x="736" y="701"/>
      <point x="749" y="702"/>
    </contour>
  </outline>
</glyph>
<glyph name="W" format="2">
  <advance height="1000" width="1000"/>
  <unicode hex="0057"/>
  <note>
cid00056
</note>
  <outline>
    <contour>
      <point x="997" y="718" type="curve" smooth="yes"/>
      <point x="997" y="725"/>
      <point x="991" y="737"/>
      <point x="983" y="737" type="curve" smooth="yes"/>
      <point x="954" y="737"/>
      <point x="924" y="734"/>
      <point x="896" y="734" type="curve" smooth="yes"/>
      <point x="863" y="734"/>
      <point x="830" y="735"/>
      <point x="797" y="735" type="curve" smooth="yes"/>
      <point x="787" y="736"/>
      <point x="777" y="737"/>
      <point x="767" y="737" type="curve" smooth="yes"/>
      <point x="759" y="737"/>
      <point x="750" y="729"/>
      <point x="750" y="721" type="curve" smooth="yes"/>
      <point x="750" y="711"/>
      <point x="755" y="704"/>
      <point x="766" y="704" type="curve" smooth="yes"/>
      <point x="783" y="704"/>
      <point x="801" y="707"/>
      <point x="819" y="707" type="curve" smooth="yes"/>
      <point x="832" y="707"/>
      <point x="849" y="704"/>
      <point x="849" y="687" type="curve" smooth="yes"/>
      <point x="849" y="670"/>
      <point x="846" y="653"/>
      <point x="844" y="635" type="curve" smooth="yes"/>
      <point x="816" y="464"/>
      <point x="777" y="283"/>
      <point x="740" y="120" type="curve"/>
      <point x="702" y="251"/>
      <point x="663" y="382"/>
      <point x="625" y="513" type="curve" smooth="yes"/>
      <point x="612" y="557"/>
      <point x="599" y="601"/>
      <point x="587" y="646" type="curve" smooth="yes"/>
      <point x="581" y="667"/>
      <point x="576" y="692"/>
      <point x="567" y="712" type="curve" smooth="yes"/>
      <point x="561" y="726"/>
      <point x="552" y="729"/>
      <point x="537" y="729" type="curve" smooth="yes"/>
      <point x="519" y="729"/>
      <point x="514" y="725"/>
      <point x="509" y="709" type="curve" smooth="yes"/>
      <point x="489" y="652"/>
      <point x="473" y="595"/>
      <point x="455" y="538" type="curve" smooth="yes"/>
      <point x="410" y="401"/>
      <point x="366" y="264"/>
      <point x="320" y="128" type="curve"/>
      <point x="298" y="244"/>
      <point x="273" y="359"/>
      <point x="251" y="474" type="curve" smooth="yes"/>
      <point x="239" y="536"/>
      <point x="227" y="599"/>
      <point x="215" y="662" type="curve"/>
      <point x="213" y="668"/>
      <point x="213" y="673"/>
      <point x="213" y="679" type="curve" smooth="yes"/>
      <point x="213" y="701"/>
      <point x="228" y="703"/>
      <point x="245" y="703" type="curve" smooth="yes"/>
      <point x="262" y="703"/>
      <point x="306" y="695"/>
      <point x="306" y="718" type="curve" smooth="yes"/>
      <point x="306" y="728"/>
      <point x="297" y="735"/>
      <point x="288" y="735" type="curve" smooth="yes"/>
      <point x="265" y="735"/>
      <point x="243" y="732"/>
      <point x="221" y="732" type="curve" smooth="yes"/>
      <point x="160" y="732" type="line" smooth="yes"/>
      <point x="129" y="732"/>
      <point x="99" y="732"/>
      <point x="69" y="733" type="curve" smooth="yes"/>
      <point x="54" y="734"/>
      <point x="39" y="736"/>
      <point x="24" y="736" type="curve" smooth="yes"/>
      <point x="14" y="736"/>
      <point x="7" y="730"/>
      <point x="7" y="720" type="curve" smooth="yes"/>
      <point x="7" y="708"/>
      <point x="13" y="699"/>
      <point x="26" y="699" type="curve" smooth="yes"/>
      <point x="58" y="699"/>
      <point x="81" y="702"/>
      <point x="91" y="664" type="curve" smooth="yes"/>
      <point x="105" y="613"/>
      <point x="116" y="561"/>
      <point x="127" y="510" type="curve" smooth="yes"/>
      <point x="201" y="174" type="line" smooth="yes"/>
      <point x="214" y="115"/>
      <point x="224" y="55"/>
      <point x="239" y="-3" type="curve"/>
      <point x="328" y="-4" type="line"/>
      <point x="390" y="171"/>
      <point x="448" y="348"/>
      <point x="507" y="524" type="curve"/>
      <point x="561" y="349"/>
      <point x="615" y="173"/>
      <point x="665" y="-3" type="curve"/>
      <point x="763" y="-3" type="line"/>
      <point x="813" y="210"/>
      <point x="856" y="425"/>
      <point x="905" y="638" type="curve" smooth="yes"/>
      <point x="911" y="662"/>
      <point x="920" y="702"/>
      <point x="950" y="702" type="curve" smooth="yes"/>
      <point x="960" y="702"/>
      <point x="971" y="700"/>
      <point x="981" y="700" type="curve" smooth="yes"/>
      <point x="989" y="700"/>
      <point x="997" y="710"/>
    </contour>
  </outline>
</glyph>
<glyph name="X" format="2">
  <advance height="1000" width="765"/>
  <unicode hex="0058"/>
  <note>
cid00057
</note>
  <outline>
    <contour>
      <point x="774" y="18" type="curve" smooth="yes"/>
      <point x="774" y="28"/>
      <point x="766" y="40"/>
      <point x="755" y="40" type="curve" smooth="yes"/>
      <point x="746" y="40"/>
      <point x="737" y="38"/>
      <point x="728" y="38" type="curve" smooth="yes"/>
      <point x="708" y="38"/>
      <point x="688" y="40"/>
      <point x="674" y="57" type="curve" smooth="yes"/>
      <point x="638" y="100"/>
      <point x="605" y="147"/>
      <point x="573" y="193" type="curve" smooth="yes"/>
      <point x="526" y="261"/>
      <point x="480" y="330"/>
      <point x="432" y="397" type="curve"/>
      <point x="497" y="483"/>
      <point x="560" y="571"/>
      <point x="620" y="659" type="curve" smooth="yes"/>
      <point x="628" y="670"/>
      <point x="642" y="685"/>
      <point x="653" y="691" type="curve" smooth="yes"/>
      <point x="680" y="707"/>
      <point x="739" y="689"/>
      <point x="739" y="719" type="curve" smooth="yes"/>
      <point x="739" y="732"/>
      <point x="732" y="736"/>
      <point x="719" y="736" type="curve" smooth="yes"/>
      <point x="679" y="736"/>
      <point x="638" y="733"/>
      <point x="598" y="733" type="curve" smooth="yes"/>
      <point x="565" y="733"/>
      <point x="532" y="734"/>
      <point x="499" y="734" type="curve" smooth="yes"/>
      <point x="490" y="734"/>
      <point x="478" y="731"/>
      <point x="478" y="720" type="curve" smooth="yes"/>
      <point x="478" y="707"/>
      <point x="482" y="702"/>
      <point x="496" y="702" type="curve" smooth="yes"/>
      <point x="512" y="702"/>
      <point x="527" y="705"/>
      <point x="543" y="705" type="curve" smooth="yes"/>
      <point x="551" y="705"/>
      <point x="565" y="704"/>
      <point x="565" y="694" type="curve" smooth="yes"/>
      <point x="565" y="659"/>
      <point x="437" y="470"/>
      <point x="410" y="428" type="curve"/>
      <point x="357" y="521"/>
      <point x="302" y="613"/>
      <point x="246" y="704" type="curve" smooth="yes"/>
      <point x="237" y="717"/>
      <point x="225" y="736"/>
      <point x="207" y="736" type="curve" smooth="yes"/>
      <point x="169" y="736"/>
      <point x="128" y="730"/>
      <point x="90" y="727" type="curve" smooth="yes"/>
      <point x="73" y="725"/>
      <point x="53" y="726"/>
      <point x="36" y="722" type="curve" smooth="yes"/>
      <point x="26" y="720"/>
      <point x="23" y="715"/>
      <point x="23" y="705" type="curve" smooth="yes"/>
      <point x="23" y="691"/>
      <point x="35" y="686"/>
      <point x="47" y="686" type="curve" smooth="yes"/>
      <point x="62" y="686"/>
      <point x="76" y="689"/>
      <point x="91" y="689" type="curve" smooth="yes"/>
      <point x="111" y="689"/>
      <point x="118" y="686"/>
      <point x="130" y="669" type="curve" smooth="yes"/>
      <point x="205" y="562"/>
      <point x="274" y="451"/>
      <point x="346" y="342" type="curve"/>
      <point x="296" y="266"/>
      <point x="242" y="194"/>
      <point x="185" y="123" type="curve" smooth="yes"/>
      <point x="167" y="99"/>
      <point x="145" y="77"/>
      <point x="122" y="57" type="curve" smooth="yes"/>
      <point x="97" y="36"/>
      <point x="77" y="33"/>
      <point x="45" y="33" type="curve" smooth="yes"/>
      <point x="29" y="33"/>
      <point x="9" y="39"/>
      <point x="9" y="14" type="curve" smooth="yes"/>
      <point x="9" y="4"/>
      <point x="18" y="-2"/>
      <point x="28" y="-2" type="curve" smooth="yes"/>
      <point x="75" y="-2"/>
      <point x="122" y="2"/>
      <point x="169" y="2" type="curve" smooth="yes"/>
      <point x="200" y="2"/>
      <point x="231" y="0"/>
      <point x="261" y="0" type="curve" smooth="yes"/>
      <point x="279" y="0"/>
      <point x="301" y="-5"/>
      <point x="301" y="18" type="curve" smooth="yes"/>
      <point x="301" y="26"/>
      <point x="294" y="33"/>
      <point x="286" y="33" type="curve" smooth="yes"/>
      <point x="267" y="33"/>
      <point x="211" y="28"/>
      <point x="211" y="57" type="curve" smooth="yes"/>
      <point x="211" y="67"/>
      <point x="352" y="278"/>
      <point x="371" y="308" type="curve"/>
      <point x="431" y="213"/>
      <point x="495" y="120"/>
      <point x="544" y="19" type="curve" smooth="yes"/>
      <point x="551" y="4"/>
      <point x="559" y="1"/>
      <point x="575" y="1" type="curve" smooth="yes"/>
      <point x="612" y="1"/>
      <point x="650" y="2"/>
      <point x="688" y="1" type="curve" smooth="yes"/>
      <point x="708" y="1"/>
      <point x="729" y="-1"/>
      <point x="750" y="-1" type="curve" smooth="yes"/>
      <point x="762" y="-1"/>
      <point x="774" y="4"/>
    </contour>
  </outline>
</glyph>
<glyph name="Z" format="2">
  <advance height="1000" width="645"/>
  <unicode hex="005A"/>
  <note>
cid00059
</note>
  <outline>
    <contour>
      <point x="626" y="229" type="curve" smooth="yes"/>
      <point x="626" y="239"/>
      <point x="617" y="242"/>
      <point x="609" y="242" type="curve" smooth="yes"/>
      <point x="604" y="242"/>
      <point x="597" y="241"/>
      <point x="593" y="237" type="curve" smooth="yes"/>
      <point x="591" y="234"/>
      <point x="590" y="229"/>
      <point x="589" y="225" type="curve" smooth="yes"/>
      <point x="565" y="146"/>
      <point x="515" y="58"/>
      <point x="425" y="47" type="curve" smooth="yes"/>
      <point x="361" y="40"/>
      <point x="290" y="37"/>
      <point x="225" y="37" type="curve" smooth="yes"/>
      <point x="210" y="37"/>
      <point x="162" y="35"/>
      <point x="162" y="59" type="curve" smooth="yes"/>
      <point x="162" y="74"/>
      <point x="183" y="102"/>
      <point x="193" y="115" type="curve" smooth="yes"/>
      <point x="603" y="686" type="line" smooth="yes"/>
      <point x="609" y="694"/>
      <point x="616" y="703"/>
      <point x="616" y="715" type="curve" smooth="yes"/>
      <point x="616" y="733"/>
      <point x="600" y="735"/>
      <point x="585" y="735" type="curve" smooth="yes"/>
      <point x="463" y="735"/>
      <point x="333" y="730"/>
      <point x="211" y="730" type="curve" smooth="yes"/>
      <point x="187" y="730"/>
      <point x="164" y="729"/>
      <point x="140" y="729" type="curve" smooth="yes"/>
      <point x="124" y="729"/>
      <point x="107" y="730"/>
      <point x="91" y="730" type="curve" smooth="yes"/>
      <point x="64" y="730"/>
      <point x="51" y="726"/>
      <point x="51" y="699" type="curve" smooth="yes"/>
      <point x="51" y="646"/>
      <point x="45" y="580"/>
      <point x="45" y="534" type="curve" smooth="yes"/>
      <point x="45" y="524"/>
      <point x="56" y="521"/>
      <point x="65" y="521" type="curve" smooth="yes"/>
      <point x="77" y="521"/>
      <point x="83" y="533"/>
      <point x="86" y="543" type="curve" smooth="yes"/>
      <point x="90" y="558"/>
      <point x="92" y="574"/>
      <point x="98" y="589" type="curve" smooth="yes"/>
      <point x="115" y="631"/>
      <point x="153" y="673"/>
      <point x="198" y="686" type="curve" smooth="yes"/>
      <point x="234" y="697"/>
      <point x="361" y="700"/>
      <point x="404" y="700" type="curve" smooth="yes"/>
      <point x="415" y="700"/>
      <point x="455" y="698"/>
      <point x="455" y="683" type="curve" smooth="yes"/>
      <point x="455" y="663"/>
      <point x="440" y="638"/>
      <point x="429" y="622" type="curve" smooth="yes"/>
      <point x="342" y="487"/>
      <point x="244" y="354"/>
      <point x="150" y="223" type="curve" smooth="yes"/>
      <point x="61" y="98" type="line" smooth="yes"/>
      <point x="48" y="80"/>
      <point x="34" y="63"/>
      <point x="23" y="44" type="curve" smooth="yes"/>
      <point x="20" y="38"/>
      <point x="19" y="33"/>
      <point x="19" y="26" type="curve" smooth="yes"/>
      <point x="19" y="3"/>
      <point x="33" y="-4"/>
      <point x="54" y="-4" type="curve" smooth="yes"/>
      <point x="81" y="-4"/>
      <point x="108" y="-2"/>
      <point x="135" y="-1" type="curve" smooth="yes"/>
      <point x="190" y="1"/>
      <point x="245" y="2"/>
      <point x="300" y="2" type="curve" smooth="yes"/>
      <point x="379" y="2"/>
      <point x="463" y="3"/>
      <point x="542" y="3" type="curve" smooth="yes"/>
      <point x="552" y="3"/>
      <point x="563" y="3"/>
      <point x="573" y="-1" type="curve"/>
      <point x="577" y="-1"/>
      <point x="581" y="-1"/>
      <point x="585" y="-1" type="curve" smooth="yes"/>
      <point x="596" y="-1"/>
      <point x="602" y="0"/>
      <point x="603" y="12" type="curve" smooth="yes"/>
      <point x="607" y="38"/>
      <point x="605" y="67"/>
      <point x="608" y="93" type="curve" smooth="yes"/>
      <point x="612" y="123"/>
      <point x="616" y="153"/>
      <point x="620" y="183" type="curve" smooth="yes"/>
      <point x="621" y="198"/>
      <point x="626" y="213"/>
    </contour>
  </outline>
</glyph>
<glyph name="bracketleft" format="2">
  <advance height="1000" width="450"/>
  <unicode hex="005B"/>
  <note>
cid00060
</note>
  <outline>
    <contour>
      <point x="432" y="-99" type="line"/>
      <point x="432" y="-60" type="line"/>
      <point x="253" y="-60" type="line"/>
      <point x="253" y="814" type="line"/>
      <point x="432" y="814" type="line"/>
      <point x="432" y="854" type="line"/>
      <point x="172" y="854" type="line"/>
      <point x="172" y="-99" type="line"/>
    </contour>
  </outline>
</glyph>
<glyph name="backslash" format="2">
  <advance height="1000" width="500"/>
  <unicode hex="005C"/>
  <note>
cid00097
</note>
  <outline>
    <contour>
      <point x="467" y="-62" type="line"/>
      <point x="95" y="771" type="line"/>
      <point x="33" y="736" type="line"/>
      <point x="407" y="-95" type="line"/>
    </contour>
  </outline>
</glyph>
<glyph name="bracketright" format="2">
  <advance height="1000" width="450"/>
  <unicode hex="005D"/>
  <note>
cid00062
</note>
  <outline>
    <contour>
      <point x="426" y="-99" type="line"/>
      <point x="426" y="854" type="line"/>
      <point x="167" y="854" type="line"/>
      <point x="167" y="814" type="line"/>
      <point x="345" y="814" type="line"/>
      <point x="345" y="-60" type="line"/>
      <point x="167" y="-60" type="line"/>
      <point x="167" y="-99" type="line"/>
    </contour>
  </outline>
</glyph>
<glyph name="asciicircum" format="2">
  <advance height="1000" width="560"/>
  <unicode hex="005E"/>
  <note>
cid00063
</note>
  <outline>
    <contour>
      <point x="520" y="477" type="line"/>
      <point x="322" y="737" type="line"/>
      <point x="237" y="737" type="line"/>
      <point x="40" y="477" type="line"/>
      <point x="122" y="477" type="line"/>
      <point x="279" y="692" type="line"/>
      <point x="434" y="477" type="line"/>
    </contour>
  </outline>
</glyph>
<glyph name="grave" format="2">
  <advance height="1000" width="390"/>
  <unicode hex="0060"/>
  <note>
cid00065
</note>
  <outline>
    <contour>
      <point x="269" y="590" type="curve" smooth="yes"/>
      <point x="269" y="610"/>
      <point x="228" y="806"/>
      <point x="220" y="824" type="curve" smooth="yes"/>
      <point x="212" y="842"/>
      <point x="197" y="849"/>
      <point x="177" y="849" type="curve" smooth="yes"/>
      <point x="153" y="849"/>
      <point x="121" y="835"/>
      <point x="121" y="807" type="curve" smooth="yes"/>
      <point x="121" y="802"/>
      <point x="123" y="797"/>
      <point x="124" y="792" type="curve" smooth="yes"/>
      <point x="128" y="781"/>
      <point x="135" y="770"/>
      <point x="141" y="759" type="curve" smooth="yes"/>
      <point x="160" y="725"/>
      <point x="220" y="600"/>
      <point x="239" y="582" type="curve" smooth="yes"/>
      <point x="244" y="578"/>
      <point x="250" y="575"/>
      <point x="256" y="575" type="curve" smooth="yes"/>
      <point x="264" y="575"/>
      <point x="269" y="583"/>
    </contour>
  </outline>
</glyph>
<glyph name="b" format="2">
  <advance height="1000" width="610"/>
  <unicode hex="0062"/>
  <note>
cid00067
</note>
  <outline>
    <contour>
      <point x="472" y="284" type="curve" smooth="yes"/>
      <point x="472" y="165"/>
      <point x="421" y="29"/>
      <point x="282" y="29" type="curve" smooth="yes"/>
      <point x="263" y="29"/>
      <point x="227" y="36"/>
      <point x="218" y="54" type="curve" smooth="yes"/>
      <point x="209" y="71"/>
      <point x="212" y="149"/>
      <point x="212" y="171" type="curve" smooth="yes"/>
      <point x="212" y="238"/>
      <point x="213" y="305"/>
      <point x="213" y="371" type="curve" smooth="yes"/>
      <point x="213" y="406"/>
      <point x="228" y="436"/>
      <point x="253" y="460" type="curve" smooth="yes"/>
      <point x="270" y="476"/>
      <point x="309" y="494"/>
      <point x="333" y="494" type="curve" smooth="yes"/>
      <point x="445" y="494"/>
      <point x="472" y="374"/>
    </contour>
    <contour>
      <point x="584" y="283" type="curve" smooth="yes"/>
      <point x="584" y="416"/>
      <point x="510" y="536"/>
      <point x="365" y="536" type="curve" smooth="yes"/>
      <point x="312" y="536"/>
      <point x="253" y="512"/>
      <point x="212" y="479" type="curve"/>
      <point x="212" y="748" type="line" smooth="yes"/>
      <point x="212" y="758"/>
      <point x="216" y="773"/>
      <point x="200" y="773" type="curve" smooth="yes"/>
      <point x="186" y="773"/>
      <point x="154" y="763"/>
      <point x="138" y="760" type="curve" smooth="yes"/>
      <point x="103" y="753"/>
      <point x="67" y="748"/>
      <point x="33" y="740" type="curve" smooth="yes"/>
      <point x="26" y="739"/>
      <point x="15" y="734"/>
      <point x="15" y="725" type="curve" smooth="yes"/>
      <point x="15" y="716"/>
      <point x="24" y="713"/>
      <point x="32" y="713" type="curve" smooth="yes"/>
      <point x="50" y="713"/>
      <point x="68" y="716"/>
      <point x="87" y="716" type="curve" smooth="yes"/>
      <point x="112" y="716"/>
      <point x="111" y="701"/>
      <point x="111" y="681" type="curve" smooth="yes"/>
      <point x="112" y="527"/>
      <point x="114" y="372"/>
      <point x="114" y="218" type="curve" smooth="yes"/>
      <point x="114" y="167"/>
      <point x="116" y="103"/>
      <point x="109" y="53" type="curve"/>
      <point x="109" y="48"/>
      <point x="108" y="43"/>
      <point x="108" y="38" type="curve" smooth="yes"/>
      <point x="108" y="24"/>
      <point x="117" y="18"/>
      <point x="131" y="18" type="curve" smooth="yes"/>
      <point x="141" y="18"/>
      <point x="151" y="20"/>
      <point x="162" y="20" type="curve" smooth="yes"/>
      <point x="204" y="20"/>
      <point x="255" y="-1"/>
      <point x="302" y="-1" type="curve" smooth="yes"/>
      <point x="467" y="-1"/>
      <point x="584" y="119"/>
    </contour>
  </outline>
</glyph>
<glyph name="c" format="2">
  <advance height="1000" width="540"/>
  <unicode hex="0063"/>
  <note>
cid00068
</note>
  <outline>
    <contour>
      <point x="527" y="126" type="curve" smooth="yes"/>
      <point x="527" y="137"/>
      <point x="518" y="143"/>
      <point x="508" y="143" type="curve" smooth="yes"/>
      <point x="503" y="143"/>
      <point x="499" y="140"/>
      <point x="496" y="137" type="curve" smooth="yes"/>
      <point x="483" y="124"/>
      <point x="473" y="108"/>
      <point x="460" y="96" type="curve" smooth="yes"/>
      <point x="417" y="55"/>
      <point x="367" y="38"/>
      <point x="309" y="38" type="curve" smooth="yes"/>
      <point x="190" y="38"/>
      <point x="147" y="167"/>
      <point x="147" y="266" type="curve" smooth="yes"/>
      <point x="147" y="366"/>
      <point x="192" y="516"/>
      <point x="315" y="516" type="curve" smooth="yes"/>
      <point x="340" y="516"/>
      <point x="368" y="501"/>
      <point x="386" y="485" type="curve" smooth="yes"/>
      <point x="418" y="457"/>
      <point x="436" y="408"/>
      <point x="447" y="368" type="curve" smooth="yes"/>
      <point x="450" y="358"/>
      <point x="454" y="344"/>
      <point x="466" y="344" type="curve" smooth="yes"/>
      <point x="477" y="344"/>
      <point x="491" y="349"/>
      <point x="491" y="363" type="curve" smooth="yes"/>
      <point x="491" y="366"/>
      <point x="491" y="369"/>
      <point x="491" y="372" type="curve" smooth="yes"/>
      <point x="489" y="404"/>
      <point x="487" y="436"/>
      <point x="485" y="469" type="curve" smooth="yes"/>
      <point x="485" y="482"/>
      <point x="485" y="497"/>
      <point x="483" y="511" type="curve"/>
      <point x="482" y="513"/>
      <point x="480" y="515"/>
      <point x="477" y="515" type="curve" smooth="yes"/>
      <point x="470" y="515"/>
      <point x="458" y="500"/>
      <point x="446" y="500" type="curve" smooth="yes"/>
      <point x="428" y="500"/>
      <point x="398" y="518"/>
      <point x="379" y="525" type="curve" smooth="yes"/>
      <point x="354" y="535"/>
      <point x="328" y="541"/>
      <point x="301" y="541" type="curve" smooth="yes"/>
      <point x="256" y="541"/>
      <point x="206" y="527"/>
      <point x="167" y="503" type="curve" smooth="yes"/>
      <point x="81" y="450"/>
      <point x="43" y="358"/>
      <point x="43" y="259" type="curve" smooth="yes"/>
      <point x="43" y="106"/>
      <point x="149" y="0"/>
      <point x="302" y="0" type="curve" smooth="yes"/>
      <point x="355" y="0"/>
      <point x="420" y="23"/>
      <point x="462" y="53" type="curve" smooth="yes"/>
      <point x="481" y="67"/>
      <point x="513" y="99"/>
      <point x="525" y="118" type="curve"/>
      <point x="526" y="121"/>
      <point x="527" y="123"/>
    </contour>
  </outline>
</glyph>
<glyph name="d" format="2">
  <advance height="1000" width="606"/>
  <unicode hex="0064"/>
  <note>
cid00069
</note>
  <outline>
    <contour>
      <point x="409" y="373" type="curve" smooth="yes"/>
      <point x="409" y="182" type="line" smooth="yes"/>
      <point x="409" y="142"/>
      <point x="392" y="106"/>
      <point x="363" y="78" type="curve" smooth="yes"/>
      <point x="344" y="59"/>
      <point x="313" y="40"/>
      <point x="286" y="40" type="curve" smooth="yes"/>
      <point x="175" y="40"/>
      <point x="148" y="170"/>
      <point x="148" y="258" type="curve" smooth="yes"/>
      <point x="148" y="356"/>
      <point x="179" y="501"/>
      <point x="303" y="501" type="curve" smooth="yes"/>
      <point x="373" y="501"/>
      <point x="409" y="436"/>
    </contour>
    <contour>
      <point x="602" y="39" type="curve" smooth="yes"/>
      <point x="602" y="44"/>
      <point x="599" y="50"/>
      <point x="593" y="50" type="curve" smooth="yes"/>
      <point x="584" y="50"/>
      <point x="571" y="43"/>
      <point x="558" y="43" type="curve" smooth="yes"/>
      <point x="518" y="43"/>
      <point x="510" y="86"/>
      <point x="510" y="118" type="curve" smooth="yes"/>
      <point x="510" y="286" type="line" smooth="yes"/>
      <point x="510" y="445"/>
      <point x="512" y="604"/>
      <point x="512" y="763" type="curve" smooth="yes"/>
      <point x="512" y="772"/>
      <point x="506" y="776"/>
      <point x="497" y="776" type="curve" smooth="yes"/>
      <point x="495" y="776"/>
      <point x="492" y="776"/>
      <point x="489" y="775" type="curve" smooth="yes"/>
      <point x="461" y="767"/>
      <point x="433" y="761"/>
      <point x="404" y="756" type="curve" smooth="yes"/>
      <point x="376" y="752"/>
      <point x="347" y="749"/>
      <point x="318" y="743" type="curve" smooth="yes"/>
      <point x="310" y="742"/>
      <point x="300" y="740"/>
      <point x="300" y="729" type="curve" smooth="yes"/>
      <point x="300" y="722"/>
      <point x="311" y="717"/>
      <point x="317" y="717" type="curve" smooth="yes"/>
      <point x="330" y="717"/>
      <point x="342" y="718"/>
      <point x="355" y="718" type="curve" smooth="yes"/>
      <point x="389" y="718"/>
      <point x="407" y="720"/>
      <point x="407" y="680" type="curve" smooth="yes"/>
      <point x="407" y="497" type="line"/>
      <point x="381" y="515"/>
      <point x="332" y="534"/>
      <point x="301" y="534" type="curve" smooth="yes"/>
      <point x="134" y="534"/>
      <point x="41" y="413"/>
      <point x="41" y="253" type="curve" smooth="yes"/>
      <point x="41" y="165"/>
      <point x="81" y="77"/>
      <point x="157" y="29" type="curve" smooth="yes"/>
      <point x="192" y="7"/>
      <point x="240" y="3"/>
      <point x="281" y="3" type="curve" smooth="yes"/>
      <point x="335" y="3"/>
      <point x="388" y="37"/>
      <point x="417" y="82" type="curve"/>
      <point x="434" y="39"/>
      <point x="457" y="-2"/>
      <point x="509" y="-2" type="curve" smooth="yes"/>
      <point x="529" y="-2"/>
      <point x="602" y="13"/>
    </contour>
  </outline>
</glyph>
<glyph name="e" format="2">
  <advance height="1000" width="545"/>
  <unicode hex="0065"/>
  <note>
cid00070
</note>
  <outline>
    <contour>
      <point x="397" y="354" type="curve"/>
      <point x="348" y="352"/>
      <point x="298" y="350"/>
      <point x="249" y="350" type="curve" smooth="yes"/>
      <point x="219" y="350"/>
      <point x="189" y="351"/>
      <point x="160" y="352" type="curve"/>
      <point x="174" y="426"/>
      <point x="208" y="514"/>
      <point x="297" y="514" type="curve" smooth="yes"/>
      <point x="393" y="514"/>
      <point x="396" y="428"/>
    </contour>
    <contour>
      <point x="525" y="122" type="curve" smooth="yes"/>
      <point x="525" y="131"/>
      <point x="516" y="140"/>
      <point x="507" y="140" type="curve" smooth="yes"/>
      <point x="500" y="140"/>
      <point x="495" y="137"/>
      <point x="491" y="132" type="curve" smooth="yes"/>
      <point x="480" y="119"/>
      <point x="471" y="105"/>
      <point x="458" y="93" type="curve" smooth="yes"/>
      <point x="414" y="54"/>
      <point x="361" y="38"/>
      <point x="303" y="38" type="curve" smooth="yes"/>
      <point x="189" y="38"/>
      <point x="151" y="165"/>
      <point x="151" y="258" type="curve" smooth="yes"/>
      <point x="151" y="279"/>
      <point x="153" y="299"/>
      <point x="154" y="320" type="curve"/>
      <point x="197" y="321"/>
      <point x="240" y="321"/>
      <point x="283" y="321" type="curve" smooth="yes"/>
      <point x="318" y="321"/>
      <point x="353" y="320"/>
      <point x="389" y="319" type="curve" smooth="yes"/>
      <point x="415" y="318"/>
      <point x="442" y="316"/>
      <point x="469" y="316" type="curve" smooth="yes"/>
      <point x="491" y="316"/>
      <point x="505" y="319"/>
      <point x="505" y="344" type="curve" smooth="yes"/>
      <point x="505" y="466"/>
      <point x="422" y="542"/>
      <point x="302" y="542" type="curve" smooth="yes"/>
      <point x="257" y="542"/>
      <point x="204" y="526"/>
      <point x="165" y="502" type="curve" smooth="yes"/>
      <point x="79" y="449"/>
      <point x="43" y="359"/>
      <point x="43" y="260" type="curve" smooth="yes"/>
      <point x="43" y="173"/>
      <point x="75" y="88"/>
      <point x="150" y="39" type="curve" smooth="yes"/>
      <point x="190" y="13"/>
      <point x="249" y="-3"/>
      <point x="296" y="-3" type="curve" smooth="yes"/>
      <point x="352" y="-3"/>
      <point x="408" y="16"/>
      <point x="454" y="48" type="curve" smooth="yes"/>
      <point x="472" y="61"/>
      <point x="513" y="96"/>
      <point x="523" y="115" type="curve" smooth="yes"/>
      <point x="524" y="117"/>
      <point x="525" y="120"/>
    </contour>
  </outline>
</glyph>
<glyph name="f" format="2">
  <advance height="1000" width="390"/>
  <unicode hex="0066"/>
  <note>
cid00071
</note>
  <outline>
    <contour>
      <point x="413" y="637" type="curve" smooth="yes"/>
      <point x="413" y="668"/>
      <point x="408" y="699"/>
      <point x="407" y="730" type="curve"/>
      <point x="370" y="730"/>
      <point x="338" y="751"/>
      <point x="300" y="751" type="curve" smooth="yes"/>
      <point x="184" y="751"/>
      <point x="113" y="710"/>
      <point x="113" y="585" type="curve" smooth="yes"/>
      <point x="113" y="558"/>
      <point x="113" y="531"/>
      <point x="114" y="504" type="curve"/>
      <point x="65" y="504" type="line" smooth="yes"/>
      <point x="53" y="504"/>
      <point x="26" y="509"/>
      <point x="21" y="497" type="curve" smooth="yes"/>
      <point x="19" y="493"/>
      <point x="15" y="471"/>
      <point x="15" y="466" type="curve" smooth="yes"/>
      <point x="15" y="459"/>
      <point x="19" y="456"/>
      <point x="26" y="456" type="curve" smooth="yes"/>
      <point x="41" y="456"/>
      <point x="36" y="470"/>
      <point x="57" y="470" type="curve" smooth="yes"/>
      <point x="116" y="470" type="line"/>
      <point x="116" y="82" type="line" smooth="yes"/>
      <point x="116" y="52"/>
      <point x="111" y="27"/>
      <point x="76" y="27" type="curve" smooth="yes"/>
      <point x="61" y="27"/>
      <point x="22" y="36"/>
      <point x="22" y="12" type="curve" smooth="yes"/>
      <point x="22" y="-1"/>
      <point x="33" y="-3"/>
      <point x="43" y="-3" type="curve" smooth="yes"/>
      <point x="60" y="-3"/>
      <point x="76" y="0"/>
      <point x="93" y="0" type="curve" smooth="yes"/>
      <point x="114" y="1"/>
      <point x="135" y="1"/>
      <point x="156" y="1" type="curve" smooth="yes"/>
      <point x="201" y="1"/>
      <point x="246" y="-2"/>
      <point x="291" y="-2" type="curve" smooth="yes"/>
      <point x="302" y="-2"/>
      <point x="320" y="-5"/>
      <point x="320" y="13" type="curve" smooth="yes"/>
      <point x="320" y="20"/>
      <point x="315" y="29"/>
      <point x="306" y="29" type="curve" smooth="yes"/>
      <point x="291" y="29"/>
      <point x="277" y="27"/>
      <point x="261" y="27" type="curve" smooth="yes"/>
      <point x="231" y="27"/>
      <point x="222" y="56"/>
      <point x="222" y="82" type="curve" smooth="yes"/>
      <point x="222" y="469" type="line"/>
      <point x="265" y="469" type="line" smooth="yes"/>
      <point x="290" y="469"/>
      <point x="315" y="467"/>
      <point x="340" y="468" type="curve" smooth="yes"/>
      <point x="352" y="468"/>
      <point x="361" y="476"/>
      <point x="361" y="488" type="curve" smooth="yes"/>
      <point x="361" y="499"/>
      <point x="351" y="507"/>
      <point x="340" y="507" type="curve" smooth="yes"/>
      <point x="305" y="507"/>
      <point x="271" y="505"/>
      <point x="236" y="505" type="curve" smooth="yes"/>
      <point x="218" y="506" type="line"/>
      <point x="217" y="550"/>
      <point x="216" y="595"/>
      <point x="216" y="640" type="curve" smooth="yes"/>
      <point x="216" y="683"/>
      <point x="238" y="725"/>
      <point x="285" y="725" type="curve" smooth="yes"/>
      <point x="313" y="725"/>
      <point x="330" y="706"/>
      <point x="339" y="682" type="curve" smooth="yes"/>
      <point x="346" y="663"/>
      <point x="353" y="645"/>
      <point x="361" y="626" type="curve" smooth="yes"/>
      <point x="365" y="615"/>
      <point x="374" y="613"/>
      <point x="385" y="613" type="curve" smooth="yes"/>
      <point x="399" y="613"/>
      <point x="413" y="623"/>
    </contour>
  </outline>
</glyph>
<glyph name="g" format="2">
  <advance height="1000" width="552"/>
  <unicode hex="0067"/>
  <note>
cid00072
</note>
  <outline>
    <contour>
      <point x="404" y="-31" type="curve" smooth="yes"/>
      <point x="404" y="-109"/>
      <point x="344" y="-136"/>
      <point x="275" y="-136" type="curve" smooth="yes"/>
      <point x="202" y="-136"/>
      <point x="129" y="-130"/>
      <point x="129" y="-37" type="curve" smooth="yes"/>
      <point x="129" y="5"/>
      <point x="141" y="33"/>
      <point x="168" y="64" type="curve"/>
      <point x="273" y="56" type="line" smooth="yes"/>
      <point x="331" y="51"/>
      <point x="404" y="46"/>
    </contour>
    <contour>
      <point x="355" y="368" type="curve" smooth="yes"/>
      <point x="355" y="312"/>
      <point x="344" y="219"/>
      <point x="270" y="219" type="curve" smooth="yes"/>
      <point x="179" y="219"/>
      <point x="168" y="295"/>
      <point x="168" y="368" type="curve" smooth="yes"/>
      <point x="168" y="437"/>
      <point x="185" y="518"/>
      <point x="270" y="518" type="curve" smooth="yes"/>
      <point x="344" y="518"/>
      <point x="355" y="424"/>
    </contour>
    <contour>
      <point x="544" y="530" type="curve" smooth="yes"/>
      <point x="544" y="540"/>
      <point x="544" y="569"/>
      <point x="529" y="569" type="curve" smooth="yes"/>
      <point x="525" y="569"/>
      <point x="522" y="566"/>
      <point x="519" y="564" type="curve" smooth="yes"/>
      <point x="482" y="534"/>
      <point x="435" y="521"/>
      <point x="387" y="521" type="curve" smooth="yes"/>
      <point x="382" y="521"/>
      <point x="376" y="521"/>
      <point x="370" y="522" type="curve"/>
      <point x="342" y="536"/>
      <point x="295" y="543"/>
      <point x="265" y="543" type="curve" smooth="yes"/>
      <point x="168" y="543"/>
      <point x="62" y="479"/>
      <point x="62" y="373" type="curve" smooth="yes"/>
      <point x="62" y="297"/>
      <point x="95" y="249"/>
      <point x="163" y="217" type="curve"/>
      <point x="141" y="197"/>
      <point x="120" y="177"/>
      <point x="100" y="155" type="curve" smooth="yes"/>
      <point x="88" y="141"/>
      <point x="74" y="129"/>
      <point x="74" y="108" type="curve" smooth="yes"/>
      <point x="74" y="89"/>
      <point x="104" y="73"/>
      <point x="120" y="67" type="curve"/>
      <point x="82" y="36"/>
      <point x="38" y="-10"/>
      <point x="38" y="-62" type="curve" smooth="yes"/>
      <point x="38" y="-164"/>
      <point x="198" y="-168"/>
      <point x="270" y="-168" type="curve" smooth="yes"/>
      <point x="361" y="-168"/>
      <point x="512" y="-129"/>
      <point x="512" y="-16" type="curve" smooth="yes"/>
      <point x="512" y="66"/>
      <point x="436" y="91"/>
      <point x="367" y="96" type="curve" smooth="yes"/>
      <point x="244" y="106" type="line" smooth="yes"/>
      <point x="223" y="107"/>
      <point x="170" y="110"/>
      <point x="170" y="139" type="curve" smooth="yes"/>
      <point x="170" y="163"/>
      <point x="195" y="183"/>
      <point x="212" y="197" type="curve"/>
      <point x="231" y="196"/>
      <point x="250" y="194"/>
      <point x="270" y="194" type="curve" smooth="yes"/>
      <point x="364" y="194"/>
      <point x="460" y="261"/>
      <point x="460" y="362" type="curve" smooth="yes"/>
      <point x="460" y="412"/>
      <point x="444" y="464"/>
      <point x="403" y="495" type="curve"/>
      <point x="435" y="494"/>
      <point x="467" y="493"/>
      <point x="499" y="493" type="curve" smooth="yes"/>
      <point x="526" y="493"/>
      <point x="544" y="499"/>
    </contour>
  </outline>
</glyph>
<glyph name="h" format="2">
  <advance height="1000" width="636"/>
  <unicode hex="0068"/>
  <note>
cid00073
</note>
  <outline>
    <contour>
      <point x="632" y="12" type="curve" smooth="yes"/>
      <point x="632" y="20"/>
      <point x="625" y="28"/>
      <point x="617" y="28" type="curve" smooth="yes"/>
      <point x="607" y="28"/>
      <point x="596" y="26"/>
      <point x="586" y="26" type="curve" smooth="yes"/>
      <point x="567" y="26"/>
      <point x="558" y="34"/>
      <point x="558" y="53" type="curve" smooth="yes"/>
      <point x="558" y="155"/>
      <point x="560" y="256"/>
      <point x="560" y="358" type="curve" smooth="yes"/>
      <point x="560" y="487"/>
      <point x="517" y="540"/>
      <point x="385" y="540" type="curve" smooth="yes"/>
      <point x="323" y="540"/>
      <point x="246" y="494"/>
      <point x="203" y="451" type="curve"/>
      <point x="204" y="554"/>
      <point x="204" y="657"/>
      <point x="204" y="761" type="curve" smooth="yes"/>
      <point x="204" y="769"/>
      <point x="198" y="774"/>
      <point x="189" y="774" type="curve" smooth="yes"/>
      <point x="167" y="774"/>
      <point x="140" y="764"/>
      <point x="118" y="758" type="curve" smooth="yes"/>
      <point x="89" y="751"/>
      <point x="58" y="748"/>
      <point x="28" y="740" type="curve" smooth="yes"/>
      <point x="20" y="738"/>
      <point x="17" y="735"/>
      <point x="17" y="726" type="curve" smooth="yes"/>
      <point x="17" y="718"/>
      <point x="26" y="716"/>
      <point x="33" y="716" type="curve" smooth="yes"/>
      <point x="52" y="716"/>
      <point x="72" y="720"/>
      <point x="91" y="720" type="curve" smooth="yes"/>
      <point x="108" y="720"/>
      <point x="107" y="697"/>
      <point x="107" y="685" type="curve" smooth="yes"/>
      <point x="108" y="601"/>
      <point x="109" y="517"/>
      <point x="109" y="433" type="curve" smooth="yes"/>
      <point x="109" y="350"/>
      <point x="109" y="266"/>
      <point x="109" y="182" type="curve" smooth="yes"/>
      <point x="109" y="140"/>
      <point x="110" y="96"/>
      <point x="108" y="53" type="curve" smooth="yes"/>
      <point x="107" y="31"/>
      <point x="88" y="28"/>
      <point x="70" y="28" type="curve" smooth="yes"/>
      <point x="61" y="28"/>
      <point x="51" y="29"/>
      <point x="42" y="29" type="curve" smooth="yes"/>
      <point x="35" y="29"/>
      <point x="26" y="24"/>
      <point x="26" y="16" type="curve" smooth="yes"/>
      <point x="26" y="7"/>
      <point x="32" y="-1"/>
      <point x="41" y="-1" type="curve" smooth="yes"/>
      <point x="47" y="-1"/>
      <point x="53" y="0"/>
      <point x="58" y="1" type="curve" smooth="yes"/>
      <point x="81" y="3"/>
      <point x="105" y="2"/>
      <point x="128" y="2" type="curve" smooth="yes"/>
      <point x="172" y="2"/>
      <point x="216" y="0"/>
      <point x="261" y="0" type="curve" smooth="yes"/>
      <point x="267" y="0"/>
      <point x="277" y="4"/>
      <point x="277" y="11" type="curve" smooth="yes"/>
      <point x="277" y="21"/>
      <point x="272" y="28"/>
      <point x="261" y="28" type="curve" smooth="yes"/>
      <point x="249" y="28"/>
      <point x="237" y="26"/>
      <point x="225" y="26" type="curve" smooth="yes"/>
      <point x="221" y="26" type="line" smooth="yes"/>
      <point x="207" y="26"/>
      <point x="204" y="42"/>
      <point x="203" y="53" type="curve" smooth="yes"/>
      <point x="202" y="71"/>
      <point x="202" y="89"/>
      <point x="202" y="107" type="curve" smooth="yes"/>
      <point x="202" y="168"/>
      <point x="202" y="229"/>
      <point x="203" y="290" type="curve" smooth="yes"/>
      <point x="203" y="363"/>
      <point x="203" y="384"/>
      <point x="253" y="440" type="curve" smooth="yes"/>
      <point x="281" y="473"/>
      <point x="325" y="502"/>
      <point x="369" y="502" type="curve" smooth="yes"/>
      <point x="404" y="502"/>
      <point x="436" y="479"/>
      <point x="447" y="447" type="curve" smooth="yes"/>
      <point x="462" y="405"/>
      <point x="458" y="246"/>
      <point x="458" y="193" type="curve" smooth="yes"/>
      <point x="458" y="147"/>
      <point x="459" y="99"/>
      <point x="456" y="53" type="curve" smooth="yes"/>
      <point x="455" y="40"/>
      <point x="448" y="26"/>
      <point x="433" y="26" type="curve" smooth="yes"/>
      <point x="419" y="26"/>
      <point x="405" y="27"/>
      <point x="391" y="27" type="curve" smooth="yes"/>
      <point x="382" y="27"/>
      <point x="379" y="18"/>
      <point x="379" y="11" type="curve" smooth="yes"/>
      <point x="379" y="6"/>
      <point x="387" y="-1"/>
      <point x="392" y="-1" type="curve" smooth="yes"/>
      <point x="431" y="-1"/>
      <point x="470" y="2"/>
      <point x="509" y="2" type="curve" smooth="yes"/>
      <point x="544" y="2"/>
      <point x="578" y="0"/>
      <point x="612" y="0" type="curve" smooth="yes"/>
      <point x="619" y="0"/>
      <point x="632" y="3"/>
    </contour>
  </outline>
</glyph>
<glyph name="i" format="2">
  <advance height="1000" width="344"/>
  <unicode hex="0069"/>
  <note>
cid00074
</note>
  <outline>
    <contour>
      <point x="323" y="15" type="curve" smooth="yes"/>
      <point x="323" y="20"/>
      <point x="316" y="29"/>
      <point x="311" y="29" type="curve" smooth="yes"/>
      <point x="301" y="29"/>
      <point x="291" y="28"/>
      <point x="281" y="28" type="curve" smooth="yes"/>
      <point x="263" y="28"/>
      <point x="234" y="29"/>
      <point x="234" y="53" type="curve" smooth="yes"/>
      <point x="234" y="213"/>
      <point x="236" y="372"/>
      <point x="236" y="531" type="curve" smooth="yes"/>
      <point x="236" y="542"/>
      <point x="228" y="546"/>
      <point x="218" y="546" type="curve" smooth="yes"/>
      <point x="214" y="546"/>
      <point x="210" y="545"/>
      <point x="207" y="544" type="curve" smooth="yes"/>
      <point x="170" y="536"/>
      <point x="133" y="527"/>
      <point x="96" y="520" type="curve" smooth="yes"/>
      <point x="79" y="517"/>
      <point x="61" y="516"/>
      <point x="44" y="511" type="curve" smooth="yes"/>
      <point x="36" y="509"/>
      <point x="34" y="504"/>
      <point x="34" y="496" type="curve" smooth="yes"/>
      <point x="34" y="489"/>
      <point x="45" y="486"/>
      <point x="50" y="486" type="curve" smooth="yes"/>
      <point x="68" y="486"/>
      <point x="86" y="490"/>
      <point x="104" y="490" type="curve" smooth="yes"/>
      <point x="126" y="490"/>
      <point x="130" y="475"/>
      <point x="130" y="457" type="curve" smooth="yes"/>
      <point x="129" y="183" type="line"/>
      <point x="129" y="53" type="line" smooth="yes"/>
      <point x="129" y="35"/>
      <point x="115" y="27"/>
      <point x="98" y="27" type="curve" smooth="yes"/>
      <point x="82" y="27"/>
      <point x="63" y="30"/>
      <point x="47" y="27" type="curve" smooth="yes"/>
      <point x="39" y="26"/>
      <point x="36" y="21"/>
      <point x="36" y="14" type="curve" smooth="yes"/>
      <point x="36" y="8"/>
      <point x="42" y="-1"/>
      <point x="49" y="-1" type="curve" smooth="yes"/>
      <point x="88" y="-1"/>
      <point x="127" y="2"/>
      <point x="166" y="2" type="curve" smooth="yes"/>
      <point x="213" y="2"/>
      <point x="259" y="-1"/>
      <point x="306" y="-1" type="curve" smooth="yes"/>
      <point x="314" y="-1"/>
      <point x="323" y="7"/>
    </contour>
    <contour>
      <point x="241" y="708" type="curve" smooth="yes"/>
      <point x="241" y="745"/>
      <point x="210" y="770"/>
      <point x="174" y="770" type="curve" smooth="yes"/>
      <point x="138" y="770"/>
      <point x="107" y="745"/>
      <point x="107" y="708" type="curve" smooth="yes"/>
      <point x="107" y="671"/>
      <point x="138" y="646"/>
      <point x="174" y="646" type="curve" smooth="yes"/>
      <point x="210" y="646"/>
      <point x="241" y="671"/>
    </contour>
  </outline>
</glyph>
<glyph name="j" format="2">
  <advance height="1000" width="380"/>
  <unicode hex="006A"/>
  <note>
cid00075
</note>
  <outline>
    <contour>
      <point x="278" y="534" type="curve" smooth="yes"/>
      <point x="278" y="542"/>
      <point x="272" y="546"/>
      <point x="265" y="546" type="curve" smooth="yes"/>
      <point x="262" y="546"/>
      <point x="258" y="545"/>
      <point x="255" y="544" type="curve" smooth="yes"/>
      <point x="217" y="536"/>
      <point x="180" y="528"/>
      <point x="142" y="523" type="curve" smooth="yes"/>
      <point x="124" y="520"/>
      <point x="102" y="520"/>
      <point x="84" y="514" type="curve" smooth="yes"/>
      <point x="76" y="512"/>
      <point x="74" y="507"/>
      <point x="74" y="498" type="curve" smooth="yes"/>
      <point x="74" y="490"/>
      <point x="85" y="487"/>
      <point x="91" y="487" type="curve" smooth="yes"/>
      <point x="106" y="487"/>
      <point x="124" y="492"/>
      <point x="142" y="492" type="curve" smooth="yes"/>
      <point x="147" y="492"/>
      <point x="152" y="492"/>
      <point x="156" y="490" type="curve" smooth="yes"/>
      <point x="168" y="485"/>
      <point x="170" y="471"/>
      <point x="170" y="459" type="curve" smooth="yes"/>
      <point x="170" y="-52" type="line" smooth="yes"/>
      <point x="170" y="-109"/>
      <point x="127" y="-150"/>
      <point x="70" y="-150" type="curve" smooth="yes"/>
      <point x="44" y="-150"/>
      <point x="26" y="-120"/>
      <point x="19" y="-98" type="curve" smooth="yes"/>
      <point x="15" y="-85"/>
      <point x="16" y="-68"/>
      <point x="-3" y="-68" type="curve" smooth="yes"/>
      <point x="-32" y="-68"/>
      <point x="-54" y="-87"/>
      <point x="-54" y="-117" type="curve" smooth="yes"/>
      <point x="-54" y="-129"/>
      <point x="-42" y="-145"/>
      <point x="-33" y="-153" type="curve" smooth="yes"/>
      <point x="-7" y="-176"/>
      <point x="34" y="-186"/>
      <point x="68" y="-186" type="curve" smooth="yes"/>
      <point x="143" y="-186"/>
      <point x="213" y="-162"/>
      <point x="251" y="-93" type="curve" smooth="yes"/>
      <point x="276" y="-48"/>
      <point x="278" y="30"/>
      <point x="278" y="81" type="curve" smooth="yes"/>
      <point x="278" y="232"/>
      <point x="278" y="383"/>
    </contour>
    <contour>
      <point x="274" y="708" type="curve" smooth="yes"/>
      <point x="274" y="745"/>
      <point x="243" y="770"/>
      <point x="207" y="770" type="curve" smooth="yes"/>
      <point x="172" y="770"/>
      <point x="141" y="745"/>
      <point x="141" y="708" type="curve" smooth="yes"/>
      <point x="141" y="671"/>
      <point x="172" y="646"/>
      <point x="207" y="646" type="curve" smooth="yes"/>
      <point x="243" y="646"/>
      <point x="274" y="671"/>
    </contour>
  </outline>
</glyph>
<glyph name="k" format="2">
  <advance height="1000" width="592"/>
  <unicode hex="006B"/>
  <note>
cid00076
</note>
  <outline>
    <contour>
      <point x="593" y="17" type="curve" smooth="yes"/>
      <point x="593" y="26"/>
      <point x="587" y="27"/>
      <point x="580" y="28" type="curve" smooth="yes"/>
      <point x="552" y="34"/>
      <point x="523" y="61"/>
      <point x="507" y="84" type="curve" smooth="yes"/>
      <point x="470" y="136"/>
      <point x="435" y="190"/>
      <point x="399" y="244" type="curve" smooth="yes"/>
      <point x="373" y="283"/>
      <point x="347" y="323"/>
      <point x="324" y="364" type="curve"/>
      <point x="381" y="410"/>
      <point x="439" y="455"/>
      <point x="498" y="498" type="curve" smooth="yes"/>
      <point x="523" y="517"/>
      <point x="570" y="504"/>
      <point x="570" y="525" type="curve" smooth="yes"/>
      <point x="570" y="538"/>
      <point x="565" y="540"/>
      <point x="553" y="540" type="curve" smooth="yes"/>
      <point x="535" y="540"/>
      <point x="518" y="539"/>
      <point x="500" y="539" type="curve" smooth="yes"/>
      <point x="487" y="539"/>
      <point x="474" y="540"/>
      <point x="460" y="540" type="curve" smooth="yes"/>
      <point x="451" y="540"/>
      <point x="444" y="539"/>
      <point x="438" y="532" type="curve" smooth="yes"/>
      <point x="421" y="508"/>
      <point x="400" y="487"/>
      <point x="379" y="467" type="curve" smooth="yes"/>
      <point x="321" y="415"/>
      <point x="261" y="364"/>
      <point x="199" y="317" type="curve"/>
      <point x="199" y="765" type="line" smooth="yes"/>
      <point x="199" y="770"/>
      <point x="194" y="773"/>
      <point x="189" y="773" type="curve" smooth="yes"/>
      <point x="179" y="773"/>
      <point x="121" y="760"/>
      <point x="106" y="757" type="curve" smooth="yes"/>
      <point x="80" y="752"/>
      <point x="54" y="749"/>
      <point x="29" y="744" type="curve" smooth="yes"/>
      <point x="20" y="742"/>
      <point x="17" y="741"/>
      <point x="17" y="732" type="curve" smooth="yes"/>
      <point x="17" y="726"/>
      <point x="22" y="721"/>
      <point x="28" y="721" type="curve" smooth="yes"/>
      <point x="42" y="721"/>
      <point x="57" y="725"/>
      <point x="71" y="725" type="curve" smooth="yes"/>
      <point x="97" y="725"/>
      <point x="100" y="710"/>
      <point x="100" y="687" type="curve" smooth="yes"/>
      <point x="100" y="50" type="line" smooth="yes"/>
      <point x="100" y="28"/>
      <point x="92" y="27"/>
      <point x="72" y="27" type="curve" smooth="yes"/>
      <point x="61" y="27"/>
      <point x="27" y="33"/>
      <point x="27" y="15" type="curve" smooth="yes"/>
      <point x="27" y="9"/>
      <point x="33" y="0"/>
      <point x="40" y="0" type="curve" smooth="yes"/>
      <point x="65" y="0"/>
      <point x="90" y="3"/>
      <point x="116" y="3" type="curve" smooth="yes"/>
      <point x="163" y="3"/>
      <point x="210" y="1"/>
      <point x="258" y="1" type="curve" smooth="yes"/>
      <point x="266" y="1"/>
      <point x="275" y="6"/>
      <point x="275" y="15" type="curve" smooth="yes"/>
      <point x="275" y="25"/>
      <point x="266" y="29"/>
      <point x="258" y="29" type="curve" smooth="yes"/>
      <point x="245" y="29"/>
      <point x="232" y="27"/>
      <point x="219" y="27" type="curve" smooth="yes"/>
      <point x="206" y="27"/>
      <point x="199" y="38"/>
      <point x="199" y="50" type="curve" smooth="yes"/>
      <point x="199" y="278" type="line"/>
      <point x="250" y="315" type="line"/>
      <point x="307" y="223"/>
      <point x="361" y="130"/>
      <point x="419" y="40" type="curve" smooth="yes"/>
      <point x="446" y="-1"/>
      <point x="473" y="0"/>
      <point x="518" y="0" type="curve" smooth="yes"/>
      <point x="531" y="0"/>
      <point x="593" y="0"/>
    </contour>
  </outline>
</glyph>
<glyph name="l" format="2">
  <advance height="1000" width="346"/>
  <unicode hex="006C"/>
  <note>
cid00077
</note>
  <outline>
    <contour>
      <point x="321" y="15" type="curve" smooth="yes"/>
      <point x="321" y="20"/>
      <point x="314" y="31"/>
      <point x="309" y="31" type="curve" smooth="yes"/>
      <point x="295" y="31"/>
      <point x="281" y="29"/>
      <point x="267" y="29" type="curve" smooth="yes"/>
      <point x="252" y="29"/>
      <point x="232" y="37"/>
      <point x="232" y="55" type="curve" smooth="yes"/>
      <point x="232" y="162"/>
      <point x="231" y="269"/>
      <point x="231" y="375" type="curve" smooth="yes"/>
      <point x="231" y="643" type="line" smooth="yes"/>
      <point x="231" y="681"/>
      <point x="231" y="719"/>
      <point x="231" y="757" type="curve" smooth="yes"/>
      <point x="231" y="766"/>
      <point x="226" y="772"/>
      <point x="217" y="772" type="curve" smooth="yes"/>
      <point x="213" y="772"/>
      <point x="210" y="771"/>
      <point x="206" y="770" type="curve" smooth="yes"/>
      <point x="164" y="757"/>
      <point x="123" y="745"/>
      <point x="80" y="734" type="curve" smooth="yes"/>
      <point x="65" y="730"/>
      <point x="47" y="729"/>
      <point x="31" y="723" type="curve" smooth="yes"/>
      <point x="23" y="720"/>
      <point x="22" y="715"/>
      <point x="22" y="707" type="curve" smooth="yes"/>
      <point x="22" y="701"/>
      <point x="33" y="699"/>
      <point x="37" y="699" type="curve" smooth="yes"/>
      <point x="61" y="699"/>
      <point x="83" y="709"/>
      <point x="106" y="709" type="curve" smooth="yes"/>
      <point x="125" y="709"/>
      <point x="127" y="691"/>
      <point x="127" y="677" type="curve" smooth="yes"/>
      <point x="127" y="573"/>
      <point x="129" y="469"/>
      <point x="129" y="365" type="curve" smooth="yes"/>
      <point x="129" y="262"/>
      <point x="127" y="158"/>
      <point x="127" y="55" type="curve" smooth="yes"/>
      <point x="127" y="37"/>
      <point x="112" y="29"/>
      <point x="96" y="29" type="curve" smooth="yes"/>
      <point x="83" y="29"/>
      <point x="68" y="31"/>
      <point x="56" y="29" type="curve" smooth="yes"/>
      <point x="48" y="27"/>
      <point x="45" y="23"/>
      <point x="45" y="16" type="curve" smooth="yes"/>
      <point x="45" y="9"/>
      <point x="50" y="-1"/>
      <point x="58" y="-1" type="curve" smooth="yes"/>
      <point x="72" y="-1"/>
      <point x="87" y="0"/>
      <point x="102" y="1" type="curve" smooth="yes"/>
      <point x="127" y="2"/>
      <point x="152" y="2"/>
      <point x="177" y="2" type="curve" smooth="yes"/>
      <point x="219" y="2"/>
      <point x="262" y="-1"/>
      <point x="304" y="-1" type="curve" smooth="yes"/>
      <point x="312" y="-1"/>
      <point x="321" y="7"/>
    </contour>
  </outline>
</glyph>
